{"glyphs":{"0":{"ha":964,"x_min":0,"x_max":0,"o":"m 482 -15 b 892 486 738 -15 892 158 b 482 988 892 818 738 988 b 72 486 226 988 72 814 b 482 -15 72 154 226 -15 z m 482 843 b 708 579 619 843 708 757 l 708 393 b 482 129 708 217 619 129 b 256 393 344 129 256 217 l 256 579 b 482 843 256 757 344 843 z "},"1":{"ha":721,"x_min":0,"x_max":0,"o":"m 39 0 l 715 0 l 715 158 l 474 158 l 474 972 l 324 972 l 39 889 l 39 872 l 268 939 b 303 919 289 946 303 942 l 303 158 l 39 158 z "},"2":{"ha":838,"x_min":0,"x_max":0,"o":"m 38 6 l 38 0 l 786 0 l 786 158 l 278 158 b 268 168 271 158 268 163 b 278 182 268 174 271 176 l 403 288 b 618 454 488 357 549 403 b 776 707 729 532 776 601 b 417 988 776 875 658 988 b 46 683 193 988 46 867 l 46 629 l 218 629 l 218 678 b 417 849 218 789 289 849 b 600 674 538 849 600 786 l 600 606 b 424 329 600 507 569 453 z "},"3":{"ha":872,"x_min":0,"x_max":0,"o":"m 806 265 b 517 501 806 454 650 493 b 789 719 676 511 789 585 b 440 988 789 888 667 988 b 71 690 210 988 71 871 l 71 657 l 238 657 l 238 686 b 438 851 238 789 311 851 b 624 694 553 851 624 796 l 624 650 b 474 510 624 564 567 510 l 306 510 l 306 493 l 474 493 b 638 326 581 493 638 442 l 638 279 b 432 121 638 179 571 121 b 228 271 307 121 228 168 l 228 301 l 58 301 l 58 268 b 426 -15 58 82 193 -15 b 806 265 664 -15 806 82 z "},"4":{"ha":885,"x_min":0,"x_max":0,"o":"m 768 0 l 768 232 l 876 232 l 876 249 l 768 249 l 768 643 l 590 643 l 590 249 l 238 249 b 221 274 221 249 214 258 l 539 972 l 357 972 l 21 232 l 590 232 l 590 0 z "},"5":{"ha":878,"x_min":0,"x_max":0,"o":"m 444 -15 b 821 321 669 -15 821 114 b 506 628 821 517 703 628 b 258 497 404 628 306 590 l 294 818 l 783 818 l 783 972 l 151 972 l 97 446 l 250 446 b 447 579 279 524 331 579 b 643 386 568 579 643 508 l 643 307 b 440 121 643 189 565 121 b 239 267 315 121 239 178 l 239 288 l 74 288 l 74 261 b 444 -15 74 88 208 -15 z "},"6":{"ha":925,"x_min":0,"x_max":0,"o":"m 856 315 b 539 615 856 510 731 617 b 254 408 399 615 285 553 l 254 572 b 482 850 254 751 328 850 b 665 708 596 850 665 794 l 665 694 l 836 694 l 836 713 b 481 988 836 881 707 988 b 68 478 204 988 68 804 b 476 -15 68 135 218 -15 b 856 315 706 -15 856 117 z m 472 121 b 264 310 340 121 264 192 l 264 347 b 475 561 264 492 351 561 b 675 371 606 561 675 493 l 675 306 b 472 121 675 190 600 121 z "},"7":{"ha":703,"x_min":0,"x_max":0,"o":"m 719 967 l 719 972 l 18 972 l 18 799 l 588 799 b 599 772 600 799 607 788 l 199 0 l 219 0 z "},"8":{"ha":908,"x_min":0,"x_max":0,"o":"m 454 -15 b 853 263 700 -15 853 82 b 510 497 853 415 722 488 b 822 722 704 508 822 576 b 454 989 822 889 681 989 b 86 724 226 989 86 889 b 399 497 86 578 206 508 b 56 263 186 488 56 415 b 454 -15 56 82 207 -15 z m 454 856 b 654 699 583 856 654 801 l 654 663 b 454 506 654 561 583 506 b 254 663 324 506 254 561 l 254 699 b 454 856 254 801 324 856 z m 454 490 b 674 324 597 490 674 435 l 674 279 b 454 117 674 174 597 117 b 235 279 311 117 235 174 l 235 324 b 454 490 235 435 311 490 z "},"9":{"ha":925,"x_min":0,"x_max":0,"o":"m 69 657 b 386 357 69 463 194 356 b 671 564 526 357 640 419 l 671 400 b 443 122 671 221 597 122 b 260 264 329 122 260 178 l 260 278 l 89 278 l 89 260 b 444 -15 89 92 218 -15 b 857 494 721 -15 857 168 b 449 988 857 838 707 988 b 69 657 219 988 69 856 z m 453 851 b 661 663 585 851 661 781 l 661 625 b 450 411 661 481 574 411 b 250 601 319 411 250 479 l 250 667 b 453 851 250 782 325 851 z "},"\u0000":{"ha":0,"x_min":0,"x_max":0,"o":""},"\r":{"ha":0,"x_min":0,"x_max":0,"o":""}," ":{"ha":292,"x_min":0,"x_max":0,"o":""}," ":{"ha":292,"x_min":0,"x_max":0,"o":""},"A":{"ha":932,"x_min":0,"x_max":0,"o":"m 735 0 l 918 0 l 599 972 l 333 972 l 14 0 l 188 0 l 285 294 b 307 313 288 307 294 313 l 618 313 b 638 297 628 313 635 307 z m 301 349 l 463 836 l 622 347 b 610 329 625 336 621 329 l 314 329 b 301 349 303 329 297 338 z "},"B":{"ha":958,"x_min":0,"x_max":0,"o":"m 128 0 l 590 0 b 900 264 778 0 900 92 b 613 504 900 403 825 493 b 867 724 804 517 867 607 b 590 972 867 885 765 972 l 128 972 z m 304 533 l 304 839 l 549 839 b 690 714 636 839 690 792 l 690 647 b 540 513 690 563 647 513 l 325 513 b 304 533 308 513 304 525 z m 304 475 b 325 496 304 482 308 496 l 542 496 b 714 349 631 496 714 460 l 714 275 b 561 140 714 190 660 140 l 304 140 z "},"C":{"ha":1014,"x_min":0,"x_max":0,"o":"m 758 365 l 758 344 b 529 129 758 197 672 129 b 267 408 361 129 267 228 l 267 569 b 529 843 267 747 369 843 b 758 632 675 843 758 758 l 758 607 l 938 607 l 938 632 b 529 988 938 847 792 988 b 76 486 236 988 76 814 b 529 -15 76 149 233 -15 b 938 344 792 -15 938 128 l 938 365 z "},"D":{"ha":1036,"x_min":0,"x_max":0,"o":"m 128 0 l 546 0 b 954 486 810 0 954 188 b 546 972 954 785 811 972 l 128 972 z m 514 826 b 768 567 683 826 768 732 l 768 406 b 514 146 768 240 683 146 l 301 146 l 301 826 z "},"E":{"ha":849,"x_min":0,"x_max":0,"o":"m 128 0 l 789 0 l 789 157 l 308 157 l 308 475 b 329 496 308 482 313 496 l 756 496 l 756 513 l 329 513 b 308 533 313 513 308 525 l 308 815 l 775 815 l 775 972 l 128 972 z "},"F":{"ha":779,"x_min":0,"x_max":0,"o":"m 128 0 l 308 0 l 308 422 b 329 443 308 429 313 443 l 718 443 l 718 460 l 329 460 b 308 481 313 460 308 472 l 308 815 l 740 815 l 740 972 l 128 972 z "},"G":{"ha":1025,"x_min":0,"x_max":0,"o":"m 433 451 l 433 435 l 746 435 b 767 414 761 435 767 429 l 767 342 b 532 129 767 196 674 129 b 267 408 361 129 267 228 l 267 569 b 532 843 267 747 374 843 b 767 635 681 843 767 765 l 767 611 l 943 611 l 943 638 b 532 988 943 851 792 988 b 76 486 238 988 76 807 b 532 -15 76 149 233 -15 b 943 346 797 -15 943 128 l 943 451 z "},"H":{"ha":1068,"x_min":0,"x_max":0,"o":"m 128 0 l 308 0 l 308 475 b 329 496 308 482 313 496 l 739 496 b 760 475 756 496 760 482 l 760 0 l 940 0 l 940 972 l 760 972 l 760 533 b 739 513 760 525 756 513 l 329 513 b 308 533 313 513 308 525 l 308 972 l 128 972 z "},"I":{"ha":436,"x_min":0,"x_max":0,"o":"m 128 0 l 308 0 l 308 972 l 128 972 z "},"J":{"ha":888,"x_min":0,"x_max":0,"o":"m 774 299 l 774 972 l 158 972 l 158 956 l 575 956 b 596 935 590 956 596 949 l 596 289 b 422 126 596 179 533 126 b 242 279 308 126 242 175 l 242 378 l 69 378 l 69 275 b 421 -15 69 83 200 -15 b 774 299 649 -15 774 99 z "},"K":{"ha":965,"x_min":0,"x_max":0,"o":"m 128 0 l 304 0 l 304 353 l 483 558 l 754 0 l 953 0 l 614 707 l 796 914 b 869 956 826 949 839 956 l 928 956 l 928 972 l 128 972 z m 778 956 b 793 942 789 956 793 950 b 776 917 793 935 789 932 l 304 379 l 304 956 z "},"L":{"ha":793,"x_min":0,"x_max":0,"o":"m 128 0 l 769 0 l 769 158 l 308 158 l 308 972 l 128 972 z "},"M":{"ha":1333,"x_min":0,"x_max":0,"o":"m 294 0 l 294 804 l 653 -15 l 667 -15 l 1025 932 l 1025 0 l 1206 0 l 1206 972 l 1021 972 l 756 271 b 736 253 751 260 747 253 b 717 272 726 253 722 260 l 410 972 l 129 972 l 129 0 z "},"N":{"ha":1014,"x_min":0,"x_max":0,"o":"m 365 972 l 128 972 l 128 0 l 296 0 l 296 772 l 876 -25 l 890 -25 l 890 972 l 872 972 l 872 324 b 857 306 872 311 865 306 b 835 322 849 306 846 307 z "},"O":{"ha":1064,"x_min":0,"x_max":0,"o":"m 532 -15 b 988 486 824 -15 988 158 b 532 988 988 818 825 988 b 76 486 239 988 76 814 b 532 -15 76 154 239 -15 z m 532 843 b 801 569 693 843 801 747 l 801 408 b 532 129 801 226 697 129 b 263 408 365 129 263 226 l 263 569 b 532 843 263 747 371 843 z "},"P":{"ha":935,"x_min":0,"x_max":0,"o":"m 128 0 l 308 0 l 308 335 b 329 356 308 342 313 356 l 576 356 b 883 649 768 356 883 449 b 589 972 883 844 772 972 l 128 972 z m 550 829 b 699 679 649 829 699 772 l 699 521 b 547 372 699 424 651 372 l 329 372 b 308 393 313 372 308 385 l 308 829 z "},"Q":{"ha":1064,"x_min":0,"x_max":0,"o":"m 532 -15 b 718 14 601 -15 664 -6 l 819 -196 l 839 -196 l 735 21 b 988 486 899 86 988 244 b 532 988 988 818 825 988 b 76 486 239 988 76 814 b 532 -15 76 154 239 -15 z m 532 843 b 801 569 693 843 801 747 l 801 408 b 668 157 801 283 753 199 l 529 446 l 510 446 l 653 150 b 532 129 617 136 576 129 b 263 408 365 129 263 226 l 263 569 b 532 843 263 747 371 843 z "},"R":{"ha":954,"x_min":0,"x_max":0,"o":"m 128 0 l 308 0 l 308 414 b 329 435 308 421 313 435 l 404 435 b 439 414 422 435 426 433 l 721 0 l 928 0 l 679 363 l 519 363 b 482 385 501 363 493 368 l 447 435 l 582 435 b 889 692 774 435 889 504 b 594 972 889 878 778 972 l 128 972 z m 563 831 b 707 697 657 831 707 779 l 707 586 b 560 451 707 500 660 451 l 329 451 b 308 472 313 451 308 464 l 308 831 z "},"S":{"ha":940,"x_min":0,"x_max":0,"o":"m 465 846 b 669 690 606 846 669 794 l 669 635 l 853 635 l 853 686 b 465 988 853 889 718 988 b 79 718 214 988 79 878 b 346 500 79 574 157 522 l 533 482 b 685 339 647 468 685 422 l 685 274 b 471 126 685 179 625 126 b 256 286 318 126 256 178 l 256 343 l 68 343 l 68 289 b 471 -15 68 85 214 -15 b 875 264 715 -15 875 82 b 614 493 875 400 808 472 l 431 510 b 267 644 319 522 267 558 l 267 700 b 465 846 267 797 324 846 z "},"T":{"ha":863,"x_min":0,"x_max":0,"o":"m 342 0 l 522 0 l 522 815 l 832 815 l 832 972 l 31 972 l 31 815 l 342 815 z "},"U":{"ha":1029,"x_min":0,"x_max":0,"o":"m 915 336 l 915 972 l 735 972 l 735 326 b 514 129 735 196 654 129 b 293 326 374 129 293 196 l 293 972 l 114 972 l 114 336 b 514 -15 114 106 256 -15 b 915 336 774 -15 915 106 z "},"V":{"ha":819,"x_min":0,"x_max":0,"o":"m 507 0 l 810 972 l 790 972 l 511 75 b 496 61 508 63 503 61 b 481 75 489 61 485 64 l 196 972 l 10 972 l 324 0 z "},"W":{"ha":1344,"x_min":0,"x_max":0,"o":"m 206 972 l 22 972 l 268 0 l 454 0 l 600 597 b 618 617 603 610 607 617 b 635 597 628 617 631 610 l 826 0 l 1090 0 l 1318 972 l 1140 972 l 956 160 l 689 988 l 676 988 l 443 31 z "},"X":{"ha":818,"x_min":0,"x_max":0,"o":"m 806 0 l 500 506 b 501 543 492 518 493 531 l 779 972 l 758 972 l 494 564 b 479 553 489 556 488 553 b 465 565 474 553 471 556 l 219 972 l 18 972 l 310 486 b 308 446 318 471 317 460 l 24 0 l 44 0 l 318 428 b 332 439 324 438 326 439 b 346 426 339 439 340 436 l 604 0 z "},"Y":{"ha":819,"x_min":0,"x_max":0,"o":"m 335 0 l 515 0 l 515 404 b 532 472 515 433 517 446 l 807 972 l 786 972 l 519 485 b 504 472 514 475 510 472 b 489 485 497 472 496 474 l 221 972 l 13 972 l 335 397 z "},"Z":{"ha":808,"x_min":0,"x_max":0,"o":"m 781 157 l 283 157 l 779 958 l 779 972 l 53 972 l 53 956 l 554 956 b 575 939 568 956 575 950 b 569 924 575 933 572 929 l 10 14 l 10 0 l 781 0 z "},"Æ":{"ha":1385,"x_min":0,"x_max":0,"o":"m 686 0 l 1326 0 l 1326 157 l 867 157 l 867 475 b 888 496 867 482 871 496 l 1293 496 l 1293 513 l 888 513 b 867 533 871 513 867 525 l 867 815 l 1313 815 l 1313 972 l 597 972 l 14 0 l 199 0 l 369 283 b 394 299 376 296 382 299 l 686 299 z m 408 315 b 399 335 396 315 393 325 l 686 817 l 686 315 z "},"Œ":{"ha":1394,"x_min":0,"x_max":0,"o":"m 485 0 l 1335 0 l 1335 157 l 875 157 l 875 475 b 896 496 875 482 879 496 l 1301 496 l 1301 513 l 896 513 b 875 533 879 513 875 525 l 875 815 l 1321 815 l 1321 972 l 485 972 b 76 486 221 972 76 785 b 485 0 76 188 219 0 z m 517 146 b 263 406 346 146 263 240 l 263 567 b 517 826 263 732 346 826 l 694 826 l 694 146 z "},"Ł":{"ha":793,"x_min":0,"x_max":0,"o":"m 128 0 l 769 0 l 769 158 l 308 158 l 308 511 l 554 610 l 554 628 l 308 529 l 308 972 l 128 972 l 128 458 l 21 415 l 21 397 l 128 440 z "},"Ø":{"ha":1064,"x_min":0,"x_max":0,"o":"m 168 -17 l 235 74 b 532 -15 310 14 410 -15 b 988 486 824 -15 988 158 b 842 889 988 671 938 806 l 914 986 l 892 986 l 828 900 b 532 988 753 958 654 988 b 76 486 239 988 76 814 b 221 85 76 301 126 168 l 146 -17 z m 532 843 b 731 769 614 843 683 818 l 319 217 b 263 408 283 264 263 328 l 263 569 b 532 843 263 747 371 843 z m 801 569 l 801 408 b 532 129 801 226 697 129 b 332 204 447 129 378 154 l 743 756 b 801 569 781 711 801 649 z "},"Ð":{"ha":1036,"x_min":0,"x_max":0,"o":"m 128 0 l 546 0 b 954 486 810 0 954 188 b 546 972 954 785 811 972 l 128 972 l 128 513 l 14 513 l 14 496 l 128 496 z m 561 496 l 561 513 l 301 513 l 301 826 l 514 826 b 768 567 683 826 768 732 l 768 406 b 514 146 768 240 683 146 l 301 146 l 301 496 z "},"Þ":{"ha":935,"x_min":0,"x_max":0,"o":"m 128 0 l 308 0 l 308 181 b 329 201 308 188 313 201 l 576 201 b 883 493 768 201 883 293 b 589 817 883 690 772 817 l 308 817 l 308 972 l 128 972 z m 550 676 b 699 526 649 676 699 619 l 699 367 b 547 218 699 268 651 218 l 329 218 b 308 239 313 218 308 231 l 308 676 z "},"a":{"ha":797,"x_min":0,"x_max":0,"o":"m 74 510 l 229 510 l 229 531 b 389 647 229 608 285 647 b 544 528 496 647 544 603 l 544 525 b 340 397 544 451 511 418 b 60 181 126 369 60 304 b 274 -15 60 39 143 -15 b 544 192 396 -15 508 47 l 544 0 l 707 0 l 707 513 b 393 767 707 682 599 767 b 74 531 193 767 74 679 z m 228 188 l 228 250 b 393 388 228 338 293 365 b 544 467 475 407 524 424 l 544 293 b 354 69 544 99 443 69 b 228 188 271 69 228 106 z "},"b":{"ha":867,"x_min":0,"x_max":0,"o":"m 269 1042 l 103 1042 l 103 0 l 269 0 l 269 221 b 535 -15 306 69 400 -15 b 807 374 713 -15 807 107 b 535 767 807 640 713 767 b 269 529 400 767 306 682 z m 629 264 b 464 68 629 126 568 68 b 269 375 340 68 269 156 b 464 682 269 596 340 682 b 629 485 568 682 629 624 z "},"c":{"ha":799,"x_min":0,"x_max":0,"o":"m 744 463 l 744 476 b 415 767 744 672 606 767 b 53 374 183 767 53 631 b 415 -15 53 117 176 -15 b 744 268 615 -15 744 76 l 744 288 l 585 288 l 585 264 b 415 110 585 165 524 110 b 226 301 296 110 226 179 l 226 447 b 415 642 226 571 294 642 b 585 481 525 642 585 585 l 585 463 z "},"d":{"ha":867,"x_min":0,"x_max":0,"o":"m 597 1042 l 597 529 b 332 767 561 682 467 767 b 60 374 154 767 60 640 b 332 -15 60 107 154 -15 b 597 221 467 -15 561 69 l 597 0 l 764 0 l 764 1042 z m 238 264 l 238 485 b 403 682 238 624 299 682 b 597 375 526 682 597 596 b 403 68 597 156 526 68 b 238 264 299 68 238 126 z "},"e":{"ha":789,"x_min":0,"x_max":0,"o":"m 218 364 b 239 385 218 371 222 385 l 733 385 b 739 453 738 410 739 432 b 407 767 739 667 608 767 b 53 374 185 767 53 638 b 410 -15 53 107 176 -15 b 738 246 615 -15 738 86 l 738 261 l 583 261 l 583 242 b 410 110 583 157 519 110 b 218 301 285 110 218 171 z m 218 451 b 408 644 218 578 285 644 b 583 474 522 644 583 590 l 583 458 b 517 399 583 414 564 399 l 239 399 b 218 419 222 399 218 411 z "},"f":{"ha":449,"x_min":0,"x_max":0,"o":"m 10 738 l 122 738 l 122 0 l 288 0 l 288 717 b 308 738 288 731 294 738 l 464 738 l 464 751 l 308 751 b 288 772 294 751 288 758 l 288 1000 b 317 1028 288 1018 297 1028 l 464 1028 l 464 1042 l 246 1042 b 122 918 167 1042 122 1000 l 122 751 l 10 751 z "},"g":{"ha":867,"x_min":0,"x_max":0,"o":"m 94 -42 l 94 -64 b 415 -293 94 -228 208 -293 b 764 -12 649 -293 764 -199 l 764 751 l 597 751 l 597 539 b 336 767 561 685 468 767 b 63 389 157 767 63 646 b 336 14 63 132 157 14 b 597 242 468 14 561 96 l 597 -18 b 415 -171 597 -126 542 -171 b 253 -64 304 -171 253 -135 l 253 -42 z m 240 293 l 240 485 b 406 681 240 624 301 681 b 597 390 528 681 597 601 b 406 99 597 176 528 99 b 240 293 301 99 240 157 z "},"h":{"ha":856,"x_min":0,"x_max":0,"o":"m 103 0 l 269 0 l 269 439 b 456 678 269 628 356 678 b 597 525 554 678 597 628 l 597 0 l 764 0 l 764 528 b 536 767 764 701 668 767 b 269 551 411 767 304 697 l 269 1042 l 103 1042 z "},"i":{"ha":372,"x_min":0,"x_max":0,"o":"m 188 856 b 288 954 247 856 288 894 b 188 1053 288 1014 247 1053 b 86 954 126 1053 86 1014 b 188 856 86 894 126 856 z m 103 0 l 269 0 l 269 751 l 103 751 z "},"j":{"ha":372,"x_min":0,"x_max":0,"o":"m 188 856 b 288 954 247 856 288 894 b 188 1053 288 1014 247 1053 b 86 954 126 1053 86 1014 b 188 856 86 894 126 856 z m 269 -161 l 269 751 l 103 751 l 103 -229 b 68 -264 103 -253 92 -264 l -12 -264 l -12 -278 l 151 -278 b 269 -161 228 -278 269 -242 z "},"k":{"ha":792,"x_min":0,"x_max":0,"o":"m 103 0 l 269 0 l 269 314 l 407 457 l 600 0 l 778 0 l 533 588 l 650 708 b 710 738 674 731 686 738 l 761 738 l 761 751 l 269 751 l 269 1042 l 103 1042 z m 625 738 b 640 725 635 738 640 733 b 628 706 640 718 635 713 l 269 335 l 269 738 z "},"l":{"ha":372,"x_min":0,"x_max":0,"o":"m 103 0 l 269 0 l 269 1042 l 103 1042 z "},"m":{"ha":1267,"x_min":0,"x_max":0,"o":"m 103 0 l 269 0 l 269 465 b 426 678 269 629 343 678 b 556 532 514 678 556 629 l 556 0 l 722 0 l 722 465 b 879 678 722 629 796 678 b 1008 532 967 678 1008 629 l 1008 0 l 1175 0 l 1175 528 b 958 767 1175 701 1085 767 b 721 565 847 767 753 697 b 506 767 708 711 622 767 b 269 571 396 767 303 699 l 269 751 l 103 751 z "},"n":{"ha":856,"x_min":0,"x_max":0,"o":"m 103 0 l 269 0 l 269 439 b 456 678 269 628 356 678 b 597 525 554 678 597 628 l 597 0 l 764 0 l 764 528 b 536 767 764 701 668 767 b 269 551 411 767 304 697 l 269 751 l 103 751 z "},"o":{"ha":832,"x_min":0,"x_max":0,"o":"m 417 767 b 53 374 189 767 53 624 b 417 -15 53 121 189 -15 b 779 374 643 -15 779 126 b 417 767 779 631 643 767 z m 417 110 b 226 299 294 110 226 183 l 226 450 b 417 642 226 567 294 642 b 607 450 538 642 607 567 l 607 299 b 417 110 607 183 538 110 z "},"p":{"ha":867,"x_min":0,"x_max":0,"o":"m 269 751 l 103 751 l 103 -278 l 269 -278 l 269 222 b 535 -15 306 71 401 -15 b 807 374 713 -15 807 107 b 535 767 807 640 713 767 b 269 529 401 767 306 681 z m 629 264 b 464 68 629 126 568 68 b 269 375 340 68 269 156 b 464 682 269 596 340 682 b 629 485 568 682 629 624 z "},"q":{"ha":867,"x_min":0,"x_max":0,"o":"m 597 751 l 597 529 b 332 767 561 682 467 767 b 60 374 154 767 60 640 b 332 -15 60 107 154 -15 b 597 221 467 -15 561 69 l 597 -278 l 764 -278 l 764 751 z m 238 264 l 238 485 b 403 682 238 624 299 682 b 597 375 526 682 597 596 b 403 68 597 156 526 68 b 238 264 299 68 238 126 z "},"r":{"ha":729,"x_min":0,"x_max":0,"o":"m 103 0 l 269 0 l 269 481 b 424 681 269 593 315 681 b 522 588 492 681 522 653 l 522 419 l 676 419 l 676 610 b 510 761 676 719 603 761 b 269 581 394 761 303 694 l 269 751 l 103 751 z "},"s":{"ha":744,"x_min":0,"x_max":0,"o":"m 372 651 b 526 529 476 651 526 614 l 526 501 l 681 501 l 681 528 b 372 767 681 693 574 767 b 58 557 171 767 58 690 b 274 390 58 451 113 407 l 414 378 b 539 269 503 368 539 336 l 539 215 b 381 99 539 132 483 99 b 207 225 267 99 207 142 l 207 257 l 50 257 l 50 231 b 381 -15 50 61 165 -15 b 697 203 585 -15 697 63 b 496 382 697 304 650 365 l 354 396 b 217 497 257 407 217 431 l 217 540 b 372 651 217 615 271 651 z "},"t":{"ha":418,"x_min":0,"x_max":0,"o":"m 114 117 b 231 0 114 40 156 0 l 418 0 l 418 14 l 308 14 b 281 42 290 14 281 24 l 281 717 b 301 738 281 731 288 738 l 418 738 l 418 751 l 301 751 b 281 772 288 751 281 758 l 281 986 l 272 986 b 114 856 246 889 172 856 l 114 751 l 19 751 l 19 738 l 114 738 z "},"u":{"ha":839,"x_min":0,"x_max":0,"o":"m 325 -15 b 569 192 439 -15 538 53 l 569 0 l 736 0 l 736 751 l 569 751 l 569 297 b 404 81 569 118 488 81 b 258 224 306 81 258 128 l 258 751 l 92 751 l 92 224 b 325 -15 92 50 188 -15 z "},"v":{"ha":700,"x_min":0,"x_max":0,"o":"m 438 0 l 690 751 l 479 751 l 479 611 l 561 611 b 604 568 593 611 604 593 b 581 474 604 543 596 521 l 439 49 b 425 36 436 39 432 36 b 411 49 418 36 415 39 l 183 751 l 10 751 l 260 0 z "},"w":{"ha":1104,"x_min":0,"x_max":0,"o":"m 192 751 l 29 751 l 199 0 l 364 0 l 485 450 b 500 465 488 460 490 465 b 517 450 508 465 514 460 l 669 0 l 903 0 l 1074 751 l 918 751 l 781 135 l 564 768 l 554 768 l 354 28 z "},"x":{"ha":663,"x_min":0,"x_max":0,"o":"m 653 0 l 408 401 b 408 429 403 411 403 418 l 621 751 l 601 751 l 404 450 b 392 443 400 444 397 443 b 379 450 386 443 383 444 l 197 751 l 11 751 l 243 371 b 243 344 249 361 249 354 l 17 0 l 35 0 l 247 321 b 260 331 251 328 254 331 b 272 321 265 331 268 328 l 467 0 z "},"y":{"ha":710,"x_min":0,"x_max":0,"o":"m 488 611 l 572 611 b 614 572 603 611 614 596 b 590 472 614 546 607 522 l 456 63 b 442 51 453 54 449 51 l 422 51 b 407 67 414 51 411 54 l 188 751 l 11 751 l 249 38 l 435 38 b 442 26 442 38 444 32 l 396 -112 b 360 -137 390 -133 376 -137 l 114 -137 l 114 -278 l 271 -278 b 414 -107 356 -278 369 -244 l 700 751 l 488 751 z "},"z":{"ha":661,"x_min":0,"x_max":0,"o":"m 15 0 l 631 0 l 631 129 l 249 129 l 619 738 l 619 751 l 50 751 l 50 738 l 426 738 b 438 713 440 738 444 725 l 15 14 z "},"æ":{"ha":1279,"x_min":0,"x_max":0,"o":"m 74 510 l 229 510 l 229 531 b 389 647 229 608 285 647 b 544 528 496 647 544 603 l 544 525 b 340 397 544 451 511 418 b 60 181 126 369 60 304 b 274 -15 60 40 143 -15 b 560 226 399 -15 526 54 b 899 -15 600 61 714 -15 b 1228 246 1104 -15 1228 86 l 1228 261 l 1072 261 l 1072 242 b 899 110 1072 157 1008 110 b 708 301 774 110 708 171 l 708 385 l 1222 385 b 1228 453 1226 410 1228 432 b 896 767 1228 667 1099 767 b 650 681 794 767 710 739 b 393 767 599 739 513 767 b 74 531 193 767 74 679 z m 708 451 b 897 644 708 578 775 644 b 1072 474 1011 644 1072 590 l 1072 458 b 1006 399 1072 414 1053 399 l 708 399 z m 228 188 l 228 250 b 393 388 228 338 293 365 b 544 467 475 407 524 424 l 544 261 b 360 65 544 99 442 65 b 228 188 272 65 228 104 z "},"œ":{"ha":1326,"x_min":0,"x_max":0,"o":"m 411 767 b 53 374 188 767 53 624 b 411 -15 53 121 188 -15 b 676 107 529 -15 619 28 b 943 -15 732 24 822 -15 b 1275 246 1151 -15 1275 86 l 1275 261 l 1121 261 l 1121 242 b 950 110 1121 157 1058 110 b 757 301 824 110 757 171 l 757 385 l 1269 385 b 1275 453 1274 410 1275 432 b 946 767 1275 665 1146 767 b 681 642 829 767 738 725 b 411 767 624 724 532 767 z m 757 451 b 947 644 757 578 824 644 b 1121 474 1060 644 1121 590 l 1121 458 b 1053 399 1121 414 1101 399 l 757 399 z m 411 110 b 226 299 293 110 226 183 l 226 450 b 411 642 226 567 293 642 b 597 450 531 642 597 567 l 597 299 b 411 110 597 183 531 110 z "},"ł":{"ha":372,"x_min":0,"x_max":0,"o":"m 103 0 l 269 0 l 269 568 l 368 617 l 368 633 l 269 585 l 269 1042 l 103 1042 l 103 501 l 4 451 l 4 435 l 103 485 z "},"ø":{"ha":832,"x_min":0,"x_max":0,"o":"m 140 -15 l 189 50 b 417 -15 247 7 325 -15 b 779 374 643 -15 779 126 b 657 690 779 519 736 625 l 713 767 l 694 767 l 646 700 b 417 767 586 744 508 767 b 53 374 189 767 53 624 b 176 60 53 231 96 125 l 121 -15 z m 226 299 l 226 450 b 417 642 226 567 294 642 b 561 585 479 642 529 621 l 263 176 b 226 299 239 208 226 250 z m 417 110 b 272 165 353 110 304 129 l 571 574 b 607 450 594 542 607 500 l 607 299 b 417 110 607 183 538 110 z "},"ð":{"ha":813,"x_min":0,"x_max":0,"o":"m 207 786 l 399 878 b 589 531 510 771 571 654 b 354 722 549 668 465 722 b 53 356 169 722 53 593 b 406 -15 53 101 190 -15 b 760 372 613 -15 756 101 b 519 935 763 614 676 793 l 628 986 l 628 1004 l 506 946 b 378 1042 467 981 425 1011 l 178 1042 b 386 889 260 993 329 943 l 207 804 z m 224 286 l 224 458 b 404 639 224 581 299 639 b 589 440 503 639 589 579 l 589 286 b 408 110 589 163 508 110 b 224 286 297 110 224 161 z "},"þ":{"ha":867,"x_min":0,"x_max":0,"o":"m 269 1042 l 103 1042 l 103 -278 l 269 -278 l 269 222 b 535 -15 306 71 401 -15 b 807 374 713 -15 807 107 b 535 767 807 640 713 767 b 269 529 401 767 306 681 z m 629 264 b 464 68 629 126 568 68 b 269 375 340 68 269 156 b 464 682 269 596 340 682 b 629 485 568 682 629 624 z "},"ß":{"ha":900,"x_min":0,"x_max":0,"o":"m 615 794 b 506 546 615 688 506 643 b 718 268 506 397 718 438 l 718 217 b 563 97 718 140 665 97 b 394 215 453 97 394 138 l 394 261 l 381 261 l 381 179 b 618 -15 381 47 476 -15 b 874 197 769 -15 874 63 b 519 546 874 450 519 389 b 710 840 519 658 710 676 b 435 1057 710 967 604 1057 b 122 774 246 1057 122 946 l 122 751 l 10 751 l 10 738 l 122 738 l 122 0 l 288 0 l 288 760 b 460 936 288 876 344 936 b 615 794 557 936 615 888 z "},"ı":{"ha":372,"x_min":0,"x_max":0,"o":"m 103 0 l 269 0 l 269 751 l 103 751 z "},"ȷ":{"ha":372,"x_min":0,"x_max":0,"o":"m 269 -161 l 269 751 l 103 751 l 103 -229 b 68 -264 103 -253 92 -264 l -12 -264 l -12 -278 l 151 -278 b 269 -161 228 -278 269 -242 z "},"ﬁ":{"ha":815,"x_min":0,"x_max":0,"o":"m 631 856 b 731 954 690 856 731 894 b 631 1053 731 1014 690 1053 b 529 954 569 1053 529 1014 b 631 856 529 894 569 856 z m 10 738 l 122 738 l 122 0 l 288 0 l 288 717 b 308 738 288 731 294 738 l 464 738 l 464 751 l 308 751 b 288 772 294 751 288 758 l 288 1000 b 317 1028 288 1018 297 1028 l 464 1028 l 464 1042 l 246 1042 b 122 918 167 1042 122 1000 l 122 751 l 10 751 z m 546 0 l 713 0 l 713 751 l 546 751 z "},"ﬂ":{"ha":822,"x_min":0,"x_max":0,"o":"m 10 738 l 122 738 l 122 0 l 288 0 l 288 717 b 308 738 288 731 294 738 l 464 738 l 464 751 l 308 751 b 288 772 294 751 288 758 l 288 1000 b 317 1028 288 1018 297 1028 l 464 1028 l 464 1042 l 246 1042 b 122 918 167 1042 122 1000 l 122 751 l 10 751 z m 554 0 l 721 0 l 721 1042 l 554 1042 z "},"Á":{"ha":932,"x_min":0,"x_max":0,"o":"m 457 1024 l 468 1024 l 703 1182 l 703 1190 l 525 1190 z m 735 0 l 918 0 l 599 972 l 333 972 l 14 0 l 188 0 l 285 294 b 307 313 288 307 294 313 l 618 313 b 638 297 628 313 635 307 z m 301 349 l 463 836 l 622 347 b 610 329 625 336 621 329 l 314 329 b 301 349 303 329 297 338 z "},"Â":{"ha":932,"x_min":0,"x_max":0,"o":"m 651 1024 l 669 1024 l 468 1206 l 461 1206 l 261 1024 l 278 1024 l 464 1093 z m 735 0 l 918 0 l 599 972 l 333 972 l 14 0 l 188 0 l 285 294 b 307 313 288 307 294 313 l 618 313 b 638 297 628 313 635 307 z m 301 349 l 463 836 l 622 347 b 610 329 625 336 621 329 l 314 329 b 301 349 303 329 297 338 z "},"Ä":{"ha":932,"x_min":0,"x_max":0,"o":"m 350 1047 b 428 1124 397 1047 428 1078 b 350 1201 428 1172 397 1201 b 272 1124 303 1201 272 1172 b 350 1047 272 1078 303 1047 z m 583 1047 b 661 1124 631 1047 661 1078 b 583 1201 661 1172 631 1201 b 506 1124 538 1201 506 1172 b 583 1047 506 1078 538 1047 z m 735 0 l 918 0 l 599 972 l 333 972 l 14 0 l 188 0 l 285 294 b 307 313 288 307 294 313 l 618 313 b 638 297 628 313 635 307 z m 301 349 l 463 836 l 622 347 b 610 329 625 336 621 329 l 314 329 b 301 349 303 329 297 338 z "},"À":{"ha":932,"x_min":0,"x_max":0,"o":"m 478 1024 l 410 1190 l 233 1190 l 233 1182 l 467 1024 z m 735 0 l 918 0 l 599 972 l 333 972 l 14 0 l 188 0 l 285 294 b 307 313 288 307 294 313 l 618 313 b 638 297 628 313 635 307 z m 301 349 l 463 836 l 622 347 b 610 329 625 336 621 329 l 314 329 b 301 349 303 329 297 338 z "},"Å":{"ha":932,"x_min":0,"x_max":0,"o":"m 465 1010 b 586 1118 535 1010 586 1054 b 465 1225 586 1179 535 1225 b 346 1118 397 1225 346 1179 b 465 1010 346 1054 397 1010 z m 465 1215 b 539 1157 511 1215 539 1193 l 539 1076 b 465 1019 539 1042 511 1019 b 393 1076 421 1019 393 1042 l 393 1157 b 465 1215 393 1193 421 1215 z m 735 0 l 918 0 l 599 972 l 333 972 l 14 0 l 188 0 l 285 294 b 307 313 288 307 294 313 l 618 313 b 638 297 628 313 635 307 z m 301 349 l 463 836 l 622 347 b 610 329 625 336 621 329 l 314 329 b 301 349 303 329 297 338 z "},"Ã":{"ha":932,"x_min":0,"x_max":0,"o":"m 521 1053 b 649 1104 586 1029 622 1047 l 688 1188 l 675 1192 l 661 1163 b 563 1140 643 1125 619 1121 l 443 1183 b 317 1133 382 1206 342 1188 l 278 1050 l 290 1046 l 304 1074 b 393 1100 319 1107 347 1117 z m 735 0 l 918 0 l 599 972 l 333 972 l 14 0 l 188 0 l 285 294 b 307 313 288 307 294 313 l 618 313 b 638 297 628 313 635 307 z m 301 349 l 463 836 l 622 347 b 610 329 625 336 621 329 l 314 329 b 301 349 303 329 297 338 z "},"Ă":{"ha":932,"x_min":0,"x_max":0,"o":"m 467 1019 b 643 1185 574 1019 643 1072 l 643 1206 l 631 1206 l 631 1196 b 538 1121 631 1138 597 1121 l 396 1121 b 301 1196 335 1121 301 1138 l 301 1206 l 289 1206 l 289 1183 b 467 1019 289 1071 360 1019 z m 735 0 l 918 0 l 599 972 l 333 972 l 14 0 l 188 0 l 285 294 b 307 313 288 307 294 313 l 618 313 b 638 297 628 313 635 307 z m 301 349 l 463 836 l 622 347 b 610 329 625 336 621 329 l 314 329 b 301 349 303 329 297 338 z "},"Ā":{"ha":932,"x_min":0,"x_max":0,"o":"m 269 1068 l 661 1068 l 661 1168 l 269 1168 z m 735 0 l 918 0 l 599 972 l 333 972 l 14 0 l 188 0 l 285 294 b 307 313 288 307 294 313 l 618 313 b 638 297 628 313 635 307 z m 301 349 l 463 836 l 622 347 b 610 329 625 336 621 329 l 314 329 b 301 349 303 329 297 338 z "},"Ą":{"ha":932,"x_min":0,"x_max":0,"o":"m 735 0 l 824 0 b 668 -168 719 -47 668 -100 b 790 -278 668 -237 711 -278 l 864 -278 l 864 -185 l 803 -185 b 763 -144 774 -185 763 -174 l 763 -106 b 850 0 763 -51 782 -31 l 918 0 l 599 972 l 333 972 l 14 0 l 188 0 l 285 294 b 307 313 288 307 294 313 l 618 313 b 638 297 628 313 635 307 z m 301 349 l 463 836 l 622 347 b 610 329 625 336 621 329 l 314 329 b 301 349 303 329 297 338 z "},"Ç":{"ha":1014,"x_min":0,"x_max":0,"o":"m 476 -103 l 536 -103 b 574 -140 561 -103 574 -115 l 574 -164 b 536 -200 574 -187 561 -200 l 431 -200 l 431 -278 l 569 -278 b 674 -183 635 -278 674 -242 b 572 -89 674 -124 636 -89 l 515 -89 b 504 -71 504 -89 500 -82 l 526 -15 l 529 -15 b 938 344 792 -15 938 128 l 938 365 l 758 365 l 758 344 b 529 129 758 197 672 129 b 267 408 361 129 267 228 l 267 569 b 529 843 267 747 369 843 b 758 632 675 843 758 758 l 758 607 l 938 607 l 938 632 b 529 988 938 847 792 988 b 76 486 236 988 76 814 b 511 -15 76 156 226 -8 z "},"Ć":{"ha":1014,"x_min":0,"x_max":0,"o":"m 517 1024 l 528 1024 l 763 1182 l 763 1190 l 585 1190 z m 758 365 l 758 344 b 529 129 758 197 672 129 b 267 408 361 129 267 228 l 267 569 b 529 843 267 747 369 843 b 758 632 675 843 758 758 l 758 607 l 938 607 l 938 632 b 529 988 938 847 792 988 b 76 486 236 988 76 814 b 529 -15 76 149 233 -15 b 938 344 792 -15 938 128 l 938 365 z "},"Č":{"ha":1014,"x_min":0,"x_max":0,"o":"m 733 1206 l 715 1206 l 528 1136 l 342 1206 l 325 1206 l 525 1024 l 532 1024 z m 758 365 l 758 344 b 529 129 758 197 672 129 b 267 408 361 129 267 228 l 267 569 b 529 843 267 747 369 843 b 758 632 675 843 758 758 l 758 607 l 938 607 l 938 632 b 529 988 938 847 792 988 b 76 486 236 988 76 814 b 529 -15 76 149 233 -15 b 938 344 792 -15 938 128 l 938 365 z "},"Ĉ":{"ha":1014,"x_min":0,"x_max":0,"o":"m 711 1024 l 729 1024 l 528 1206 l 521 1206 l 321 1024 l 338 1024 l 524 1093 z m 758 365 l 758 344 b 529 129 758 197 672 129 b 267 408 361 129 267 228 l 267 569 b 529 843 267 747 369 843 b 758 632 675 843 758 758 l 758 607 l 938 607 l 938 632 b 529 988 938 847 792 988 b 76 486 236 988 76 814 b 529 -15 76 149 233 -15 b 938 344 792 -15 938 128 l 938 365 z "},"Ċ":{"ha":1014,"x_min":0,"x_max":0,"o":"m 521 1039 b 604 1122 571 1039 604 1072 b 521 1203 604 1171 571 1203 b 436 1122 471 1203 436 1171 b 521 1039 436 1072 471 1039 z m 758 365 l 758 344 b 529 129 758 197 672 129 b 267 408 361 129 267 228 l 267 569 b 529 843 267 747 369 843 b 758 632 675 843 758 758 l 758 607 l 938 607 l 938 632 b 529 988 938 847 792 988 b 76 486 236 988 76 814 b 529 -15 76 149 233 -15 b 938 344 792 -15 938 128 l 938 365 z "},"Ď":{"ha":1036,"x_min":0,"x_max":0,"o":"m 700 1206 l 682 1206 l 494 1136 l 308 1206 l 292 1206 l 492 1024 l 499 1024 z m 128 0 l 546 0 b 954 486 810 0 954 188 b 546 972 954 785 811 972 l 128 972 z m 514 826 b 768 567 683 826 768 732 l 768 406 b 514 146 768 240 683 146 l 301 146 l 301 826 z "},"Đ":{"ha":1036,"x_min":0,"x_max":0,"o":"m 128 0 l 546 0 b 954 486 810 0 954 188 b 546 972 954 785 811 972 l 128 972 l 128 513 l 14 513 l 14 496 l 128 496 z m 561 496 l 561 513 l 301 513 l 301 826 l 514 826 b 768 567 683 826 768 732 l 768 406 b 514 146 768 240 683 146 l 301 146 l 301 496 z "},"É":{"ha":849,"x_min":0,"x_max":0,"o":"m 443 1024 l 454 1024 l 689 1182 l 689 1190 l 511 1190 z m 128 0 l 789 0 l 789 157 l 308 157 l 308 475 b 329 496 308 482 313 496 l 756 496 l 756 513 l 329 513 b 308 533 313 513 308 525 l 308 815 l 775 815 l 775 972 l 128 972 z "},"Ê":{"ha":849,"x_min":0,"x_max":0,"o":"m 654 1024 l 672 1024 l 471 1206 l 464 1206 l 264 1024 l 281 1024 l 467 1093 z m 128 0 l 789 0 l 789 157 l 308 157 l 308 475 b 329 496 308 482 313 496 l 756 496 l 756 513 l 329 513 b 308 533 313 513 308 525 l 308 815 l 775 815 l 775 972 l 128 972 z "},"Ë":{"ha":849,"x_min":0,"x_max":0,"o":"m 353 1047 b 431 1124 400 1047 431 1078 b 353 1201 431 1172 400 1201 b 275 1124 306 1201 275 1172 b 353 1047 275 1078 306 1047 z m 586 1047 b 664 1124 633 1047 664 1078 b 586 1201 664 1172 633 1201 b 508 1124 540 1201 508 1172 b 586 1047 508 1078 540 1047 z m 128 0 l 789 0 l 789 157 l 308 157 l 308 475 b 329 496 308 482 313 496 l 756 496 l 756 513 l 329 513 b 308 533 313 513 308 525 l 308 815 l 775 815 l 775 972 l 128 972 z "},"È":{"ha":849,"x_min":0,"x_max":0,"o":"m 524 1024 l 456 1190 l 279 1190 l 279 1182 l 513 1024 z m 128 0 l 789 0 l 789 157 l 308 157 l 308 475 b 329 496 308 482 313 496 l 756 496 l 756 513 l 329 513 b 308 533 313 513 308 525 l 308 815 l 775 815 l 775 972 l 128 972 z "},"Ĕ":{"ha":849,"x_min":0,"x_max":0,"o":"m 468 1019 b 644 1185 575 1019 644 1072 l 644 1206 l 632 1206 l 632 1196 b 539 1121 632 1138 599 1121 l 397 1121 b 303 1196 336 1121 303 1138 l 303 1206 l 290 1206 l 290 1183 b 468 1019 290 1071 361 1019 z m 128 0 l 789 0 l 789 157 l 308 157 l 308 475 b 329 496 308 482 313 496 l 756 496 l 756 513 l 329 513 b 308 533 313 513 308 525 l 308 815 l 775 815 l 775 972 l 128 972 z "},"Ě":{"ha":849,"x_min":0,"x_max":0,"o":"m 676 1206 l 658 1206 l 471 1136 l 285 1206 l 268 1206 l 468 1024 l 475 1024 z m 128 0 l 789 0 l 789 157 l 308 157 l 308 475 b 329 496 308 482 313 496 l 756 496 l 756 513 l 329 513 b 308 533 313 513 308 525 l 308 815 l 775 815 l 775 972 l 128 972 z "},"Ė":{"ha":849,"x_min":0,"x_max":0,"o":"m 465 1039 b 549 1122 515 1039 549 1072 b 465 1203 549 1171 515 1203 b 381 1122 415 1203 381 1171 b 465 1039 381 1072 415 1039 z m 128 0 l 789 0 l 789 157 l 308 157 l 308 475 b 329 496 308 482 313 496 l 756 496 l 756 513 l 329 513 b 308 533 313 513 308 525 l 308 815 l 775 815 l 775 972 l 128 972 z "},"Ē":{"ha":849,"x_min":0,"x_max":0,"o":"m 268 1068 l 660 1068 l 660 1168 l 268 1168 z m 128 0 l 789 0 l 789 157 l 308 157 l 308 475 b 329 496 308 482 313 496 l 756 496 l 756 513 l 329 513 b 308 533 313 513 308 525 l 308 815 l 775 815 l 775 972 l 128 972 z "},"Ę":{"ha":849,"x_min":0,"x_max":0,"o":"m 128 0 l 763 0 b 607 -168 658 -47 607 -100 b 729 -278 607 -237 650 -278 l 803 -278 l 803 -185 l 742 -185 b 701 -144 713 -185 701 -174 l 701 -106 b 789 0 701 -51 721 -31 l 789 157 l 308 157 l 308 475 b 329 496 308 482 313 496 l 756 496 l 756 513 l 329 513 b 308 533 313 513 308 525 l 308 815 l 775 815 l 775 972 l 128 972 z "},"Ğ":{"ha":1025,"x_min":0,"x_max":0,"o":"m 522 1019 b 699 1185 629 1019 699 1072 l 699 1206 l 686 1206 l 686 1196 b 593 1121 686 1138 653 1121 l 451 1121 b 357 1196 390 1121 357 1138 l 357 1206 l 344 1206 l 344 1183 b 522 1019 344 1071 415 1019 z m 433 451 l 433 435 l 746 435 b 767 414 761 435 767 429 l 767 342 b 532 129 767 196 674 129 b 267 408 361 129 267 228 l 267 569 b 532 843 267 747 374 843 b 767 635 681 843 767 765 l 767 611 l 943 611 l 943 638 b 532 988 943 851 792 988 b 76 486 238 988 76 807 b 532 -15 76 149 233 -15 b 943 346 797 -15 943 128 l 943 451 z "},"Ĝ":{"ha":1025,"x_min":0,"x_max":0,"o":"m 708 1024 l 726 1024 l 525 1206 l 518 1206 l 318 1024 l 335 1024 l 521 1093 z m 433 451 l 433 435 l 746 435 b 767 414 761 435 767 429 l 767 342 b 532 129 767 196 674 129 b 267 408 361 129 267 228 l 267 569 b 532 843 267 747 374 843 b 767 635 681 843 767 765 l 767 611 l 943 611 l 943 638 b 532 988 943 851 792 988 b 76 486 238 988 76 807 b 532 -15 76 149 233 -15 b 943 346 797 -15 943 128 l 943 451 z "},"Ģ":{"ha":1025,"x_min":0,"x_max":0,"o":"m 433 451 l 433 435 l 746 435 b 767 414 761 435 767 429 l 767 342 b 532 129 767 196 674 129 b 267 408 361 129 267 228 l 267 569 b 532 843 267 747 374 843 b 767 635 681 843 767 765 l 767 611 l 943 611 l 943 638 b 532 988 943 851 792 988 b 76 486 238 988 76 807 b 532 -15 76 149 233 -15 b 943 346 797 -15 943 128 l 943 451 z m 476 -271 l 490 -271 l 603 -103 l 603 -85 l 476 -85 z "},"Ġ":{"ha":1025,"x_min":0,"x_max":0,"o":"m 531 1039 b 614 1122 581 1039 614 1072 b 531 1203 614 1171 581 1203 b 446 1122 481 1203 446 1171 b 531 1039 446 1072 481 1039 z m 433 451 l 433 435 l 746 435 b 767 414 761 435 767 429 l 767 342 b 532 129 767 196 674 129 b 267 408 361 129 267 228 l 267 569 b 532 843 267 747 374 843 b 767 635 681 843 767 765 l 767 611 l 943 611 l 943 638 b 532 988 943 851 792 988 b 76 486 238 988 76 807 b 532 -15 76 149 233 -15 b 943 346 797 -15 943 128 l 943 451 z "},"Ħ":{"ha":1068,"x_min":0,"x_max":0,"o":"m 128 0 l 308 0 l 308 475 b 329 496 308 482 313 496 l 739 496 b 760 475 756 496 760 482 l 760 0 l 940 0 l 940 751 l 1036 751 l 1036 768 l 940 768 l 940 972 l 760 972 l 760 768 l 308 768 l 308 972 l 128 972 l 128 768 l 32 768 l 32 751 l 128 751 z m 739 513 l 329 513 b 308 533 313 513 308 525 l 308 751 l 760 751 l 760 533 b 739 513 760 525 756 513 z "},"Ĥ":{"ha":1068,"x_min":0,"x_max":0,"o":"m 719 1024 l 738 1024 l 536 1206 l 529 1206 l 329 1024 l 346 1024 l 532 1093 z m 128 0 l 308 0 l 308 475 b 329 496 308 482 313 496 l 739 496 b 760 475 756 496 760 482 l 760 0 l 940 0 l 940 972 l 760 972 l 760 533 b 739 513 760 525 756 513 l 329 513 b 308 533 313 513 308 525 l 308 972 l 128 972 z "},"Í":{"ha":436,"x_min":0,"x_max":0,"o":"m 210 1024 l 221 1024 l 456 1182 l 456 1190 l 278 1190 z m 128 0 l 308 0 l 308 972 l 128 972 z "},"Î":{"ha":436,"x_min":0,"x_max":0,"o":"m 403 1024 l 421 1024 l 219 1206 l 213 1206 l 13 1024 l 29 1024 l 215 1093 z m 128 0 l 308 0 l 308 972 l 128 972 z "},"Ï":{"ha":436,"x_min":0,"x_max":0,"o":"m 101 1047 b 179 1124 149 1047 179 1078 b 101 1201 179 1172 149 1201 b 24 1124 54 1201 24 1172 b 101 1047 24 1078 54 1047 z m 335 1047 b 413 1124 382 1047 413 1078 b 335 1201 413 1172 382 1201 b 257 1124 289 1201 257 1172 b 335 1047 257 1078 289 1047 z m 128 0 l 308 0 l 308 972 l 128 972 z "},"Ì":{"ha":436,"x_min":0,"x_max":0,"o":"m 232 1024 l 164 1190 l -12 1190 l -12 1182 l 221 1024 z m 128 0 l 308 0 l 308 972 l 128 972 z "},"Ĭ":{"ha":436,"x_min":0,"x_max":0,"o":"m 218 1019 b 394 1185 325 1019 394 1072 l 394 1206 l 382 1206 l 382 1196 b 289 1121 382 1138 349 1121 l 147 1121 b 53 1196 86 1121 53 1138 l 53 1206 l 40 1206 l 40 1183 b 218 1019 40 1071 111 1019 z m 128 0 l 308 0 l 308 972 l 128 972 z "},"İ":{"ha":436,"x_min":0,"x_max":0,"o":"m 218 1039 b 301 1122 268 1039 301 1072 b 218 1203 301 1171 268 1203 b 133 1122 168 1203 133 1171 b 218 1039 133 1072 168 1039 z m 128 0 l 308 0 l 308 972 l 128 972 z "},"Ī":{"ha":436,"x_min":0,"x_max":0,"o":"m 22 1068 l 414 1068 l 414 1168 l 22 1168 z m 128 0 l 308 0 l 308 972 l 128 972 z "},"Į":{"ha":436,"x_min":0,"x_max":0,"o":"m 128 0 l 228 0 b 72 -168 124 -47 72 -100 b 194 -278 72 -237 115 -278 l 268 -278 l 268 -185 l 207 -185 b 167 -144 178 -185 167 -174 l 167 -106 b 254 0 167 -51 186 -31 l 308 0 l 308 972 l 128 972 z "},"Ĩ":{"ha":436,"x_min":0,"x_max":0,"o":"m 272 1053 b 400 1104 338 1029 374 1047 l 439 1188 l 426 1192 l 413 1163 b 314 1140 394 1125 371 1121 l 194 1183 b 68 1133 133 1206 93 1188 l 29 1050 l 42 1046 l 56 1074 b 144 1100 71 1107 99 1117 z m 128 0 l 308 0 l 308 972 l 128 972 z "},"Ĵ":{"ha":888,"x_min":0,"x_max":0,"o":"m 649 1024 l 667 1024 l 465 1206 l 458 1206 l 258 1024 l 275 1024 l 461 1093 z m 774 299 l 774 972 l 158 972 l 158 956 l 575 956 b 596 935 590 956 596 949 l 596 289 b 422 126 596 179 533 126 b 242 279 308 126 242 175 l 242 378 l 69 378 l 69 275 b 421 -15 69 83 200 -15 b 774 299 649 -15 774 99 z "},"Ĳ":{"ha":1272,"x_min":0,"x_max":0,"o":"m 99 0 l 279 0 l 279 972 l 99 972 z m 1158 299 l 1158 972 l 543 972 l 543 956 l 960 956 b 981 935 975 956 981 949 l 981 289 b 807 126 981 179 918 126 b 626 279 693 126 626 175 l 626 378 l 454 378 l 454 275 b 806 -15 454 83 585 -15 b 1158 299 1033 -15 1158 99 z "},"Ķ":{"ha":965,"x_min":0,"x_max":0,"o":"m 128 0 l 304 0 l 304 353 l 483 558 l 754 0 l 953 0 l 614 707 l 796 914 b 869 956 826 949 839 956 l 928 956 l 928 972 l 128 972 z m 778 956 b 793 942 789 956 793 950 b 776 917 793 935 789 932 l 304 379 l 304 956 z m 450 -271 l 464 -271 l 576 -103 l 576 -85 l 450 -85 z "},"Ĺ":{"ha":793,"x_min":0,"x_max":0,"o":"m 213 1024 l 224 1024 l 458 1182 l 458 1190 l 281 1190 z m 128 0 l 769 0 l 769 158 l 308 158 l 308 972 l 128 972 z "},"Ľ":{"ha":793,"x_min":0,"x_max":0,"o":"m 128 0 l 769 0 l 769 158 l 308 158 l 308 972 l 128 972 z m 429 763 l 443 763 l 560 961 l 560 972 l 429 972 z "},"Ļ":{"ha":793,"x_min":0,"x_max":0,"o":"m 128 0 l 769 0 l 769 158 l 308 158 l 308 972 l 128 972 z m 396 -271 l 410 -271 l 522 -103 l 522 -85 l 396 -85 z "},"Ŀ":{"ha":793,"x_min":0,"x_max":0,"o":"m 128 0 l 769 0 l 769 158 l 308 158 l 308 972 l 128 972 z m 613 451 b 713 550 672 451 713 490 b 613 649 713 611 672 649 b 511 550 550 649 511 611 b 613 451 511 490 550 451 z "},"Ñ":{"ha":1014,"x_min":0,"x_max":0,"o":"m 639 1053 b 767 1104 704 1029 740 1047 l 806 1188 l 793 1192 l 779 1163 b 681 1140 761 1125 738 1121 l 561 1183 b 435 1133 500 1206 460 1188 l 396 1050 l 408 1046 l 422 1074 b 511 1100 438 1107 465 1117 z m 365 972 l 128 972 l 128 0 l 296 0 l 296 772 l 876 -25 l 890 -25 l 890 972 l 872 972 l 872 324 b 857 306 872 311 865 306 b 835 322 849 306 846 307 z "},"Ń":{"ha":1014,"x_min":0,"x_max":0,"o":"m 560 1024 l 571 1024 l 806 1182 l 806 1190 l 628 1190 z m 365 972 l 128 972 l 128 0 l 296 0 l 296 772 l 876 -25 l 890 -25 l 890 972 l 872 972 l 872 324 b 857 306 872 311 865 306 b 835 322 849 306 846 307 z "},"Ň":{"ha":1014,"x_min":0,"x_max":0,"o":"m 804 1206 l 786 1206 l 599 1136 l 413 1206 l 396 1206 l 596 1024 l 603 1024 z m 365 972 l 128 972 l 128 0 l 296 0 l 296 772 l 876 -25 l 890 -25 l 890 972 l 872 972 l 872 324 b 857 306 872 311 865 306 b 835 322 849 306 846 307 z "},"Ņ":{"ha":1014,"x_min":0,"x_max":0,"o":"m 365 972 l 128 972 l 128 0 l 296 0 l 296 772 l 876 -25 l 890 -25 l 890 972 l 872 972 l 872 324 b 857 306 872 311 865 306 b 835 322 849 306 846 307 z m 490 -271 l 504 -271 l 617 -103 l 617 -85 l 490 -85 z "},"Ŋ":{"ha":1014,"x_min":0,"x_max":0,"o":"m 890 -229 l 890 972 l 872 972 l 872 324 b 857 306 872 311 865 306 b 835 322 849 306 846 307 l 365 972 l 128 972 l 128 0 l 296 0 l 296 772 l 872 -19 l 872 -228 b 839 -260 872 -250 861 -260 l 713 -260 l 713 -278 l 839 -278 b 890 -229 872 -278 890 -261 z "},"Ó":{"ha":1064,"x_min":0,"x_max":0,"o":"m 514 1024 l 525 1024 l 760 1182 l 760 1190 l 582 1190 z m 532 -15 b 988 486 824 -15 988 158 b 532 988 988 818 825 988 b 76 486 239 988 76 814 b 532 -15 76 154 239 -15 z m 532 843 b 801 569 693 843 801 747 l 801 408 b 532 129 801 226 697 129 b 263 408 365 129 263 226 l 263 569 b 532 843 263 747 371 843 z "},"Ô":{"ha":1064,"x_min":0,"x_max":0,"o":"m 718 1024 l 736 1024 l 535 1206 l 528 1206 l 328 1024 l 344 1024 l 531 1093 z m 532 -15 b 988 486 824 -15 988 158 b 532 988 988 818 825 988 b 76 486 239 988 76 814 b 532 -15 76 154 239 -15 z m 532 843 b 801 569 693 843 801 747 l 801 408 b 532 129 801 226 697 129 b 263 408 365 129 263 226 l 263 569 b 532 843 263 747 371 843 z "},"Ö":{"ha":1064,"x_min":0,"x_max":0,"o":"m 415 1047 b 493 1124 463 1047 493 1078 b 415 1201 493 1172 463 1201 b 338 1124 368 1201 338 1172 b 415 1047 338 1078 368 1047 z m 649 1047 b 726 1124 696 1047 726 1078 b 649 1201 726 1172 696 1201 b 571 1124 603 1201 571 1172 b 649 1047 571 1078 603 1047 z m 532 -15 b 988 486 824 -15 988 158 b 532 988 988 818 825 988 b 76 486 239 988 76 814 b 532 -15 76 154 239 -15 z m 532 843 b 801 569 693 843 801 747 l 801 408 b 532 129 801 226 697 129 b 263 408 365 129 263 226 l 263 569 b 532 843 263 747 371 843 z "},"Ò":{"ha":1064,"x_min":0,"x_max":0,"o":"m 553 1024 l 485 1190 l 308 1190 l 308 1182 l 542 1024 z m 532 -15 b 988 486 824 -15 988 158 b 532 988 988 818 825 988 b 76 486 239 988 76 814 b 532 -15 76 154 239 -15 z m 532 843 b 801 569 693 843 801 747 l 801 408 b 532 129 801 226 697 129 b 263 408 365 129 263 226 l 263 569 b 532 843 263 747 371 843 z "},"Õ":{"ha":1064,"x_min":0,"x_max":0,"o":"m 568 1053 b 696 1104 633 1029 669 1047 l 735 1188 l 722 1192 l 708 1163 b 610 1140 690 1125 667 1121 l 490 1183 b 364 1133 429 1206 389 1188 l 325 1050 l 338 1046 l 351 1074 b 440 1100 367 1107 394 1117 z m 532 -15 b 988 486 824 -15 988 158 b 532 988 988 818 825 988 b 76 486 239 988 76 814 b 532 -15 76 154 239 -15 z m 532 843 b 801 569 693 843 801 747 l 801 408 b 532 129 801 226 697 129 b 263 408 365 129 263 226 l 263 569 b 532 843 263 747 371 843 z "},"Ŏ":{"ha":1064,"x_min":0,"x_max":0,"o":"m 532 1019 b 708 1185 639 1019 708 1072 l 708 1206 l 696 1206 l 696 1196 b 603 1121 696 1138 663 1121 l 461 1121 b 367 1196 400 1121 367 1138 l 367 1206 l 354 1206 l 354 1183 b 532 1019 354 1071 425 1019 z m 532 -15 b 988 486 824 -15 988 158 b 532 988 988 818 825 988 b 76 486 239 988 76 814 b 532 -15 76 154 239 -15 z m 532 843 b 801 569 693 843 801 747 l 801 408 b 532 129 801 226 697 129 b 263 408 365 129 263 226 l 263 569 b 532 843 263 747 371 843 z "},"Ő":{"ha":1064,"x_min":0,"x_max":0,"o":"m 408 1024 l 419 1024 l 608 1186 l 608 1194 l 476 1194 z m 593 1024 l 604 1024 l 793 1186 l 793 1194 l 661 1194 z m 532 -15 b 988 486 824 -15 988 158 b 532 988 988 818 825 988 b 76 486 239 988 76 814 b 532 -15 76 154 239 -15 z m 532 843 b 801 569 693 843 801 747 l 801 408 b 532 129 801 226 697 129 b 263 408 365 129 263 226 l 263 569 b 532 843 263 747 371 843 z "},"Ō":{"ha":1064,"x_min":0,"x_max":0,"o":"m 336 1068 l 728 1068 l 728 1168 l 336 1168 z m 532 -15 b 988 486 824 -15 988 158 b 532 988 988 818 825 988 b 76 486 239 988 76 814 b 532 -15 76 154 239 -15 z m 532 843 b 801 569 693 843 801 747 l 801 408 b 532 129 801 226 697 129 b 263 408 365 129 263 226 l 263 569 b 532 843 263 747 371 843 z "},"Ŕ":{"ha":954,"x_min":0,"x_max":0,"o":"m 463 1024 l 474 1024 l 708 1182 l 708 1190 l 531 1190 z m 128 0 l 308 0 l 308 414 b 329 435 308 421 313 435 l 404 435 b 439 414 422 435 426 433 l 721 0 l 928 0 l 679 363 l 519 363 b 482 385 501 363 493 368 l 447 435 l 582 435 b 889 692 774 435 889 504 b 594 972 889 878 778 972 l 128 972 z m 563 831 b 707 697 657 831 707 779 l 707 586 b 560 451 707 500 660 451 l 329 451 b 308 472 313 451 308 464 l 308 831 z "},"Ř":{"ha":954,"x_min":0,"x_max":0,"o":"m 689 1206 l 671 1206 l 483 1136 l 297 1206 l 281 1206 l 481 1024 l 488 1024 z m 128 0 l 308 0 l 308 414 b 329 435 308 421 313 435 l 404 435 b 439 414 422 435 426 433 l 721 0 l 928 0 l 679 363 l 519 363 b 482 385 501 363 493 368 l 447 435 l 582 435 b 889 692 774 435 889 504 b 594 972 889 878 778 972 l 128 972 z m 563 831 b 707 697 657 831 707 779 l 707 586 b 560 451 707 500 660 451 l 329 451 b 308 472 313 451 308 464 l 308 831 z "},"Ŗ":{"ha":954,"x_min":0,"x_max":0,"o":"m 128 0 l 308 0 l 308 414 b 329 435 308 421 313 435 l 404 435 b 439 414 422 435 426 433 l 721 0 l 928 0 l 679 363 l 519 363 b 482 385 501 363 493 368 l 447 435 l 582 435 b 889 692 774 435 889 504 b 594 972 889 878 778 972 l 128 972 z m 563 831 b 707 697 657 831 707 779 l 707 586 b 560 451 707 500 660 451 l 329 451 b 308 472 313 451 308 464 l 308 831 z m 436 -271 l 450 -271 l 563 -103 l 563 -85 l 436 -85 z "},"Š":{"ha":940,"x_min":0,"x_max":0,"o":"m 674 1206 l 656 1206 l 468 1136 l 282 1206 l 265 1206 l 465 1024 l 472 1024 z m 465 846 b 669 690 606 846 669 794 l 669 635 l 853 635 l 853 686 b 465 988 853 889 718 988 b 79 718 214 988 79 878 b 346 500 79 574 157 522 l 533 482 b 685 339 647 468 685 422 l 685 274 b 471 126 685 179 625 126 b 256 286 318 126 256 178 l 256 343 l 68 343 l 68 289 b 471 -15 68 85 214 -15 b 875 264 715 -15 875 82 b 614 493 875 400 808 472 l 431 510 b 267 644 319 522 267 558 l 267 700 b 465 846 267 797 324 846 z "},"Ś":{"ha":940,"x_min":0,"x_max":0,"o":"m 453 1024 l 464 1024 l 699 1182 l 699 1190 l 521 1190 z m 465 846 b 669 690 606 846 669 794 l 669 635 l 853 635 l 853 686 b 465 988 853 889 718 988 b 79 718 214 988 79 878 b 346 500 79 574 157 522 l 533 482 b 685 339 647 468 685 422 l 685 274 b 471 126 685 179 625 126 b 256 286 318 126 256 178 l 256 343 l 68 343 l 68 289 b 471 -15 68 85 214 -15 b 875 264 715 -15 875 82 b 614 493 875 400 808 472 l 431 510 b 267 644 319 522 267 558 l 267 700 b 465 846 267 797 324 846 z "},"Ş":{"ha":940,"x_min":0,"x_max":0,"o":"m 424 -103 l 483 -103 b 521 -140 508 -103 521 -115 l 521 -164 b 483 -200 521 -187 508 -200 l 378 -200 l 378 -278 l 517 -278 b 621 -183 582 -278 621 -242 b 519 -89 621 -124 583 -89 l 463 -89 b 451 -71 451 -89 447 -82 l 474 -15 b 875 264 715 -15 875 82 b 614 493 875 400 808 472 l 431 510 b 267 644 319 522 267 558 l 267 700 b 465 846 267 797 324 846 b 669 690 606 846 669 794 l 669 635 l 853 635 l 853 686 b 465 988 853 889 718 988 b 79 718 214 988 79 878 b 346 500 79 574 157 522 l 533 482 b 685 339 647 468 685 422 l 685 274 b 471 126 685 179 625 126 b 256 286 318 126 256 178 l 256 343 l 68 343 l 68 289 b 458 -15 68 88 208 -12 z "},"Ŝ":{"ha":940,"x_min":0,"x_max":0,"o":"m 656 1024 l 674 1024 l 472 1206 l 465 1206 l 265 1024 l 282 1024 l 468 1093 z m 465 846 b 669 690 606 846 669 794 l 669 635 l 853 635 l 853 686 b 465 988 853 889 718 988 b 79 718 214 988 79 878 b 346 500 79 574 157 522 l 533 482 b 685 339 647 468 685 422 l 685 274 b 471 126 685 179 625 126 b 256 286 318 126 256 178 l 256 343 l 68 343 l 68 289 b 471 -15 68 85 214 -15 b 875 264 715 -15 875 82 b 614 493 875 400 808 472 l 431 510 b 267 644 319 522 267 558 l 267 700 b 465 846 267 797 324 846 z "},"Ș":{"ha":940,"x_min":0,"x_max":0,"o":"m 465 846 b 669 690 606 846 669 794 l 669 635 l 853 635 l 853 686 b 465 988 853 889 718 988 b 79 718 214 988 79 878 b 346 500 79 574 157 522 l 533 482 b 685 339 647 468 685 422 l 685 274 b 471 126 685 179 625 126 b 256 286 318 126 256 178 l 256 343 l 68 343 l 68 289 b 471 -15 68 85 214 -15 b 875 264 715 -15 875 82 b 614 493 875 400 808 472 l 431 510 b 267 644 319 522 267 558 l 267 700 b 465 846 267 797 324 846 z m 419 -271 l 433 -271 l 546 -103 l 546 -85 l 419 -85 z "},"Ŧ":{"ha":863,"x_min":0,"x_max":0,"o":"m 342 0 l 522 0 l 522 429 l 732 429 l 732 446 l 522 446 l 522 815 l 832 815 l 832 972 l 31 972 l 31 815 l 342 815 l 342 446 l 132 446 l 132 429 l 342 429 z "},"Ť":{"ha":863,"x_min":0,"x_max":0,"o":"m 636 1206 l 618 1206 l 431 1136 l 244 1206 l 228 1206 l 428 1024 l 435 1024 z m 342 0 l 522 0 l 522 815 l 832 815 l 832 972 l 31 972 l 31 815 l 342 815 z "},"Ţ":{"ha":863,"x_min":0,"x_max":0,"o":"m 342 0 l 522 0 l 522 815 l 832 815 l 832 972 l 31 972 l 31 815 l 342 815 z m 365 -271 l 379 -271 l 492 -103 l 492 -85 l 365 -85 z "},"Ț":{"ha":863,"x_min":0,"x_max":0,"o":"m 342 0 l 522 0 l 522 815 l 832 815 l 832 972 l 31 972 l 31 815 l 342 815 z m 365 -271 l 379 -271 l 492 -103 l 492 -85 l 365 -85 z "},"Ú":{"ha":1029,"x_min":0,"x_max":0,"o":"m 492 1024 l 503 1024 l 738 1182 l 738 1190 l 560 1190 z m 915 336 l 915 972 l 735 972 l 735 326 b 514 129 735 196 654 129 b 293 326 374 129 293 196 l 293 972 l 114 972 l 114 336 b 514 -15 114 106 256 -15 b 915 336 774 -15 915 106 z "},"Û":{"ha":1029,"x_min":0,"x_max":0,"o":"m 700 1024 l 718 1024 l 517 1206 l 510 1206 l 310 1024 l 326 1024 l 513 1093 z m 915 336 l 915 972 l 735 972 l 735 326 b 514 129 735 196 654 129 b 293 326 374 129 293 196 l 293 972 l 114 972 l 114 336 b 514 -15 114 106 256 -15 b 915 336 774 -15 915 106 z "},"Ü":{"ha":1029,"x_min":0,"x_max":0,"o":"m 397 1047 b 475 1124 444 1047 475 1078 b 397 1201 475 1172 444 1201 b 319 1124 350 1201 319 1172 b 397 1047 319 1078 350 1047 z m 631 1047 b 708 1124 678 1047 708 1078 b 631 1201 708 1172 678 1201 b 553 1124 585 1201 553 1172 b 631 1047 553 1078 585 1047 z m 915 336 l 915 972 l 735 972 l 735 326 b 514 129 735 196 654 129 b 293 326 374 129 293 196 l 293 972 l 114 972 l 114 336 b 514 -15 114 106 256 -15 b 915 336 774 -15 915 106 z "},"Ù":{"ha":1029,"x_min":0,"x_max":0,"o":"m 553 1024 l 485 1190 l 308 1190 l 308 1182 l 542 1024 z m 915 336 l 915 972 l 735 972 l 735 326 b 514 129 735 196 654 129 b 293 326 374 129 293 196 l 293 972 l 114 972 l 114 336 b 514 -15 114 106 256 -15 b 915 336 774 -15 915 106 z "},"Ŭ":{"ha":1029,"x_min":0,"x_max":0,"o":"m 515 1019 b 692 1185 622 1019 692 1072 l 692 1206 l 679 1206 l 679 1196 b 586 1121 679 1138 646 1121 l 444 1121 b 350 1196 383 1121 350 1138 l 350 1206 l 338 1206 l 338 1183 b 515 1019 338 1071 408 1019 z m 915 336 l 915 972 l 735 972 l 735 326 b 514 129 735 196 654 129 b 293 326 374 129 293 196 l 293 972 l 114 972 l 114 336 b 514 -15 114 106 256 -15 b 915 336 774 -15 915 106 z "},"Ű":{"ha":1029,"x_min":0,"x_max":0,"o":"m 382 1024 l 393 1024 l 582 1186 l 582 1194 l 450 1194 z m 567 1024 l 578 1024 l 767 1186 l 767 1194 l 635 1194 z m 915 336 l 915 972 l 735 972 l 735 326 b 514 129 735 196 654 129 b 293 326 374 129 293 196 l 293 972 l 114 972 l 114 336 b 514 -15 114 106 256 -15 b 915 336 774 -15 915 106 z "},"Ū":{"ha":1029,"x_min":0,"x_max":0,"o":"m 318 1068 l 710 1068 l 710 1168 l 318 1168 z m 915 336 l 915 972 l 735 972 l 735 326 b 514 129 735 196 654 129 b 293 326 374 129 293 196 l 293 972 l 114 972 l 114 336 b 514 -15 114 106 256 -15 b 915 336 774 -15 915 106 z "},"Ų":{"ha":1029,"x_min":0,"x_max":0,"o":"m 915 336 l 915 972 l 735 972 l 735 326 b 514 129 735 196 654 129 b 293 326 374 129 293 196 l 293 972 l 114 972 l 114 336 b 514 -15 114 106 256 -15 b 613 -8 549 -15 582 -12 b 475 -168 521 -54 475 -104 b 597 -278 475 -237 518 -278 l 671 -278 l 671 -185 l 610 -185 b 569 -144 581 -185 569 -174 l 569 -106 b 654 -1 569 -51 589 -31 b 915 336 825 38 915 151 z "},"Ů":{"ha":1029,"x_min":0,"x_max":0,"o":"m 514 1010 b 635 1118 583 1010 635 1054 b 514 1225 635 1179 583 1225 b 394 1118 446 1225 394 1179 b 514 1010 394 1054 446 1010 z m 514 1215 b 588 1157 560 1215 588 1193 l 588 1076 b 514 1019 588 1042 560 1019 b 442 1076 469 1019 442 1042 l 442 1157 b 514 1215 442 1193 469 1215 z m 915 336 l 915 972 l 735 972 l 735 326 b 514 129 735 196 654 129 b 293 326 374 129 293 196 l 293 972 l 114 972 l 114 336 b 514 -15 114 106 256 -15 b 915 336 774 -15 915 106 z "},"Ũ":{"ha":1029,"x_min":0,"x_max":0,"o":"m 571 1053 b 699 1104 636 1029 672 1047 l 738 1188 l 725 1192 l 711 1163 b 613 1140 693 1125 669 1121 l 493 1183 b 367 1133 432 1206 392 1188 l 328 1050 l 340 1046 l 354 1074 b 443 1100 369 1107 397 1117 z m 915 336 l 915 972 l 735 972 l 735 326 b 514 129 735 196 654 129 b 293 326 374 129 293 196 l 293 972 l 114 972 l 114 336 b 514 -15 114 106 256 -15 b 915 336 774 -15 915 106 z "},"Ẃ":{"ha":1344,"x_min":0,"x_max":0,"o":"m 682 1024 l 693 1024 l 928 1182 l 928 1190 l 750 1190 z m 206 972 l 22 972 l 268 0 l 454 0 l 600 597 b 618 617 603 610 607 617 b 635 597 628 617 631 610 l 826 0 l 1090 0 l 1318 972 l 1140 972 l 956 160 l 689 988 l 676 988 l 443 31 z "},"Ŵ":{"ha":1344,"x_min":0,"x_max":0,"o":"m 867 1024 l 885 1024 l 683 1206 l 676 1206 l 476 1024 l 493 1024 l 679 1093 z m 206 972 l 22 972 l 268 0 l 454 0 l 600 597 b 618 617 603 610 607 617 b 635 597 628 617 631 610 l 826 0 l 1090 0 l 1318 972 l 1140 972 l 956 160 l 689 988 l 676 988 l 443 31 z "},"Ẅ":{"ha":1344,"x_min":0,"x_max":0,"o":"m 567 1047 b 644 1124 614 1047 644 1078 b 567 1201 644 1172 614 1201 b 489 1124 519 1201 489 1172 b 567 1047 489 1078 519 1047 z m 800 1047 b 878 1124 847 1047 878 1078 b 800 1201 878 1172 847 1201 b 722 1124 754 1201 722 1172 b 800 1047 722 1078 754 1047 z m 206 972 l 22 972 l 268 0 l 454 0 l 600 597 b 618 617 603 610 607 617 b 635 597 628 617 631 610 l 826 0 l 1090 0 l 1318 972 l 1140 972 l 956 160 l 689 988 l 676 988 l 443 31 z "},"Ẁ":{"ha":1344,"x_min":0,"x_max":0,"o":"m 681 1024 l 613 1190 l 436 1190 l 436 1182 l 669 1024 z m 206 972 l 22 972 l 268 0 l 454 0 l 600 597 b 618 617 603 610 607 617 b 635 597 628 617 631 610 l 826 0 l 1090 0 l 1318 972 l 1140 972 l 956 160 l 689 988 l 676 988 l 443 31 z "},"Ý":{"ha":819,"x_min":0,"x_max":0,"o":"m 464 1024 l 475 1024 l 710 1182 l 710 1190 l 532 1190 z m 335 0 l 515 0 l 515 404 b 532 472 515 433 517 446 l 807 972 l 786 972 l 519 485 b 504 472 514 475 510 472 b 489 485 497 472 496 474 l 221 972 l 13 972 l 335 397 z "},"Ÿ":{"ha":819,"x_min":0,"x_max":0,"o":"m 353 1047 b 431 1124 400 1047 431 1078 b 353 1201 431 1172 400 1201 b 275 1124 306 1201 275 1172 b 353 1047 275 1078 306 1047 z m 586 1047 b 664 1124 633 1047 664 1078 b 586 1201 664 1172 633 1201 b 508 1124 540 1201 508 1172 b 586 1047 508 1078 540 1047 z m 335 0 l 515 0 l 515 404 b 532 472 515 433 517 446 l 807 972 l 786 972 l 519 485 b 504 472 514 475 510 472 b 489 485 497 472 496 474 l 221 972 l 13 972 l 335 397 z "},"Ŷ":{"ha":819,"x_min":0,"x_max":0,"o":"m 644 1024 l 663 1024 l 461 1206 l 454 1206 l 254 1024 l 271 1024 l 457 1093 z m 335 0 l 515 0 l 515 404 b 532 472 515 433 517 446 l 807 972 l 786 972 l 519 485 b 504 472 514 475 510 472 b 489 485 497 472 496 474 l 221 972 l 13 972 l 335 397 z "},"Ỳ":{"ha":819,"x_min":0,"x_max":0,"o":"m 511 1024 l 443 1190 l 267 1190 l 267 1182 l 500 1024 z m 335 0 l 515 0 l 515 404 b 532 472 515 433 517 446 l 807 972 l 786 972 l 519 485 b 504 472 514 475 510 472 b 489 485 497 472 496 474 l 221 972 l 13 972 l 335 397 z "},"Ž":{"ha":808,"x_min":0,"x_max":0,"o":"m 619 1206 l 601 1206 l 414 1136 l 228 1206 l 211 1206 l 411 1024 l 418 1024 z m 781 157 l 283 157 l 779 958 l 779 972 l 53 972 l 53 956 l 554 956 b 575 939 568 956 575 950 b 569 924 575 933 572 929 l 10 14 l 10 0 l 781 0 z "},"Ź":{"ha":808,"x_min":0,"x_max":0,"o":"m 364 1024 l 375 1024 l 610 1182 l 610 1190 l 432 1190 z m 781 157 l 283 157 l 779 958 l 779 972 l 53 972 l 53 956 l 554 956 b 575 939 568 956 575 950 b 569 924 575 933 572 929 l 10 14 l 10 0 l 781 0 z "},"Ż":{"ha":808,"x_min":0,"x_max":0,"o":"m 417 1039 b 500 1122 467 1039 500 1072 b 417 1203 500 1171 467 1203 b 332 1122 367 1203 332 1171 b 417 1039 332 1072 367 1039 z m 781 157 l 283 157 l 779 958 l 779 972 l 53 972 l 53 956 l 554 956 b 575 939 568 956 575 950 b 569 924 575 933 572 929 l 10 14 l 10 0 l 781 0 z "},"á":{"ha":797,"x_min":0,"x_max":0,"o":"m 378 831 l 389 831 l 615 1031 l 615 1039 l 446 1039 z m 74 510 l 229 510 l 229 531 b 389 647 229 608 285 647 b 544 528 496 647 544 603 l 544 525 b 340 397 544 451 511 418 b 60 181 126 369 60 304 b 274 -15 60 39 143 -15 b 544 192 396 -15 508 47 l 544 0 l 707 0 l 707 513 b 393 767 707 682 599 767 b 74 531 193 767 74 679 z m 228 188 l 228 250 b 393 388 228 338 293 365 b 544 467 475 407 524 424 l 544 293 b 354 69 544 99 443 69 b 228 188 271 69 228 106 z "},"â":{"ha":797,"x_min":0,"x_max":0,"o":"m 588 831 l 606 831 l 399 1054 l 392 1054 l 186 831 l 203 831 l 394 926 z m 74 510 l 229 510 l 229 531 b 389 647 229 608 285 647 b 544 528 496 647 544 603 l 544 525 b 340 397 544 451 511 418 b 60 181 126 369 60 304 b 274 -15 60 39 143 -15 b 544 192 396 -15 508 47 l 544 0 l 707 0 l 707 513 b 393 767 707 682 599 767 b 74 531 193 767 74 679 z m 228 188 l 228 250 b 393 388 228 338 293 365 b 544 467 475 407 524 424 l 544 293 b 354 69 544 99 443 69 b 228 188 271 69 228 106 z "},"ä":{"ha":797,"x_min":0,"x_max":0,"o":"m 272 863 b 358 950 325 863 358 897 b 272 1035 358 1003 325 1035 b 185 950 219 1035 185 1003 b 272 863 185 897 219 863 z m 518 863 b 604 950 569 863 604 897 b 518 1035 604 1003 569 1035 b 431 950 465 1035 431 1003 b 518 863 431 897 465 863 z m 74 510 l 229 510 l 229 531 b 389 647 229 608 285 647 b 544 528 496 647 544 603 l 544 525 b 340 397 544 451 511 418 b 60 181 126 369 60 304 b 274 -15 60 39 143 -15 b 544 192 396 -15 508 47 l 544 0 l 707 0 l 707 513 b 393 767 707 682 599 767 b 74 531 193 767 74 679 z m 228 188 l 228 250 b 393 388 228 338 293 365 b 544 467 475 407 524 424 l 544 293 b 354 69 544 99 443 69 b 228 188 271 69 228 106 z "},"à":{"ha":797,"x_min":0,"x_max":0,"o":"m 436 832 l 368 1040 l 197 1040 l 197 1032 l 425 832 z m 74 510 l 229 510 l 229 531 b 389 647 229 608 285 647 b 544 528 496 647 544 603 l 544 525 b 340 397 544 451 511 418 b 60 181 126 369 60 304 b 274 -15 60 39 143 -15 b 544 192 396 -15 508 47 l 544 0 l 707 0 l 707 513 b 393 767 707 682 599 767 b 74 531 193 767 74 679 z m 228 188 l 228 250 b 393 388 228 338 293 365 b 544 467 475 407 524 424 l 544 293 b 354 69 544 99 443 69 b 228 188 271 69 228 106 z "},"å":{"ha":797,"x_min":0,"x_max":0,"o":"m 394 828 b 517 940 464 828 517 875 b 394 1051 517 1006 464 1051 b 272 940 324 1051 272 1006 b 394 828 272 875 324 828 z m 394 1042 b 469 982 442 1042 469 1018 l 469 897 b 394 838 469 861 442 838 b 319 897 347 838 319 861 l 319 982 b 394 1042 319 1018 347 1042 z m 74 510 l 229 510 l 229 531 b 389 647 229 608 285 647 b 544 528 496 647 544 603 l 544 525 b 340 397 544 451 511 418 b 60 181 126 369 60 304 b 274 -15 60 39 143 -15 b 544 192 396 -15 508 47 l 544 0 l 707 0 l 707 513 b 393 767 707 682 599 767 b 74 531 193 767 74 679 z m 228 188 l 228 250 b 393 388 228 338 293 365 b 544 467 475 407 524 424 l 544 293 b 354 69 544 99 443 69 b 228 188 271 69 228 106 z "},"ã":{"ha":797,"x_min":0,"x_max":0,"o":"m 572 917 l 617 1019 l 604 1024 l 590 992 b 474 967 569 946 546 933 l 367 1018 b 226 968 308 1044 253 1029 l 185 871 l 197 867 l 211 899 b 319 928 229 940 268 953 l 433 871 b 572 917 494 840 544 854 z m 74 510 l 229 510 l 229 531 b 389 647 229 608 285 647 b 544 528 496 647 544 603 l 544 525 b 340 397 544 451 511 418 b 60 181 126 369 60 304 b 274 -15 60 39 143 -15 b 544 192 396 -15 508 47 l 544 0 l 707 0 l 707 513 b 393 767 707 682 599 767 b 74 531 193 767 74 679 z m 228 188 l 228 250 b 393 388 228 338 293 365 b 544 467 475 407 524 424 l 544 293 b 354 69 544 99 443 69 b 228 188 271 69 228 106 z "},"ă":{"ha":797,"x_min":0,"x_max":0,"o":"m 396 836 b 582 1026 508 836 582 903 l 582 1049 l 569 1049 l 569 1035 b 467 940 569 969 540 940 l 325 940 b 221 1035 250 940 221 969 l 221 1049 l 208 1049 l 208 1025 b 396 836 208 901 282 836 z m 74 510 l 229 510 l 229 531 b 389 647 229 608 285 647 b 544 528 496 647 544 603 l 544 525 b 340 397 544 451 511 418 b 60 181 126 369 60 304 b 274 -15 60 39 143 -15 b 544 192 396 -15 508 47 l 544 0 l 707 0 l 707 513 b 393 767 707 682 599 767 b 74 531 193 767 74 679 z m 228 188 l 228 250 b 393 388 228 338 293 365 b 544 467 475 407 524 424 l 544 293 b 354 69 544 99 443 69 b 228 188 271 69 228 106 z "},"ā":{"ha":797,"x_min":0,"x_max":0,"o":"m 196 885 l 593 885 l 593 986 l 196 986 z m 74 510 l 229 510 l 229 531 b 389 647 229 608 285 647 b 544 528 496 647 544 603 l 544 525 b 340 397 544 451 511 418 b 60 181 126 369 60 304 b 274 -15 60 39 143 -15 b 544 192 396 -15 508 47 l 544 0 l 707 0 l 707 513 b 393 767 707 682 599 767 b 74 531 193 767 74 679 z m 228 188 l 228 250 b 393 388 228 338 293 365 b 544 467 475 407 524 424 l 544 293 b 354 69 544 99 443 69 b 228 188 271 69 228 106 z "},"ą":{"ha":797,"x_min":0,"x_max":0,"o":"m 74 510 l 229 510 l 229 531 b 389 647 229 608 285 647 b 544 528 496 647 544 603 l 544 525 b 340 397 544 451 511 418 b 60 181 126 369 60 304 b 274 -15 60 39 143 -15 b 544 192 396 -15 508 47 l 544 0 l 639 0 b 483 -168 535 -47 483 -100 b 606 -278 483 -237 526 -278 l 679 -278 l 679 -185 l 618 -185 b 578 -144 589 -185 578 -174 l 578 -106 b 665 0 578 -51 597 -31 l 707 0 l 707 513 b 393 767 707 682 599 767 b 74 531 193 767 74 679 z m 228 188 l 228 250 b 393 388 228 338 293 365 b 544 467 475 407 524 424 l 544 293 b 354 69 544 99 443 69 b 228 188 271 69 228 106 z "},"ç":{"ha":799,"x_min":0,"x_max":0,"o":"m 350 -103 l 410 -103 b 447 -140 435 -103 447 -115 l 447 -164 b 410 -200 447 -187 435 -200 l 304 -200 l 304 -278 l 443 -278 b 547 -183 508 -278 547 -242 b 446 -89 547 -124 510 -89 l 389 -89 b 378 -71 378 -89 374 -82 l 401 -15 l 415 -15 b 744 268 615 -15 744 76 l 744 288 l 585 288 l 585 264 b 415 110 585 165 524 110 b 226 301 296 110 226 179 l 226 447 b 415 642 226 571 294 642 b 585 481 525 642 585 585 l 585 463 l 744 463 l 744 476 b 415 767 744 672 606 767 b 53 374 183 767 53 631 b 385 -14 53 128 165 -4 z "},"ć":{"ha":799,"x_min":0,"x_max":0,"o":"m 394 831 l 406 831 l 632 1031 l 632 1039 l 463 1039 z m 744 463 l 744 476 b 415 767 744 672 606 767 b 53 374 183 767 53 631 b 415 -15 53 117 176 -15 b 744 268 615 -15 744 76 l 744 288 l 585 288 l 585 264 b 415 110 585 165 524 110 b 226 301 296 110 226 179 l 226 447 b 415 642 226 571 294 642 b 585 481 525 642 585 585 l 585 463 z "},"č":{"ha":799,"x_min":0,"x_max":0,"o":"m 622 1051 l 604 1051 l 413 954 l 219 1051 l 203 1051 l 408 828 l 415 828 z m 744 463 l 744 476 b 415 767 744 672 606 767 b 53 374 183 767 53 631 b 415 -15 53 117 176 -15 b 744 268 615 -15 744 76 l 744 288 l 585 288 l 585 264 b 415 110 585 165 524 110 b 226 301 296 110 226 179 l 226 447 b 415 642 226 571 294 642 b 585 481 525 642 585 585 l 585 463 z "},"ĉ":{"ha":799,"x_min":0,"x_max":0,"o":"m 604 831 l 622 831 l 415 1054 l 408 1054 l 203 831 l 219 831 l 411 926 z m 744 463 l 744 476 b 415 767 744 672 606 767 b 53 374 183 767 53 631 b 415 -15 53 117 176 -15 b 744 268 615 -15 744 76 l 744 288 l 585 288 l 585 264 b 415 110 585 165 524 110 b 226 301 296 110 226 179 l 226 447 b 415 642 226 571 294 642 b 585 481 525 642 585 585 l 585 463 z "},"ċ":{"ha":799,"x_min":0,"x_max":0,"o":"m 413 858 b 510 954 471 858 510 897 b 413 1050 510 1013 471 1050 b 315 954 354 1050 315 1013 b 413 858 315 897 354 858 z m 744 463 l 744 476 b 415 767 744 672 606 767 b 53 374 183 767 53 631 b 415 -15 53 117 176 -15 b 744 268 615 -15 744 76 l 744 288 l 585 288 l 585 264 b 415 110 585 165 524 110 b 226 301 296 110 226 179 l 226 447 b 415 642 226 571 294 642 b 585 481 525 642 585 585 l 585 463 z "},"ď":{"ha":932,"x_min":0,"x_max":0,"o":"m 597 1042 l 597 529 b 332 767 561 682 467 767 b 60 374 154 767 60 640 b 332 -15 60 107 154 -15 b 597 221 467 -15 561 69 l 597 0 l 764 0 l 764 1042 z m 847 832 l 861 832 l 978 1031 l 978 1042 l 847 1042 z m 238 264 l 238 485 b 403 682 238 624 299 682 b 597 375 526 682 597 596 b 403 68 597 156 526 68 b 238 264 299 68 238 126 z "},"đ":{"ha":867,"x_min":0,"x_max":0,"o":"m 322 883 l 597 883 l 597 529 b 332 767 561 682 467 767 b 60 374 154 767 60 640 b 332 -15 60 107 154 -15 b 597 221 467 -15 561 69 l 597 0 l 764 0 l 764 883 l 867 883 l 867 897 l 764 897 l 764 1042 l 597 1042 l 597 897 l 322 897 z m 238 264 l 238 485 b 403 682 238 624 299 682 b 597 375 526 682 597 596 b 403 68 597 156 526 68 b 238 264 299 68 238 126 z "},"é":{"ha":789,"x_min":0,"x_max":0,"o":"m 396 831 l 407 831 l 633 1031 l 633 1039 l 464 1039 z m 218 364 b 239 385 218 371 222 385 l 733 385 b 739 453 738 410 739 432 b 407 767 739 667 608 767 b 53 374 185 767 53 638 b 410 -15 53 107 176 -15 b 738 246 615 -15 738 86 l 738 261 l 583 261 l 583 242 b 410 110 583 157 519 110 b 218 301 285 110 218 171 z m 218 451 b 408 644 218 578 285 644 b 583 474 522 644 583 590 l 583 458 b 517 399 583 414 564 399 l 239 399 b 218 419 222 399 218 411 z "},"ê":{"ha":789,"x_min":0,"x_max":0,"o":"m 596 831 l 614 831 l 407 1054 l 400 1054 l 194 831 l 211 831 l 403 926 z m 218 364 b 239 385 218 371 222 385 l 733 385 b 739 453 738 410 739 432 b 407 767 739 667 608 767 b 53 374 185 767 53 638 b 410 -15 53 107 176 -15 b 738 246 615 -15 738 86 l 738 261 l 583 261 l 583 242 b 410 110 583 157 519 110 b 218 301 285 110 218 171 z m 218 451 b 408 644 218 578 285 644 b 583 474 522 644 583 590 l 583 458 b 517 399 583 414 564 399 l 239 399 b 218 419 222 399 218 411 z "},"ë":{"ha":789,"x_min":0,"x_max":0,"o":"m 285 863 b 371 950 338 863 371 897 b 285 1035 371 1003 338 1035 b 197 950 232 1035 197 1003 b 285 863 197 897 232 863 z m 531 863 b 617 950 582 863 617 897 b 531 1035 617 1003 582 1035 b 443 950 478 1035 443 1003 b 531 863 443 897 478 863 z m 218 364 b 239 385 218 371 222 385 l 733 385 b 739 453 738 410 739 432 b 407 767 739 667 608 767 b 53 374 185 767 53 638 b 410 -15 53 107 176 -15 b 738 246 615 -15 738 86 l 738 261 l 583 261 l 583 242 b 410 110 583 157 519 110 b 218 301 285 110 218 171 z m 218 451 b 408 644 218 578 285 644 b 583 474 522 644 583 590 l 583 458 b 517 399 583 414 564 399 l 239 399 b 218 419 222 399 218 411 z "},"è":{"ha":789,"x_min":0,"x_max":0,"o":"m 426 832 l 358 1040 l 188 1040 l 188 1032 l 415 832 z m 218 364 b 239 385 218 371 222 385 l 733 385 b 739 453 738 410 739 432 b 407 767 739 667 608 767 b 53 374 185 767 53 638 b 410 -15 53 107 176 -15 b 738 246 615 -15 738 86 l 738 261 l 583 261 l 583 242 b 410 110 583 157 519 110 b 218 301 285 110 218 171 z m 218 451 b 408 644 218 578 285 644 b 583 474 522 644 583 590 l 583 458 b 517 399 583 414 564 399 l 239 399 b 218 419 222 399 218 411 z "},"ĕ":{"ha":789,"x_min":0,"x_max":0,"o":"m 403 836 b 589 1026 515 836 589 903 l 589 1049 l 576 1049 l 576 1035 b 474 940 576 969 547 940 l 332 940 b 228 1035 257 940 228 969 l 228 1049 l 215 1049 l 215 1025 b 403 836 215 901 289 836 z m 218 364 b 239 385 218 371 222 385 l 733 385 b 739 453 738 410 739 432 b 407 767 739 667 608 767 b 53 374 185 767 53 638 b 410 -15 53 107 176 -15 b 738 246 615 -15 738 86 l 738 261 l 583 261 l 583 242 b 410 110 583 157 519 110 b 218 301 285 110 218 171 z m 218 451 b 408 644 218 578 285 644 b 583 474 522 644 583 590 l 583 458 b 517 399 583 414 564 399 l 239 399 b 218 419 222 399 218 411 z "},"ě":{"ha":789,"x_min":0,"x_max":0,"o":"m 614 1051 l 596 1051 l 404 954 l 211 1051 l 194 1051 l 400 828 l 407 828 z m 218 364 b 239 385 218 371 222 385 l 733 385 b 739 453 738 410 739 432 b 407 767 739 667 608 767 b 53 374 185 767 53 638 b 410 -15 53 107 176 -15 b 738 246 615 -15 738 86 l 738 261 l 583 261 l 583 242 b 410 110 583 157 519 110 b 218 301 285 110 218 171 z m 218 451 b 408 644 218 578 285 644 b 583 474 522 644 583 590 l 583 458 b 517 399 583 414 564 399 l 239 399 b 218 419 222 399 218 411 z "},"ė":{"ha":789,"x_min":0,"x_max":0,"o":"m 404 858 b 501 954 463 858 501 897 b 404 1050 501 1013 463 1050 b 307 954 346 1050 307 1013 b 404 858 307 897 346 858 z m 218 364 b 239 385 218 371 222 385 l 733 385 b 739 453 738 410 739 432 b 407 767 739 667 608 767 b 53 374 185 767 53 638 b 410 -15 53 107 176 -15 b 738 246 615 -15 738 86 l 738 261 l 583 261 l 583 242 b 410 110 583 157 519 110 b 218 301 285 110 218 171 z m 218 451 b 408 644 218 578 285 644 b 583 474 522 644 583 590 l 583 458 b 517 399 583 414 564 399 l 239 399 b 218 419 222 399 218 411 z "},"ē":{"ha":789,"x_min":0,"x_max":0,"o":"m 204 885 l 601 885 l 601 986 l 204 986 z m 218 364 b 239 385 218 371 222 385 l 733 385 b 739 453 738 410 739 432 b 407 767 739 667 608 767 b 53 374 185 767 53 638 b 410 -15 53 107 176 -15 b 738 246 615 -15 738 86 l 738 261 l 583 261 l 583 242 b 410 110 583 157 519 110 b 218 301 285 110 218 171 z m 218 451 b 408 644 218 578 285 644 b 583 474 522 644 583 590 l 583 458 b 517 399 583 414 564 399 l 239 399 b 218 419 222 399 218 411 z "},"ę":{"ha":789,"x_min":0,"x_max":0,"o":"m 218 364 b 239 385 218 371 222 385 l 733 385 b 739 453 738 410 739 432 b 407 767 739 667 608 767 b 53 374 185 767 53 638 b 410 -15 53 107 176 -15 b 599 22 485 -15 547 -1 b 468 -161 518 -39 468 -83 b 590 -278 468 -236 511 -278 l 678 -278 l 678 -185 l 603 -185 b 563 -144 574 -185 563 -174 l 563 -103 b 644 50 563 -46 576 -7 b 738 246 704 96 738 163 l 738 261 l 583 261 l 583 242 b 410 110 583 157 519 110 b 218 301 285 110 218 171 z m 218 451 b 408 644 218 578 285 644 b 583 474 522 644 583 590 l 583 458 b 517 399 583 414 564 399 l 239 399 b 218 419 222 399 218 411 z "},"ğ":{"ha":867,"x_min":0,"x_max":0,"o":"m 442 836 b 628 1026 554 836 628 903 l 628 1049 l 615 1049 l 615 1035 b 513 940 615 969 586 940 l 371 940 b 267 1035 296 940 267 969 l 267 1049 l 254 1049 l 254 1025 b 442 836 254 901 328 836 z m 94 -42 l 94 -64 b 415 -293 94 -228 208 -293 b 764 -12 649 -293 764 -199 l 764 751 l 597 751 l 597 539 b 336 767 561 685 468 767 b 63 389 157 767 63 646 b 336 14 63 132 157 14 b 597 242 468 14 561 96 l 597 -18 b 415 -171 597 -126 542 -171 b 253 -64 304 -171 253 -135 l 253 -42 z m 240 293 l 240 485 b 406 681 240 624 301 681 b 597 390 528 681 597 601 b 406 99 597 176 528 99 b 240 293 301 99 240 157 z "},"ĝ":{"ha":867,"x_min":0,"x_max":0,"o":"m 635 831 l 653 831 l 446 1054 l 439 1054 l 233 831 l 250 831 l 442 926 z m 94 -42 l 94 -64 b 415 -293 94 -228 208 -293 b 764 -12 649 -293 764 -199 l 764 751 l 597 751 l 597 539 b 336 767 561 685 468 767 b 63 389 157 767 63 646 b 336 14 63 132 157 14 b 597 242 468 14 561 96 l 597 -18 b 415 -171 597 -126 542 -171 b 253 -64 304 -171 253 -135 l 253 -42 z m 240 293 l 240 485 b 406 681 240 624 301 681 b 597 390 528 681 597 601 b 406 99 597 176 528 99 b 240 293 301 99 240 157 z "},"ģ":{"ha":867,"x_min":0,"x_max":0,"o":"m 496 1029 l 482 1029 l 371 857 l 371 839 l 496 839 z m 94 -42 l 94 -64 b 415 -293 94 -228 208 -293 b 764 -12 649 -293 764 -199 l 764 751 l 597 751 l 597 539 b 336 767 561 685 468 767 b 63 389 157 767 63 646 b 336 14 63 132 157 14 b 597 242 468 14 561 96 l 597 -18 b 415 -171 597 -126 542 -171 b 253 -64 304 -171 253 -135 l 253 -42 z m 240 293 l 240 485 b 406 681 240 624 301 681 b 597 390 528 681 597 601 b 406 99 597 176 528 99 b 240 293 301 99 240 157 z "},"ġ":{"ha":867,"x_min":0,"x_max":0,"o":"m 438 858 b 535 954 496 858 535 897 b 438 1050 535 1013 496 1050 b 340 954 379 1050 340 1013 b 438 858 340 897 379 858 z m 94 -42 l 94 -64 b 415 -293 94 -228 208 -293 b 764 -12 649 -293 764 -199 l 764 751 l 597 751 l 597 539 b 336 767 561 685 468 767 b 63 389 157 767 63 646 b 336 14 63 132 157 14 b 597 242 468 14 561 96 l 597 -18 b 415 -171 597 -126 542 -171 b 253 -64 304 -171 253 -135 l 253 -42 z m 240 293 l 240 485 b 406 681 240 624 301 681 b 597 390 528 681 597 601 b 406 99 597 176 528 99 b 240 293 301 99 240 157 z "},"ħ":{"ha":856,"x_min":0,"x_max":0,"o":"m 103 0 l 269 0 l 269 439 b 456 678 269 628 356 678 b 597 525 554 678 597 628 l 597 0 l 764 0 l 764 528 b 536 767 764 701 668 767 b 269 551 411 767 304 697 l 269 883 l 544 883 l 544 897 l 269 897 l 269 1042 l 103 1042 l 103 897 l 0 897 l 0 883 l 103 883 z "},"ĥ":{"ha":856,"x_min":0,"x_max":0,"o":"m 571 1072 l 589 1072 l 382 1296 l 375 1296 l 169 1072 l 186 1072 l 378 1168 z m 103 0 l 269 0 l 269 439 b 456 678 269 628 356 678 b 597 525 554 678 597 628 l 597 0 l 764 0 l 764 528 b 536 767 764 701 668 767 b 269 551 411 767 304 697 l 269 1042 l 103 1042 z "},"í":{"ha":372,"x_min":0,"x_max":0,"o":"m 176 831 l 188 831 l 414 1031 l 414 1039 l 244 1039 z m 103 0 l 269 0 l 269 751 l 103 751 z "},"î":{"ha":372,"x_min":0,"x_max":0,"o":"m 378 831 l 396 831 l 189 1054 l 182 1054 l -24 831 l -7 831 l 185 926 z m 103 0 l 269 0 l 269 751 l 103 751 z "},"ï":{"ha":372,"x_min":0,"x_max":0,"o":"m 64 863 b 150 950 117 863 150 897 b 64 1035 150 1003 117 1035 b -24 950 11 1035 -24 1003 b 64 863 -24 897 11 863 z m 310 863 b 396 950 361 863 396 897 b 310 1035 396 1003 361 1035 b 222 950 257 1035 222 1003 b 310 863 222 897 257 863 z m 103 0 l 269 0 l 269 751 l 103 751 z "},"ì":{"ha":372,"x_min":0,"x_max":0,"o":"m 207 832 l 139 1040 l -32 1040 l -32 1032 l 196 832 z m 103 0 l 269 0 l 269 751 l 103 751 z "},"ĭ":{"ha":372,"x_min":0,"x_max":0,"o":"m 186 836 b 372 1026 299 836 372 903 l 372 1049 l 360 1049 l 360 1035 b 257 940 360 969 331 940 l 115 940 b 11 1035 40 940 11 969 l 11 1049 l -1 1049 l -1 1025 b 186 836 -1 901 72 836 z m 103 0 l 269 0 l 269 751 l 103 751 z "},"ī":{"ha":372,"x_min":0,"x_max":0,"o":"m -12 885 l 385 885 l 385 986 l -12 986 z m 103 0 l 269 0 l 269 751 l 103 751 z "},"į":{"ha":372,"x_min":0,"x_max":0,"o":"m 188 856 b 288 954 247 856 288 894 b 188 1053 288 1014 247 1053 b 86 954 126 1053 86 1014 b 188 856 86 894 126 856 z m 103 0 l 201 0 b 46 -168 97 -47 46 -100 b 168 -278 46 -237 89 -278 l 242 -278 l 242 -185 l 181 -185 b 140 -144 151 -185 140 -174 l 140 -106 b 228 0 140 -51 160 -31 l 269 0 l 269 751 l 103 751 z "},"ĩ":{"ha":372,"x_min":0,"x_max":0,"o":"m 361 917 l 406 1019 l 393 1024 l 379 992 b 263 967 358 946 335 933 l 156 1018 b 15 968 97 1044 42 1029 l -26 871 l -14 867 l 0 899 b 108 928 18 940 57 953 l 222 871 b 361 917 283 840 333 854 z m 103 0 l 269 0 l 269 751 l 103 751 z "},"ĵ":{"ha":372,"x_min":0,"x_max":0,"o":"m 378 831 l 396 831 l 189 1054 l 182 1054 l -24 831 l -7 831 l 185 926 z m 269 -161 l 269 751 l 103 751 l 103 -229 b 68 -264 103 -253 92 -264 l -12 -264 l -12 -278 l 151 -278 b 269 -161 228 -278 269 -242 z "},"ĳ":{"ha":744,"x_min":0,"x_max":0,"o":"m 188 856 b 288 954 247 856 288 894 b 188 1053 288 1014 247 1053 b 86 954 126 1053 86 1014 b 188 856 86 894 126 856 z m 560 856 b 660 954 619 856 660 894 b 560 1053 660 1014 619 1053 b 458 954 499 1053 458 1014 b 560 856 458 894 499 856 z m 103 0 l 269 0 l 269 751 l 103 751 z m 642 -161 l 642 751 l 475 751 l 475 -229 b 440 -264 475 -253 464 -264 l 360 -264 l 360 -278 l 524 -278 b 642 -161 600 -278 642 -242 z "},"ķ":{"ha":792,"x_min":0,"x_max":0,"o":"m 103 0 l 269 0 l 269 314 l 407 457 l 600 0 l 778 0 l 533 588 l 650 708 b 710 738 674 731 686 738 l 761 738 l 761 751 l 269 751 l 269 1042 l 103 1042 z m 625 738 b 640 725 635 738 640 733 b 628 706 640 718 635 713 l 269 335 l 269 738 z m 351 -271 l 365 -271 l 478 -103 l 478 -85 l 351 -85 z "},"ĸ":{"ha":792,"x_min":0,"x_max":0,"o":"m 103 0 l 269 0 l 269 314 l 407 457 l 600 0 l 778 0 l 533 588 l 650 708 b 710 738 674 731 686 738 l 761 738 l 761 751 l 103 751 z m 626 738 b 642 725 636 738 642 733 b 629 706 642 718 635 713 l 269 333 l 269 738 z "},"ĺ":{"ha":372,"x_min":0,"x_max":0,"o":"m 176 1090 l 188 1090 l 414 1290 l 414 1299 l 244 1299 z m 103 0 l 269 0 l 269 1042 l 103 1042 z "},"ľ":{"ha":436,"x_min":0,"x_max":0,"o":"m 103 0 l 269 0 l 269 1042 l 103 1042 z m 338 832 l 351 832 l 468 1031 l 468 1042 l 338 1042 z "},"ļ":{"ha":372,"x_min":0,"x_max":0,"o":"m 103 0 l 269 0 l 269 1042 l 103 1042 z m 122 -271 l 136 -271 l 249 -103 l 249 -85 l 122 -85 z "},"ŀ":{"ha":468,"x_min":0,"x_max":0,"o":"m 103 0 l 269 0 l 269 1042 l 103 1042 z m 422 429 b 522 528 482 429 522 468 b 422 626 522 589 482 626 b 321 528 360 626 321 589 b 422 429 321 468 360 429 z "},"ñ":{"ha":856,"x_min":0,"x_max":0,"o":"m 633 917 l 678 1019 l 665 1024 l 651 992 b 535 967 631 946 607 933 l 428 1018 b 288 968 369 1044 314 1029 l 246 871 l 258 867 l 272 899 b 381 928 290 940 329 953 l 494 871 b 633 917 556 840 606 854 z m 103 0 l 269 0 l 269 439 b 456 678 269 628 356 678 b 597 525 554 678 597 628 l 597 0 l 764 0 l 764 528 b 536 767 764 701 668 767 b 269 551 411 767 304 697 l 269 751 l 103 751 z "},"ń":{"ha":856,"x_min":0,"x_max":0,"o":"m 419 831 l 431 831 l 657 1031 l 657 1039 l 488 1039 z m 103 0 l 269 0 l 269 439 b 456 678 269 628 356 678 b 597 525 554 678 597 628 l 597 0 l 764 0 l 764 528 b 536 767 764 701 668 767 b 269 551 411 767 304 697 l 269 751 l 103 751 z "},"ň":{"ha":856,"x_min":0,"x_max":0,"o":"m 669 1051 l 651 1051 l 460 954 l 267 1051 l 250 1051 l 456 828 l 463 828 z m 103 0 l 269 0 l 269 439 b 456 678 269 628 356 678 b 597 525 554 678 597 628 l 597 0 l 764 0 l 764 528 b 536 767 764 701 668 767 b 269 551 411 767 304 697 l 269 751 l 103 751 z "},"ņ":{"ha":856,"x_min":0,"x_max":0,"o":"m 103 0 l 269 0 l 269 439 b 456 678 269 628 356 678 b 597 525 554 678 597 628 l 597 0 l 764 0 l 764 528 b 536 767 764 701 668 767 b 269 551 411 767 304 697 l 269 751 l 103 751 z m 374 -271 l 388 -271 l 500 -103 l 500 -85 l 374 -85 z "},"ŋ":{"ha":856,"x_min":0,"x_max":0,"o":"m 103 0 l 269 0 l 269 439 b 456 678 269 628 356 678 b 597 525 554 678 597 628 l 597 -229 b 563 -264 597 -253 586 -264 l 482 -264 l 482 -278 l 646 -278 b 764 -161 722 -278 764 -242 l 764 528 b 536 767 764 701 668 767 b 269 551 411 767 304 697 l 269 751 l 103 751 z "},"ŉ":{"ha":965,"x_min":0,"x_max":0,"o":"m 213 0 l 379 0 l 379 439 b 565 678 379 628 465 678 b 707 525 664 678 707 628 l 707 0 l 874 0 l 874 528 b 646 767 874 701 778 767 b 379 551 521 767 414 697 l 379 751 l 213 751 z m 74 618 b 119 631 92 618 107 622 l 56 504 l 71 504 l 129 621 b 149 689 143 649 149 667 b 74 763 149 733 119 763 b 0 689 29 763 0 733 b 74 618 0 646 29 618 z "},"ó":{"ha":832,"x_min":0,"x_max":0,"o":"m 407 831 l 418 831 l 644 1031 l 644 1039 l 475 1039 z m 417 767 b 53 374 189 767 53 624 b 417 -15 53 121 189 -15 b 779 374 643 -15 779 126 b 417 767 779 631 643 767 z m 417 110 b 226 299 294 110 226 183 l 226 450 b 417 642 226 567 294 642 b 607 450 538 642 607 567 l 607 299 b 417 110 607 183 538 110 z "},"ô":{"ha":832,"x_min":0,"x_max":0,"o":"m 608 831 l 626 831 l 419 1054 l 413 1054 l 207 831 l 224 831 l 415 926 z m 417 767 b 53 374 189 767 53 624 b 417 -15 53 121 189 -15 b 779 374 643 -15 779 126 b 417 767 779 631 643 767 z m 417 110 b 226 299 294 110 226 183 l 226 450 b 417 642 226 567 294 642 b 607 450 538 642 607 567 l 607 299 b 417 110 607 183 538 110 z "},"ö":{"ha":832,"x_min":0,"x_max":0,"o":"m 294 863 b 381 950 347 863 381 897 b 294 1035 381 1003 347 1035 b 207 950 242 1035 207 1003 b 294 863 207 897 242 863 z m 540 863 b 626 950 592 863 626 897 b 540 1035 626 1003 592 1035 b 453 950 488 1035 453 1003 b 540 863 453 897 488 863 z m 417 767 b 53 374 189 767 53 624 b 417 -15 53 121 189 -15 b 779 374 643 -15 779 126 b 417 767 779 631 643 767 z m 417 110 b 226 299 294 110 226 183 l 226 450 b 417 642 226 567 294 642 b 607 450 538 642 607 567 l 607 299 b 417 110 607 183 538 110 z "},"ò":{"ha":832,"x_min":0,"x_max":0,"o":"m 435 832 l 367 1040 l 196 1040 l 196 1032 l 424 832 z m 417 767 b 53 374 189 767 53 624 b 417 -15 53 121 189 -15 b 779 374 643 -15 779 126 b 417 767 779 631 643 767 z m 417 110 b 226 299 294 110 226 183 l 226 450 b 417 642 226 567 294 642 b 607 450 538 642 607 567 l 607 299 b 417 110 607 183 538 110 z "},"õ":{"ha":832,"x_min":0,"x_max":0,"o":"m 593 917 l 638 1019 l 625 1024 l 611 992 b 494 967 590 946 567 933 l 388 1018 b 247 968 329 1044 274 1029 l 206 871 l 218 867 l 232 899 b 340 928 250 940 289 953 l 454 871 b 593 917 515 840 565 854 z m 417 767 b 53 374 189 767 53 624 b 417 -15 53 121 189 -15 b 779 374 643 -15 779 126 b 417 767 779 631 643 767 z m 417 110 b 226 299 294 110 226 183 l 226 450 b 417 642 226 567 294 642 b 607 450 538 642 607 567 l 607 299 b 417 110 607 183 538 110 z "},"ŏ":{"ha":832,"x_min":0,"x_max":0,"o":"m 417 836 b 603 1026 529 836 603 903 l 603 1049 l 590 1049 l 590 1035 b 488 940 590 969 561 940 l 346 940 b 242 1035 271 940 242 969 l 242 1049 l 229 1049 l 229 1025 b 417 836 229 901 303 836 z m 417 767 b 53 374 189 767 53 624 b 417 -15 53 121 189 -15 b 779 374 643 -15 779 126 b 417 767 779 631 643 767 z m 417 110 b 226 299 294 110 226 183 l 226 450 b 417 642 226 567 294 642 b 607 450 538 642 607 567 l 607 299 b 417 110 607 183 538 110 z "},"ő":{"ha":832,"x_min":0,"x_max":0,"o":"m 289 831 l 300 831 l 486 1035 l 486 1043 l 357 1043 z m 474 831 l 485 831 l 669 1035 l 669 1043 l 542 1043 z m 417 767 b 53 374 189 767 53 624 b 417 -15 53 121 189 -15 b 779 374 643 -15 779 126 b 417 767 779 631 643 767 z m 417 110 b 226 299 294 110 226 183 l 226 450 b 417 642 226 567 294 642 b 607 450 538 642 607 567 l 607 299 b 417 110 607 183 538 110 z "},"ō":{"ha":832,"x_min":0,"x_max":0,"o":"m 217 885 l 614 885 l 614 986 l 217 986 z m 417 767 b 53 374 189 767 53 624 b 417 -15 53 121 189 -15 b 779 374 643 -15 779 126 b 417 767 779 631 643 767 z m 417 110 b 226 299 294 110 226 183 l 226 450 b 417 642 226 567 294 642 b 607 450 538 642 607 567 l 607 299 b 417 110 607 183 538 110 z "},"ŕ":{"ha":729,"x_min":0,"x_max":0,"o":"m 382 831 l 393 831 l 619 1031 l 619 1039 l 450 1039 z m 103 0 l 269 0 l 269 481 b 424 681 269 593 315 681 b 522 588 492 681 522 653 l 522 419 l 676 419 l 676 610 b 510 761 676 719 603 761 b 269 581 394 761 303 694 l 269 751 l 103 751 z "},"ř":{"ha":729,"x_min":0,"x_max":0,"o":"m 629 1051 l 611 1051 l 419 954 l 226 1051 l 210 1051 l 415 828 l 422 828 z m 103 0 l 269 0 l 269 481 b 424 681 269 593 315 681 b 522 588 492 681 522 653 l 522 419 l 676 419 l 676 610 b 510 761 676 719 603 761 b 269 581 394 761 303 694 l 269 751 l 103 751 z "},"ŗ":{"ha":729,"x_min":0,"x_max":0,"o":"m 103 0 l 269 0 l 269 481 b 424 681 269 593 315 681 b 522 588 492 681 522 653 l 522 419 l 676 419 l 676 610 b 510 761 676 719 603 761 b 269 581 394 761 303 694 l 269 751 l 103 751 z m 122 -271 l 136 -271 l 249 -103 l 249 -85 l 122 -85 z "},"š":{"ha":744,"x_min":0,"x_max":0,"o":"m 582 1051 l 564 1051 l 372 954 l 179 1051 l 163 1051 l 368 828 l 375 828 z m 372 651 b 526 529 476 651 526 614 l 526 501 l 681 501 l 681 528 b 372 767 681 693 574 767 b 58 557 171 767 58 690 b 274 390 58 451 113 407 l 414 378 b 539 269 503 368 539 336 l 539 215 b 381 99 539 132 483 99 b 207 225 267 99 207 142 l 207 257 l 50 257 l 50 231 b 381 -15 50 61 165 -15 b 697 203 585 -15 697 63 b 496 382 697 304 650 365 l 354 396 b 217 497 257 407 217 431 l 217 540 b 372 651 217 615 271 651 z "},"ś":{"ha":744,"x_min":0,"x_max":0,"o":"m 354 831 l 365 831 l 592 1031 l 592 1039 l 422 1039 z m 372 651 b 526 529 476 651 526 614 l 526 501 l 681 501 l 681 528 b 372 767 681 693 574 767 b 58 557 171 767 58 690 b 274 390 58 451 113 407 l 414 378 b 539 269 503 368 539 336 l 539 215 b 381 99 539 132 483 99 b 207 225 267 99 207 142 l 207 257 l 50 257 l 50 231 b 381 -15 50 61 165 -15 b 697 203 585 -15 697 63 b 496 382 697 304 650 365 l 354 396 b 217 497 257 407 217 431 l 217 540 b 372 651 217 615 271 651 z "},"ş":{"ha":744,"x_min":0,"x_max":0,"o":"m 325 -103 l 385 -103 b 422 -140 410 -103 422 -115 l 422 -164 b 385 -200 422 -187 410 -200 l 279 -200 l 279 -278 l 418 -278 b 522 -183 483 -278 522 -242 b 421 -89 522 -124 485 -89 l 364 -89 b 353 -71 353 -89 349 -82 l 375 -15 l 381 -15 b 697 203 585 -15 697 63 b 496 382 697 304 650 365 l 354 396 b 217 497 257 407 217 431 l 217 540 b 372 651 217 615 271 651 b 526 529 476 651 526 614 l 526 501 l 681 501 l 681 528 b 372 767 681 693 574 767 b 58 557 171 767 58 690 b 274 390 58 451 113 407 l 414 378 b 539 269 503 368 539 336 l 539 215 b 381 99 539 132 483 99 b 207 225 267 99 207 142 l 207 257 l 50 257 l 50 231 b 360 -15 50 67 158 -10 z "},"ŝ":{"ha":744,"x_min":0,"x_max":0,"o":"m 564 831 l 582 831 l 375 1054 l 368 1054 l 163 831 l 179 831 l 371 926 z m 372 651 b 526 529 476 651 526 614 l 526 501 l 681 501 l 681 528 b 372 767 681 693 574 767 b 58 557 171 767 58 690 b 274 390 58 451 113 407 l 414 378 b 539 269 503 368 539 336 l 539 215 b 381 99 539 132 483 99 b 207 225 267 99 207 142 l 207 257 l 50 257 l 50 231 b 381 -15 50 61 165 -15 b 697 203 585 -15 697 63 b 496 382 697 304 650 365 l 354 396 b 217 497 257 407 217 431 l 217 540 b 372 651 217 615 271 651 z "},"ș":{"ha":744,"x_min":0,"x_max":0,"o":"m 372 651 b 526 529 476 651 526 614 l 526 501 l 681 501 l 681 528 b 372 767 681 693 574 767 b 58 557 171 767 58 690 b 274 390 58 451 113 407 l 414 378 b 539 269 503 368 539 336 l 539 215 b 381 99 539 132 483 99 b 207 225 267 99 207 142 l 207 257 l 50 257 l 50 231 b 381 -15 50 61 165 -15 b 697 203 585 -15 697 63 b 496 382 697 304 650 365 l 354 396 b 217 497 257 407 217 431 l 217 540 b 372 651 217 615 271 651 z m 324 -271 l 338 -271 l 450 -103 l 450 -85 l 324 -85 z "},"ŧ":{"ha":418,"x_min":0,"x_max":0,"o":"m 114 117 b 231 0 114 40 156 0 l 418 0 l 418 14 l 308 14 b 281 42 290 14 281 24 l 281 469 l 417 469 l 417 483 l 281 483 l 281 717 b 301 738 281 731 288 738 l 418 738 l 418 751 l 301 751 b 281 772 288 751 281 758 l 281 986 l 272 986 b 114 856 246 889 172 856 l 114 751 l 19 751 l 19 738 l 114 738 l 114 483 l 21 483 l 21 469 l 114 469 z "},"ť":{"ha":418,"x_min":0,"x_max":0,"o":"m 354 832 l 368 832 l 485 1031 l 485 1042 l 354 1042 z m 114 117 b 231 0 114 40 156 0 l 418 0 l 418 14 l 308 14 b 281 42 290 14 281 24 l 281 717 b 301 738 281 731 288 738 l 418 738 l 418 751 l 301 751 b 281 772 288 751 281 758 l 281 986 l 272 986 b 114 856 246 889 172 856 l 114 751 l 19 751 l 19 738 l 114 738 z "},"ţ":{"ha":418,"x_min":0,"x_max":0,"o":"m 114 117 b 231 0 114 40 156 0 l 418 0 l 418 14 l 308 14 b 281 42 290 14 281 24 l 281 717 b 301 738 281 731 288 738 l 418 738 l 418 751 l 301 751 b 281 772 288 751 281 758 l 281 986 l 272 986 b 114 856 246 889 172 856 l 114 751 l 19 751 l 19 738 l 114 738 z m 189 -271 l 203 -271 l 315 -103 l 315 -85 l 189 -85 z "},"ț":{"ha":418,"x_min":0,"x_max":0,"o":"m 114 117 b 231 0 114 40 156 0 l 418 0 l 418 14 l 308 14 b 281 42 290 14 281 24 l 281 717 b 301 738 281 731 288 738 l 418 738 l 418 751 l 301 751 b 281 772 288 751 281 758 l 281 986 l 272 986 b 114 856 246 889 172 856 l 114 751 l 19 751 l 19 738 l 114 738 z m 189 -271 l 203 -271 l 315 -103 l 315 -85 l 189 -85 z "},"ú":{"ha":839,"x_min":0,"x_max":0,"o":"m 399 831 l 410 831 l 636 1031 l 636 1039 l 467 1039 z m 325 -15 b 569 192 439 -15 538 53 l 569 0 l 736 0 l 736 751 l 569 751 l 569 297 b 404 81 569 118 488 81 b 258 224 306 81 258 128 l 258 751 l 92 751 l 92 224 b 325 -15 92 50 188 -15 z "},"û":{"ha":839,"x_min":0,"x_max":0,"o":"m 611 831 l 629 831 l 422 1054 l 415 1054 l 210 831 l 226 831 l 418 926 z m 325 -15 b 569 192 439 -15 538 53 l 569 0 l 736 0 l 736 751 l 569 751 l 569 297 b 404 81 569 118 488 81 b 258 224 306 81 258 128 l 258 751 l 92 751 l 92 224 b 325 -15 92 50 188 -15 z "},"ü":{"ha":839,"x_min":0,"x_max":0,"o":"m 297 863 b 383 950 350 863 383 897 b 297 1035 383 1003 350 1035 b 210 950 244 1035 210 1003 b 297 863 210 897 244 863 z m 543 863 b 629 950 594 863 629 897 b 543 1035 629 1003 594 1035 b 456 950 490 1035 456 1003 b 543 863 456 897 490 863 z m 325 -15 b 569 192 439 -15 538 53 l 569 0 l 736 0 l 736 751 l 569 751 l 569 297 b 404 81 569 118 488 81 b 258 224 306 81 258 128 l 258 751 l 92 751 l 92 224 b 325 -15 92 50 188 -15 z "},"ù":{"ha":839,"x_min":0,"x_max":0,"o":"m 443 832 l 375 1040 l 204 1040 l 204 1032 l 432 832 z m 325 -15 b 569 192 439 -15 538 53 l 569 0 l 736 0 l 736 751 l 569 751 l 569 297 b 404 81 569 118 488 81 b 258 224 306 81 258 128 l 258 751 l 92 751 l 92 224 b 325 -15 92 50 188 -15 z "},"ŭ":{"ha":839,"x_min":0,"x_max":0,"o":"m 419 836 b 606 1026 532 836 606 903 l 606 1049 l 593 1049 l 593 1035 b 490 940 593 969 564 940 l 349 940 b 244 1035 274 940 244 969 l 244 1049 l 232 1049 l 232 1025 b 419 836 232 901 306 836 z m 325 -15 b 569 192 439 -15 538 53 l 569 0 l 736 0 l 736 751 l 569 751 l 569 297 b 404 81 569 118 488 81 b 258 224 306 81 258 128 l 258 751 l 92 751 l 92 224 b 325 -15 92 50 188 -15 z "},"ű":{"ha":839,"x_min":0,"x_max":0,"o":"m 290 831 l 301 831 l 488 1035 l 488 1043 l 358 1043 z m 475 831 l 486 831 l 671 1035 l 671 1043 l 543 1043 z m 325 -15 b 569 192 439 -15 538 53 l 569 0 l 736 0 l 736 751 l 569 751 l 569 297 b 404 81 569 118 488 81 b 258 224 306 81 258 128 l 258 751 l 92 751 l 92 224 b 325 -15 92 50 188 -15 z "},"ū":{"ha":839,"x_min":0,"x_max":0,"o":"m 221 885 l 618 885 l 618 986 l 221 986 z m 325 -15 b 569 192 439 -15 538 53 l 569 0 l 736 0 l 736 751 l 569 751 l 569 297 b 404 81 569 118 488 81 b 258 224 306 81 258 128 l 258 751 l 92 751 l 92 224 b 325 -15 92 50 188 -15 z "},"ų":{"ha":839,"x_min":0,"x_max":0,"o":"m 325 -15 b 569 192 439 -15 538 53 l 569 0 l 668 0 b 513 -168 564 -47 513 -100 b 635 -278 513 -237 556 -278 l 708 -278 l 708 -185 l 647 -185 b 607 -144 618 -185 607 -174 l 607 -106 b 694 0 607 -51 626 -31 l 736 0 l 736 751 l 569 751 l 569 297 b 404 81 569 118 488 81 b 258 224 306 81 258 128 l 258 751 l 92 751 l 92 224 b 325 -15 92 50 188 -15 z "},"ů":{"ha":839,"x_min":0,"x_max":0,"o":"m 419 828 b 542 940 489 828 542 875 b 419 1051 542 1006 489 1051 b 297 940 349 1051 297 1006 b 419 828 297 875 349 828 z m 419 1042 b 494 982 467 1042 494 1018 l 494 897 b 419 838 494 861 467 838 b 344 897 372 838 344 861 l 344 982 b 419 1042 344 1018 372 1042 z m 325 -15 b 569 192 439 -15 538 53 l 569 0 l 736 0 l 736 751 l 569 751 l 569 297 b 404 81 569 118 488 81 b 258 224 306 81 258 128 l 258 751 l 92 751 l 92 224 b 325 -15 92 50 188 -15 z "},"ũ":{"ha":839,"x_min":0,"x_max":0,"o":"m 601 917 l 646 1019 l 633 1024 l 619 992 b 503 967 599 946 575 933 l 396 1018 b 256 968 338 1044 282 1029 l 214 871 l 226 867 l 240 899 b 349 928 258 940 297 953 l 463 871 b 601 917 524 840 574 854 z m 325 -15 b 569 192 439 -15 538 53 l 569 0 l 736 0 l 736 751 l 569 751 l 569 297 b 404 81 569 118 488 81 b 258 224 306 81 258 128 l 258 751 l 92 751 l 92 224 b 325 -15 92 50 188 -15 z "},"ẃ":{"ha":1104,"x_min":0,"x_max":0,"o":"m 561 831 l 572 831 l 799 1031 l 799 1039 l 629 1039 z m 192 751 l 29 751 l 199 0 l 364 0 l 485 450 b 500 465 488 460 490 465 b 517 450 508 465 514 460 l 669 0 l 903 0 l 1074 751 l 918 751 l 781 135 l 564 768 l 554 768 l 354 28 z "},"ŵ":{"ha":1104,"x_min":0,"x_max":0,"o":"m 751 831 l 769 831 l 563 1054 l 556 1054 l 350 831 l 367 831 l 558 926 z m 192 751 l 29 751 l 199 0 l 364 0 l 485 450 b 500 465 488 460 490 465 b 517 450 508 465 514 460 l 669 0 l 903 0 l 1074 751 l 918 751 l 781 135 l 564 768 l 554 768 l 354 28 z "},"ẅ":{"ha":1104,"x_min":0,"x_max":0,"o":"m 438 863 b 524 950 490 863 524 897 b 438 1035 524 1003 490 1035 b 350 950 385 1035 350 1003 b 438 863 350 897 385 863 z m 683 863 b 769 950 735 863 769 897 b 683 1035 769 1003 735 1035 b 596 950 631 1035 596 1003 b 683 863 596 897 631 863 z m 192 751 l 29 751 l 199 0 l 364 0 l 485 450 b 500 465 488 460 490 465 b 517 450 508 465 514 460 l 669 0 l 903 0 l 1074 751 l 918 751 l 781 135 l 564 768 l 554 768 l 354 28 z "},"ẁ":{"ha":1104,"x_min":0,"x_max":0,"o":"m 560 832 l 492 1040 l 321 1040 l 321 1032 l 549 832 z m 192 751 l 29 751 l 199 0 l 364 0 l 485 450 b 500 465 488 460 490 465 b 517 450 508 465 514 460 l 669 0 l 903 0 l 1074 751 l 918 751 l 781 135 l 564 768 l 554 768 l 354 28 z "},"ý":{"ha":710,"x_min":0,"x_max":0,"o":"m 335 831 l 346 831 l 572 1031 l 572 1039 l 403 1039 z m 488 611 l 572 611 b 614 572 603 611 614 596 b 590 472 614 546 607 522 l 456 63 b 442 51 453 54 449 51 l 422 51 b 407 67 414 51 411 54 l 188 751 l 11 751 l 249 38 l 435 38 b 442 26 442 38 444 32 l 396 -112 b 360 -137 390 -133 376 -137 l 114 -137 l 114 -278 l 271 -278 b 414 -107 356 -278 369 -244 l 700 751 l 488 751 z "},"ÿ":{"ha":710,"x_min":0,"x_max":0,"o":"m 249 863 b 335 950 301 863 335 897 b 249 1035 335 1003 301 1035 b 161 950 196 1035 161 1003 b 249 863 161 897 196 863 z m 494 863 b 581 950 546 863 581 897 b 494 1035 581 1003 546 1035 b 407 950 442 1035 407 1003 b 494 863 407 897 442 863 z m 488 611 l 572 611 b 614 572 603 611 614 596 b 590 472 614 546 607 522 l 456 63 b 442 51 453 54 449 51 l 422 51 b 407 67 414 51 411 54 l 188 751 l 11 751 l 249 38 l 435 38 b 442 26 442 38 444 32 l 396 -112 b 360 -137 390 -133 376 -137 l 114 -137 l 114 -278 l 271 -278 b 414 -107 356 -278 369 -244 l 700 751 l 488 751 z "},"ŷ":{"ha":710,"x_min":0,"x_max":0,"o":"m 558 831 l 576 831 l 369 1054 l 363 1054 l 157 831 l 174 831 l 365 926 z m 488 611 l 572 611 b 614 572 603 611 614 596 b 590 472 614 546 607 522 l 456 63 b 442 51 453 54 449 51 l 422 51 b 407 67 414 51 411 54 l 188 751 l 11 751 l 249 38 l 435 38 b 442 26 442 38 444 32 l 396 -112 b 360 -137 390 -133 376 -137 l 114 -137 l 114 -278 l 271 -278 b 414 -107 356 -278 369 -244 l 700 751 l 488 751 z "},"ỳ":{"ha":710,"x_min":0,"x_max":0,"o":"m 394 832 l 326 1040 l 156 1040 l 156 1032 l 383 832 z m 488 611 l 572 611 b 614 572 603 611 614 596 b 590 472 614 546 607 522 l 456 63 b 442 51 453 54 449 51 l 422 51 b 407 67 414 51 411 54 l 188 751 l 11 751 l 249 38 l 435 38 b 442 26 442 38 444 32 l 396 -112 b 360 -137 390 -133 376 -137 l 114 -137 l 114 -278 l 271 -278 b 414 -107 356 -278 369 -244 l 700 751 l 488 751 z "},"ž":{"ha":661,"x_min":0,"x_max":0,"o":"m 551 1051 l 533 1051 l 342 954 l 149 1051 l 132 1051 l 338 828 l 344 828 z m 15 0 l 631 0 l 631 129 l 249 129 l 619 738 l 619 751 l 50 751 l 50 738 l 426 738 b 438 713 440 738 444 725 l 15 14 z "},"ź":{"ha":661,"x_min":0,"x_max":0,"o":"m 300 831 l 311 831 l 538 1031 l 538 1039 l 368 1039 z m 15 0 l 631 0 l 631 129 l 249 129 l 619 738 l 619 751 l 50 751 l 50 738 l 426 738 b 438 713 440 738 444 725 l 15 14 z "},"ż":{"ha":661,"x_min":0,"x_max":0,"o":"m 331 858 b 428 954 389 858 428 897 b 331 1050 428 1013 389 1050 b 233 954 272 1050 233 1013 b 331 858 233 897 272 858 z m 15 0 l 631 0 l 631 129 l 249 129 l 619 738 l 619 751 l 50 751 l 50 738 l 426 738 b 438 713 440 738 444 725 l 15 14 z "},"´":{"ha":643,"x_min":0,"x_max":0,"o":"m 304 831 l 315 831 l 542 1031 l 542 1039 l 372 1039 z "},"`":{"ha":603,"x_min":0,"x_max":0,"o":"m 343 832 l 275 1040 l 104 1040 l 104 1032 l 332 832 z "},"ˆ":{"ha":760,"x_min":0,"x_max":0,"o":"m 572 831 l 590 831 l 383 1054 l 376 1054 l 171 831 l 188 831 l 379 926 z "},"ˇ":{"ha":760,"x_min":0,"x_max":0,"o":"m 590 1051 l 572 1051 l 381 954 l 188 1051 l 171 1051 l 376 828 l 383 828 z "},"˜":{"ha":756,"x_min":0,"x_max":0,"o":"m 565 917 l 610 1019 l 597 1024 l 583 992 b 467 967 563 946 539 933 l 360 1018 b 219 968 301 1044 246 1029 l 178 871 l 190 867 l 204 899 b 313 928 222 940 261 953 l 426 871 b 565 917 488 840 538 854 z "},"¨":{"ha":517,"x_min":0,"x_max":0,"o":"m 136 863 b 222 950 189 863 222 897 b 136 1035 222 1003 189 1035 b 49 950 83 1035 49 1003 b 136 863 49 897 83 863 z m 382 863 b 468 950 433 863 468 897 b 382 1035 468 1003 433 1035 b 294 950 329 1035 294 1003 b 382 863 294 897 329 863 z "},"˚":{"ha":492,"x_min":0,"x_max":0,"o":"m 246 828 b 368 940 315 828 368 875 b 246 1051 368 1006 315 1051 b 124 940 175 1051 124 1006 b 246 828 124 875 175 828 z m 246 1042 b 321 982 293 1042 321 1018 l 321 897 b 246 838 321 861 293 838 b 171 897 199 838 171 861 l 171 982 b 246 1042 171 1018 199 1042 z "},"¸":{"ha":878,"x_min":0,"x_max":0,"o":"m 393 -103 l 453 -103 b 490 -140 478 -103 490 -115 l 490 -164 b 453 -200 490 -187 478 -200 l 347 -200 l 347 -278 l 486 -278 b 590 -183 551 -278 590 -242 b 489 -89 590 -124 553 -89 l 432 -89 b 421 -71 421 -89 417 -82 l 450 0 l 433 0 z "},"˝":{"ha":711,"x_min":0,"x_max":0,"o":"m 228 831 l 239 831 l 425 1035 l 425 1043 l 296 1043 z m 413 831 l 424 831 l 608 1035 l 608 1043 l 481 1043 z "},"˘":{"ha":618,"x_min":0,"x_max":0,"o":"m 310 836 b 496 1026 422 836 496 903 l 496 1049 l 483 1049 l 483 1035 b 381 940 483 969 454 940 l 239 940 b 135 1035 164 940 135 969 l 135 1049 l 122 1049 l 122 1025 b 310 836 122 901 196 836 z "},"¯":{"ha":642,"x_min":0,"x_max":0,"o":"m 122 885 l 519 885 l 519 986 l 122 986 z "},"˙":{"ha":418,"x_min":0,"x_max":0,"o":"m 210 858 b 307 954 268 858 307 897 b 210 1050 307 1013 268 1050 b 113 954 151 1050 113 1013 b 210 858 113 897 151 858 z "},"·":{"ha":419,"x_min":0,"x_max":0,"o":"m 211 429 b 311 528 271 429 311 468 b 211 626 311 589 271 626 b 110 528 149 626 110 589 b 211 429 110 468 149 429 z "},"˛":{"ha":424,"x_min":0,"x_max":0,"o":"m 326 6 b 158 -168 214 -43 158 -97 b 281 -278 158 -237 201 -278 l 354 -278 l 354 -185 l 293 -185 b 253 -144 264 -185 253 -174 l 253 -106 b 340 0 253 -51 272 -31 z "},"":{"ha":531,"x_min":0,"x_max":0,"o":"m 204 -271 l 218 -271 l 331 -103 l 331 -85 l 204 -85 z "},".":{"ha":354,"x_min":0,"x_max":0,"o":"m 178 -15 b 281 88 240 -15 281 26 b 178 190 281 149 240 190 b 75 88 115 190 75 149 b 178 -15 75 26 115 -15 z "},",":{"ha":354,"x_min":0,"x_max":0,"o":"m 175 -15 b 253 18 207 -15 236 0 l 140 -221 l 153 -221 l 256 -3 b 281 88 271 32 281 57 b 176 190 281 149 240 190 b 75 88 115 190 75 149 b 175 -15 75 26 114 -15 z "},":":{"ha":354,"x_min":0,"x_max":0,"o":"m 178 515 b 281 618 240 515 281 557 b 178 721 281 679 240 721 b 75 618 115 721 75 679 b 178 515 75 557 115 515 z m 178 -15 b 281 88 240 -15 281 26 b 178 190 281 149 240 190 b 75 88 115 190 75 149 b 178 -15 75 26 115 -15 z "},";":{"ha":354,"x_min":0,"x_max":0,"o":"m 178 515 b 281 618 240 515 281 557 b 178 721 281 679 240 721 b 75 618 115 721 75 679 b 178 515 75 557 115 515 z m 172 -15 b 250 18 204 -15 233 0 l 138 -221 l 150 -221 l 253 -3 b 278 88 268 32 278 57 b 174 190 278 149 238 190 b 72 88 113 190 72 149 b 172 -15 72 26 111 -15 z "},"…":{"ha":978,"x_min":0,"x_max":0,"o":"m 178 -15 b 281 88 240 -15 281 26 b 178 190 281 149 240 190 b 75 88 115 190 75 149 b 178 -15 75 26 115 -15 z m 489 -15 b 592 88 551 -15 592 26 b 489 190 592 149 551 190 b 386 88 426 190 386 149 b 489 -15 386 26 426 -15 z m 801 -15 b 904 88 864 -15 904 26 b 801 190 904 149 864 190 b 699 88 739 190 699 149 b 801 -15 699 26 739 -15 z "},"?":{"ha":815,"x_min":0,"x_max":0,"o":"m 417 851 b 593 679 542 851 593 799 b 486 481 593 578 576 529 b 371 333 394 429 371 403 l 371 283 l 385 283 l 385 333 b 503 463 385 400 415 433 b 763 704 668 506 763 576 b 413 988 763 888 656 988 b 49 682 176 988 49 879 l 49 653 l 221 653 l 221 682 b 417 851 221 799 276 851 z m 385 -15 b 488 88 447 -15 488 26 b 385 190 488 149 447 190 b 282 88 322 190 282 149 b 385 -15 282 26 322 -15 z "},"!":{"ha":457,"x_min":0,"x_max":0,"o":"m 233 283 l 233 354 b 314 436 233 424 263 433 l 314 972 l 142 972 l 142 436 b 222 354 194 433 222 424 l 222 283 z m 229 -15 b 332 88 292 -15 332 26 b 229 190 332 149 292 190 b 126 88 167 190 126 149 b 229 -15 126 26 167 -15 z "},"¿":{"ha":815,"x_min":0,"x_max":0,"o":"m 431 767 b 328 664 368 767 328 725 b 431 561 328 603 368 561 b 533 664 493 561 533 603 b 431 767 533 725 493 767 z m 399 -100 b 222 72 274 -100 222 -47 b 329 271 222 174 239 222 b 444 418 421 322 444 349 l 444 468 l 431 468 l 431 418 b 313 289 431 351 400 318 b 53 47 147 246 53 175 b 403 -236 53 -136 160 -236 b 767 69 639 -236 767 -128 l 767 99 l 594 99 l 594 69 b 399 -100 594 -47 539 -100 z "},"¡":{"ha":457,"x_min":0,"x_max":0,"o":"m 229 767 b 126 664 167 767 126 725 b 229 561 126 603 167 561 b 332 664 292 561 332 603 b 229 767 332 725 292 767 z m 233 468 l 222 468 l 222 397 b 142 315 222 328 194 318 l 142 -221 l 314 -221 l 314 315 b 233 397 263 318 233 328 z "},"(":{"ha":488,"x_min":0,"x_max":0,"o":"m 276 614 b 467 1056 276 804 328 919 l 458 1064 b 104 413 193 853 104 668 b 458 -239 104 157 193 -28 l 467 -231 b 276 208 329 -97 276 22 z "},")":{"ha":488,"x_min":0,"x_max":0,"o":"m 211 217 b 21 -225 211 26 160 -89 l 29 -233 b 383 418 294 -22 383 163 b 29 1069 383 674 294 858 l 21 1061 b 211 622 158 928 211 808 z "},"{":{"ha":546,"x_min":0,"x_max":0,"o":"m 63 424 l 63 407 l 163 407 b 190 379 181 407 190 397 l 190 -111 b 326 -225 190 -200 236 -225 l 517 -225 l 517 -210 l 383 -210 b 356 -182 363 -210 356 -203 l 356 260 b 204 408 356 356 303 408 l 204 422 b 356 557 303 422 356 471 l 356 1013 b 383 1040 356 1033 363 1040 l 517 1040 l 517 1056 l 326 1056 b 190 942 236 1056 190 1031 l 190 451 b 163 424 190 433 181 424 z "},"}":{"ha":546,"x_min":0,"x_max":0,"o":"m 483 424 l 383 424 b 356 451 365 424 356 433 l 356 942 b 219 1056 356 1031 310 1056 l 29 1056 l 29 1040 l 163 1040 b 190 1013 183 1040 190 1033 l 190 557 b 342 422 190 471 243 422 l 342 408 b 190 260 243 408 190 356 l 190 -182 b 163 -210 190 -203 183 -210 l 29 -210 l 29 -225 l 219 -225 b 356 -111 310 -225 356 -200 l 356 379 b 383 407 356 397 365 407 l 483 407 z "},"[":{"ha":497,"x_min":0,"x_max":0,"o":"m 124 -225 l 472 -225 l 472 -210 l 292 -210 l 292 1040 l 472 1040 l 472 1056 l 124 1056 z "},"]":{"ha":497,"x_min":0,"x_max":0,"o":"m 374 -225 l 374 1056 l 25 1056 l 25 1040 l 206 1040 l 206 -210 l 25 -210 l 25 -225 z "},"/":{"ha":535,"x_min":0,"x_max":0,"o":"m 69 0 l 104 0 l 465 972 l 431 972 z "},"\\":{"ha":538,"x_min":0,"x_max":0,"o":"m 468 0 l 106 972 l 69 972 l 432 0 z "},"_":{"ha":722,"x_min":0,"x_max":0,"o":"m 42 -171 l 681 -171 l 681 -46 l 42 -46 z "},"-":{"ha":589,"x_min":0,"x_max":0,"o":"m 90 400 l 499 400 l 499 553 l 90 553 z "},"­":{"ha":589,"x_min":0,"x_max":0,"o":"m 90 400 l 499 400 l 499 553 l 90 553 z "},"–":{"ha":694,"x_min":0,"x_max":0,"o":"m 35 408 l 660 408 l 660 532 l 35 532 z "},"—":{"ha":1389,"x_min":0,"x_max":0,"o":"m 35 408 l 1354 408 l 1354 532 l 35 532 z "},"¦":{"ha":364,"x_min":0,"x_max":0,"o":"m 196 479 l 196 1056 l 168 1056 l 168 479 z m 196 -236 l 196 340 l 168 340 l 168 -236 z "},"|":{"ha":364,"x_min":0,"x_max":0,"o":"m 196 -236 l 196 1056 l 168 1056 l 168 -236 z "},"«":{"ha":936,"x_min":0,"x_max":0,"o":"m 453 300 l 106 469 l 453 671 l 453 688 l 71 467 l 71 331 l 453 136 z m 860 300 l 513 469 l 860 671 l 860 688 l 478 467 l 478 331 l 860 136 z "},"»":{"ha":936,"x_min":0,"x_max":0,"o":"m 76 524 l 424 354 l 76 153 l 76 136 l 458 357 l 458 493 l 76 688 z m 483 524 l 831 354 l 483 153 l 483 136 l 865 357 l 865 493 l 483 688 z "},"‹":{"ha":529,"x_min":0,"x_max":0,"o":"m 453 300 l 106 469 l 453 671 l 453 688 l 71 467 l 71 331 l 453 136 z "},"›":{"ha":529,"x_min":0,"x_max":0,"o":"m 76 524 l 424 354 l 76 153 l 76 136 l 458 357 l 458 493 l 76 688 z "},"‚":{"ha":350,"x_min":0,"x_max":0,"o":"m 172 -11 b 243 15 201 -11 226 0 l 158 -164 l 172 -164 l 246 -6 b 271 83 263 29 271 53 b 174 179 271 142 232 179 b 76 83 115 179 76 142 b 172 -11 76 26 114 -11 z "},"„":{"ha":604,"x_min":0,"x_max":0,"o":"m 156 -11 b 226 15 185 -11 210 0 l 142 -164 l 156 -164 l 229 -6 b 254 83 246 29 254 53 b 157 179 254 142 215 179 b 60 83 99 179 60 142 b 156 -11 60 26 97 -11 z m 410 -11 b 481 15 439 -11 464 0 l 396 -164 l 410 -164 l 483 -6 b 508 83 500 29 508 53 b 411 179 508 142 469 179 b 314 83 353 179 314 142 b 410 -11 314 26 351 -11 z "},"‘":{"ha":350,"x_min":0,"x_max":0,"o":"m 178 822 b 107 796 149 822 124 811 l 192 975 l 178 975 l 104 817 b 79 728 88 782 79 758 b 176 632 79 669 118 632 b 274 728 235 632 274 669 b 178 822 274 785 236 822 z "},"“":{"ha":604,"x_min":0,"x_max":0,"o":"m 178 822 b 107 796 149 822 124 811 l 192 975 l 178 975 l 104 817 b 79 728 88 782 79 758 b 176 632 79 669 118 632 b 274 728 235 632 274 669 b 178 822 274 785 236 822 z m 432 822 b 361 796 403 822 378 811 l 446 975 l 432 975 l 358 817 b 333 728 342 782 333 758 b 431 632 333 669 372 632 b 528 728 489 632 528 669 b 432 822 528 785 490 822 z "},"’":{"ha":350,"x_min":0,"x_max":0,"o":"m 172 788 b 243 814 201 788 226 799 l 158 635 l 172 635 l 246 793 b 271 882 263 828 271 851 b 174 978 271 940 232 978 b 76 882 115 978 76 940 b 172 788 76 825 114 788 z "},"”":{"ha":604,"x_min":0,"x_max":0,"o":"m 172 788 b 243 814 201 788 226 799 l 158 635 l 172 635 l 246 793 b 271 882 263 828 271 851 b 174 978 271 940 232 978 b 76 882 115 978 76 940 b 172 788 76 825 114 788 z m 426 788 b 497 814 456 788 481 799 l 413 635 l 426 635 l 500 793 b 525 882 517 828 525 851 b 428 978 525 940 486 978 b 331 882 369 978 331 940 b 426 788 331 825 368 788 z "},"'":{"ha":310,"x_min":0,"x_max":0,"o":"m 160 607 l 160 654 b 232 719 160 708 186 717 l 232 972 l 76 972 l 76 719 b 149 654 125 717 149 708 l 149 607 z "},"\"":{"ha":550,"x_min":0,"x_max":0,"o":"m 157 607 l 157 654 b 225 719 157 708 181 717 l 225 972 l 76 972 l 76 719 b 146 654 122 717 146 708 l 146 607 z m 404 607 l 404 654 b 474 719 404 708 429 717 l 474 972 l 325 972 l 325 719 b 393 654 371 717 393 708 l 393 607 z "},"•":{"ha":442,"x_min":0,"x_max":0,"o":"m 222 376 b 358 514 301 376 358 433 b 222 650 358 592 301 650 b 83 514 142 650 83 592 b 222 376 83 433 142 376 z "},"&":{"ha":967,"x_min":0,"x_max":0,"o":"m 822 701 b 465 988 822 874 724 988 b 97 717 226 988 97 882 b 394 490 97 564 199 504 b 74 236 200 482 74 404 b 351 -15 74 69 176 -15 b 649 247 497 -15 614 57 l 649 100 b 749 0 649 35 683 0 l 946 0 l 946 15 l 856 15 b 822 47 832 15 822 22 l 822 483 l 946 483 l 946 499 l 822 499 l 822 636 l 814 636 b 607 499 792 543 711 499 l 450 499 b 272 643 342 499 272 542 l 272 701 b 465 847 272 794 336 847 b 650 701 593 847 650 794 z m 439 97 b 263 247 328 97 263 150 l 263 325 b 450 483 263 428 331 483 l 646 483 l 646 332 b 439 97 646 140 557 97 z "},"¶":{"ha":774,"x_min":0,"x_max":0,"o":"m 424 0 l 424 935 b 444 956 424 947 432 956 l 596 956 b 617 935 608 956 617 947 l 617 0 l 635 0 l 635 935 b 656 956 635 947 643 956 l 739 956 l 739 972 l 318 972 b 63 721 167 972 63 874 b 318 482 63 578 167 482 l 406 482 l 406 0 z "},"†":{"ha":594,"x_min":0,"x_max":0,"o":"m 40 721 l 40 704 l 186 704 b 207 683 203 704 207 690 l 207 157 l 297 -28 l 388 157 l 388 683 b 408 704 388 690 392 704 l 553 704 l 553 721 l 408 721 b 388 742 392 721 388 733 l 388 972 l 207 972 l 207 742 b 186 721 207 733 203 721 z "},"‡":{"ha":594,"x_min":0,"x_max":0,"o":"m 40 486 l 40 469 l 186 469 b 207 449 203 469 207 456 l 207 157 l 297 -28 l 388 157 l 388 449 b 408 469 388 456 392 469 l 553 469 l 553 486 l 408 486 b 388 507 392 486 388 499 l 388 683 b 408 704 388 690 392 704 l 553 704 l 553 721 l 408 721 b 388 742 392 721 388 733 l 388 972 l 207 972 l 207 742 b 186 721 207 733 203 721 l 40 721 l 40 704 l 186 704 b 207 683 203 704 207 690 l 207 507 b 186 486 207 499 203 486 z "},"*":{"ha":744,"x_min":0,"x_max":0,"o":"m 606 488 l 471 625 b 406 642 442 606 431 607 l 381 678 l 422 690 b 485 667 463 704 472 697 l 674 697 l 628 843 l 456 757 b 419 700 464 722 460 713 l 378 686 l 378 731 b 419 782 378 772 386 779 l 449 972 l 296 972 l 325 782 b 367 731 360 779 367 772 l 367 686 l 325 700 b 289 757 285 713 282 724 l 118 843 l 71 697 l 260 667 b 322 690 274 699 282 704 l 364 678 l 339 642 b 274 625 314 607 303 607 l 139 488 l 263 399 l 350 569 b 347 636 324 592 322 601 l 372 671 l 399 636 b 394 569 424 601 419 590 l 482 399 z "},"™":{"ha":1276,"x_min":0,"x_max":0,"o":"m 615 472 l 715 472 l 715 889 b 726 901 715 897 719 901 b 740 889 733 901 736 897 l 874 642 l 896 642 l 1031 894 b 1043 904 1033 900 1036 904 b 1054 893 1050 904 1054 900 l 1054 472 l 1156 472 l 1156 972 l 1053 972 l 894 674 b 885 665 892 667 889 665 b 875 674 881 665 879 667 l 717 972 l 615 972 z m 249 472 l 353 472 l 353 881 l 528 881 l 528 972 l 74 972 l 74 881 l 249 881 z "},"®":{"ha":989,"x_min":0,"x_max":0,"o":"m 906 663 b 494 1064 906 894 732 1064 b 85 663 258 1064 85 894 b 494 260 85 431 258 260 b 906 663 732 260 906 431 z m 883 663 b 494 281 883 442 719 281 b 106 663 269 281 106 442 b 494 1044 106 883 269 1044 b 883 663 719 1044 883 883 z m 311 429 l 413 429 l 413 644 l 476 644 b 506 626 494 644 497 640 l 615 429 l 722 429 l 597 647 b 711 772 672 657 711 699 b 557 914 711 864 658 914 l 311 914 z m 553 832 b 607 781 586 832 607 813 l 607 707 b 553 657 607 676 586 657 l 413 657 l 413 832 z "},"©":{"ha":1257,"x_min":0,"x_max":0,"o":"m 1167 521 b 628 1057 1167 831 939 1057 b 90 521 318 1057 90 831 b 628 -15 90 211 318 -15 b 1167 521 939 -15 1167 211 z m 1143 521 b 628 6 1143 224 925 6 b 113 521 331 6 113 224 b 628 1036 113 818 331 1036 b 1143 521 925 1036 1143 818 z m 776 438 l 776 424 b 633 293 776 332 724 293 b 469 460 528 293 469 351 l 469 581 b 633 742 469 686 535 742 b 776 615 725 742 776 690 l 776 597 l 913 597 l 913 615 b 633 853 913 760 814 853 b 326 518 436 853 326 738 b 633 181 326 292 432 181 b 913 424 814 181 913 278 l 913 438 z "},"@":{"ha":1411,"x_min":0,"x_max":0,"o":"m 440 508 l 583 508 l 589 532 b 743 632 604 601 656 632 b 872 513 844 632 885 588 l 871 501 b 654 410 854 436 813 426 b 382 194 447 389 382 317 b 574 28 382 89 458 28 b 813 174 675 28 760 69 b 974 28 803 64 876 28 b 1321 442 1174 28 1321 188 b 724 986 1321 769 1082 986 b 90 346 343 986 90 732 b 718 -244 90 -10 340 -244 b 1064 -179 843 -244 979 -217 l 1056 -160 b 718 -221 979 -194 846 -221 b 115 346 356 -221 115 4 b 724 964 115 718 357 964 b 1296 442 1067 964 1296 757 b 1038 71 1296 213 1182 71 b 961 164 972 71 953 110 l 1017 489 b 753 743 1043 643 940 743 b 443 532 572 743 463 665 z m 540 214 l 551 276 b 713 400 563 349 590 385 b 861 453 792 410 836 422 l 831 279 b 644 89 793 108 711 89 b 540 214 574 89 526 131 z "},"ª":{"ha":574,"x_min":0,"x_max":0,"o":"m 76 821 l 182 821 l 182 835 b 286 906 182 882 219 906 b 386 828 356 906 386 876 l 386 826 b 254 747 386 781 365 761 b 67 606 113 729 67 688 b 211 476 67 513 124 476 b 386 608 288 476 361 517 l 386 488 l 497 488 l 497 817 b 289 988 497 931 426 988 b 76 835 156 988 76 932 z m 182 610 l 182 651 b 288 740 182 708 224 725 b 386 786 340 751 372 761 l 386 681 b 263 536 386 556 319 536 b 182 610 210 536 182 560 z "},"º":{"ha":618,"x_min":0,"x_max":0,"o":"m 310 988 b 68 732 158 988 68 894 b 310 476 68 565 158 476 b 550 732 460 476 550 569 b 310 988 550 899 460 988 z m 310 563 b 186 682 231 563 186 608 l 186 781 b 310 903 186 856 231 903 b 432 781 388 903 432 856 l 432 682 b 310 563 432 608 388 563 z "},"#":{"ha":990,"x_min":0,"x_max":0,"o":"m 233 0 l 249 0 l 303 233 l 568 233 l 514 0 l 529 0 l 583 233 l 803 233 l 803 365 l 613 365 l 671 614 l 872 614 l 872 744 l 700 744 l 753 972 l 738 972 l 685 744 l 419 744 l 472 972 l 457 972 l 404 744 l 188 744 l 188 614 l 375 614 l 317 365 l 118 365 l 118 233 l 288 233 z m 332 365 l 390 614 l 656 614 l 597 365 z "},"€":{"ha":976,"x_min":0,"x_max":0,"o":"m 25 408 l 139 408 b 554 -15 158 121 296 -15 b 908 317 813 -15 908 136 l 908 350 l 893 350 l 893 315 b 610 92 893 171 804 92 b 329 379 407 92 329 196 l 329 388 b 350 408 329 401 336 408 l 674 408 l 674 425 l 350 425 b 329 446 336 425 329 432 l 329 546 b 350 567 329 560 336 567 l 725 567 l 725 583 l 350 583 b 329 604 336 583 329 590 l 329 617 b 610 881 329 781 422 881 b 886 656 804 881 886 785 l 886 629 l 901 629 l 901 656 b 554 988 901 850 792 988 b 140 583 303 988 165 853 l 25 583 l 25 567 l 139 567 b 136 486 138 542 136 514 b 138 425 136 465 136 444 l 25 425 z "},"$":{"ha":943,"x_min":0,"x_max":0,"o":"m 479 -125 l 479 -15 b 875 264 715 -15 875 82 b 614 493 875 400 808 472 l 479 506 l 479 846 b 669 690 610 842 669 790 l 669 635 l 853 635 l 853 686 b 479 988 853 885 724 983 l 479 1097 l 464 1097 l 464 988 b 79 718 214 988 79 878 b 346 500 79 574 157 522 l 464 489 l 464 126 b 256 286 318 126 256 178 l 256 343 l 68 343 l 68 289 b 464 -15 68 86 211 -14 l 464 -125 z m 431 510 b 267 644 319 522 267 558 l 267 700 b 464 846 267 797 324 846 l 464 507 z m 533 482 b 685 339 647 468 685 422 l 685 274 b 479 126 685 181 628 128 l 479 488 z "},"¥":{"ha":819,"x_min":0,"x_max":0,"o":"m 110 233 l 335 233 l 335 0 l 515 0 l 515 233 l 740 233 l 740 250 l 515 250 l 515 389 l 740 389 l 740 406 l 515 406 b 532 472 515 433 517 446 l 807 972 l 786 972 l 519 485 b 504 472 514 475 510 472 b 489 485 497 472 496 474 l 221 972 l 13 972 l 331 406 l 110 406 l 110 389 l 335 389 l 335 250 l 110 250 z "},"£":{"ha":908,"x_min":0,"x_max":0,"o":"m 54 460 l 163 460 l 163 142 l 50 6 l 50 0 l 836 0 l 836 158 l 338 158 l 338 439 b 358 460 338 453 344 460 l 668 460 l 668 476 l 358 476 b 338 497 344 476 338 483 l 338 669 b 571 869 338 801 431 869 b 804 681 708 869 804 796 l 804 649 l 819 649 l 819 690 b 507 988 819 869 722 988 b 163 669 313 988 163 874 l 163 476 l 54 476 z "},"₴":{"ha":931,"x_min":0,"x_max":0,"o":"m 483 988 b 154 700 279 988 154 885 l 154 663 l 169 663 l 169 694 b 418 879 169 815 282 879 b 632 718 558 879 632 822 b 528 576 632 657 603 613 l 58 576 l 58 560 l 496 560 b 453 539 482 553 467 546 l 351 496 b 222 421 303 474 258 450 l 58 421 l 58 404 l 204 404 b 136 240 161 364 136 313 b 471 -15 136 75 268 -15 b 811 276 688 -15 811 79 l 811 318 l 796 318 l 796 282 b 542 93 796 163 696 93 b 317 251 389 93 317 147 b 432 404 317 319 353 364 l 900 404 l 900 421 l 464 421 b 518 446 482 429 499 438 l 644 503 b 738 560 679 519 710 538 l 900 560 l 900 576 l 756 576 b 813 724 792 614 813 661 b 483 988 813 890 681 988 z "},"₸":{"ha":904,"x_min":0,"x_max":0,"o":"m 67 956 l 838 956 l 838 972 l 67 972 z m 363 0 l 543 0 l 543 676 l 838 676 l 838 824 l 67 824 l 67 676 l 363 676 z "},"₽":{"ha":935,"x_min":0,"x_max":0,"o":"m 128 0 l 308 0 l 308 194 l 607 194 l 607 211 l 308 211 l 308 356 l 563 356 b 868 649 754 356 868 447 b 575 972 868 844 757 972 l 128 972 l 128 372 l 0 372 l 0 356 l 128 356 l 128 211 l -1 211 l -1 194 l 128 194 z m 536 829 b 685 679 635 829 685 772 l 685 521 b 532 372 685 424 636 372 l 308 372 l 308 829 z "},"ƒ":{"ha":493,"x_min":0,"x_max":0,"o":"m -4 738 l 146 738 l 146 -236 b 117 -264 146 -254 136 -264 l -4 -264 l -4 -278 l 188 -278 b 311 -154 267 -278 311 -236 l 311 717 b 332 738 311 731 318 738 l 488 738 l 488 751 l 332 751 b 311 772 318 751 311 758 l 311 1000 b 340 1028 311 1018 321 1028 l 488 1028 l 488 1042 l 269 1042 b 146 918 190 1042 146 1000 l 146 751 l -4 751 z "},"¢":{"ha":799,"x_min":0,"x_max":0,"o":"m 419 -119 l 419 -15 b 744 268 615 -15 744 76 l 744 288 l 585 288 l 585 264 b 419 110 585 167 525 111 l 419 642 b 585 481 525 642 585 585 l 585 463 l 744 463 l 744 476 b 419 767 744 671 607 765 l 419 868 l 404 868 l 404 767 b 53 374 179 763 53 626 b 404 -15 53 121 172 -11 l 404 -119 z m 226 301 l 226 447 b 404 642 226 567 290 638 l 404 110 b 226 301 292 114 226 183 z "},"¤":{"ha":646,"x_min":0,"x_max":0,"o":"m 322 269 b 474 322 383 269 436 289 l 564 232 l 575 242 l 483 333 b 540 482 519 371 540 422 b 485 628 540 540 521 592 l 576 718 l 565 729 l 475 639 b 322 692 438 672 385 692 b 171 639 260 692 208 672 l 81 728 l 69 718 l 160 628 b 104 482 124 592 104 540 b 161 333 104 422 125 371 l 71 243 l 82 232 l 172 322 b 322 269 210 289 261 269 z m 322 678 b 486 574 413 678 486 635 l 486 392 b 322 283 486 328 413 283 b 158 392 232 283 158 328 l 158 574 b 322 678 158 635 232 678 z "},"°":{"ha":603,"x_min":0,"x_max":0,"o":"m 301 539 b 528 764 431 539 528 636 b 301 986 528 892 431 986 b 75 764 172 986 75 892 b 301 539 75 636 172 539 z m 301 557 b 96 764 185 557 96 646 b 301 968 96 882 185 968 b 507 764 419 968 507 882 b 301 557 507 646 419 557 z "},"%":{"ha":1142,"x_min":0,"x_max":0,"o":"m 294 549 b 521 769 422 549 521 650 b 294 988 521 888 422 988 b 69 769 167 988 69 888 b 294 549 69 650 167 549 z m 294 974 b 444 879 374 974 444 931 l 444 660 b 294 563 444 606 374 563 b 146 660 215 563 146 606 l 146 879 b 294 974 146 931 215 974 z m 232 0 l 253 0 l 908 972 l 888 972 z m 847 -15 b 1072 206 975 -15 1072 86 b 847 422 1072 324 975 422 b 621 206 719 422 621 324 b 847 -15 621 86 719 -15 z m 847 408 b 996 315 926 408 996 367 l 996 96 b 847 -1 996 42 926 -1 b 697 96 768 -1 697 42 l 697 315 b 847 408 697 367 768 408 z "},"+":{"ha":764,"x_min":0,"x_max":0,"o":"m 390 206 l 390 524 l 694 524 l 694 540 l 390 540 l 390 858 l 374 858 l 374 540 l 69 540 l 69 524 l 374 524 l 374 206 z "},"−":{"ha":764,"x_min":0,"x_max":0,"o":"m 69 524 l 694 524 l 694 540 l 69 540 z "},"×":{"ha":764,"x_min":0,"x_max":0,"o":"m 147 286 l 382 521 l 626 275 l 639 288 l 394 533 l 628 767 l 617 778 l 383 544 l 138 789 l 125 776 l 371 532 l 136 297 z "},"÷":{"ha":764,"x_min":0,"x_max":0,"o":"m 382 692 b 461 769 428 692 461 725 b 382 849 461 815 428 849 b 304 769 338 849 304 815 b 382 692 304 725 338 692 z m 69 524 l 694 524 l 694 540 l 69 540 z m 382 215 b 461 293 428 215 461 249 b 382 372 461 339 428 372 b 304 293 338 372 304 339 b 382 215 304 249 338 215 z "},"=":{"ha":764,"x_min":0,"x_max":0,"o":"m 83 690 l 681 690 l 681 707 l 83 707 z m 83 357 l 681 357 l 681 374 l 83 374 z "},"¬":{"ha":764,"x_min":0,"x_max":0,"o":"m 75 649 l 656 649 l 656 358 l 672 358 l 672 665 l 75 665 z "},"~":{"ha":694,"x_min":0,"x_max":0,"o":"m 192 589 b 503 393 321 589 361 393 b 636 546 583 393 636 454 l 636 600 l 618 600 l 618 546 b 503 411 618 465 572 411 b 192 607 374 411 331 607 b 58 468 111 607 58 551 l 58 400 l 76 400 l 76 468 b 192 589 76 540 122 589 z "},"<":{"ha":764,"x_min":0,"x_max":0,"o":"m 639 271 l 639 290 l 142 532 l 639 774 l 639 793 l 125 543 l 125 521 z "},">":{"ha":764,"x_min":0,"x_max":0,"o":"m 125 271 l 639 521 l 639 543 l 125 793 l 125 774 l 622 532 l 125 290 z "},"±":{"ha":764,"x_min":0,"x_max":0,"o":"m 390 322 l 390 585 l 667 585 l 667 601 l 390 601 l 390 864 l 374 864 l 374 601 l 97 601 l 97 585 l 374 585 l 374 322 z m 97 224 l 667 224 l 667 240 l 97 240 z "},"^":{"ha":764,"x_min":0,"x_max":0,"o":"m 138 458 l 382 956 l 626 458 l 646 458 l 393 972 l 371 972 l 118 458 z "},"≠":{"ha":764,"x_min":0,"x_max":0,"o":"m 251 206 l 315 357 l 681 357 l 681 374 l 322 374 l 458 690 l 681 690 l 681 707 l 465 707 l 529 858 l 511 858 l 447 707 l 83 707 l 83 690 l 440 690 l 304 374 l 83 374 l 83 357 l 297 357 l 233 206 z "},"≈":{"ha":764,"x_min":0,"x_max":0,"o":"m 226 740 b 538 544 356 740 396 544 b 671 697 618 544 671 606 l 671 751 l 653 751 l 653 697 b 538 563 653 617 607 563 b 226 758 408 563 365 758 b 93 619 146 758 93 703 l 93 551 l 111 551 l 111 619 b 226 740 111 692 157 740 z m 226 486 b 538 290 356 486 396 290 b 671 443 618 290 671 351 l 671 497 l 653 497 l 653 443 b 538 308 653 363 607 308 b 226 504 408 308 365 504 b 93 365 146 504 93 449 l 93 297 l 111 297 l 111 365 b 226 486 111 438 157 486 z "},"≤":{"ha":764,"x_min":0,"x_max":0,"o":"m 639 319 l 639 339 l 142 581 l 639 822 l 639 842 l 125 592 l 125 569 z m 125 225 l 639 225 l 639 242 l 125 242 z "},"≥":{"ha":764,"x_min":0,"x_max":0,"o":"m 125 319 l 639 569 l 639 592 l 125 842 l 125 822 l 622 581 l 125 339 z m 639 225 l 639 242 l 125 242 l 125 225 z "},"←":{"ha":972,"x_min":0,"x_max":0,"o":"m 519 860 l 358 860 l 64 496 l 353 132 l 515 132 l 251 464 b 246 476 247 469 246 472 b 261 489 246 483 250 489 l 386 489 b 414 476 399 489 406 485 l 456 426 l 929 426 l 929 564 l 457 564 l 414 514 b 386 503 406 506 397 503 l 258 503 b 244 515 249 503 244 508 b 250 528 244 519 246 522 z "},"↑":{"ha":865,"x_min":0,"x_max":0,"o":"m 68 497 l 400 768 b 413 774 406 772 408 774 b 425 758 419 774 425 769 l 425 626 b 414 600 425 617 422 608 l 364 557 l 364 54 l 501 54 l 501 558 l 451 600 b 439 626 443 608 439 615 l 439 758 b 451 774 439 768 444 774 b 464 768 456 774 458 772 l 796 501 l 796 658 l 432 950 l 68 654 z "},"→":{"ha":972,"x_min":0,"x_max":0,"o":"m 457 132 l 617 132 l 908 496 l 614 860 l 451 860 l 719 528 b 725 515 724 524 725 519 b 711 503 725 508 721 503 l 585 503 b 558 514 574 503 565 506 l 515 564 l 43 564 l 43 426 l 517 426 l 558 476 b 585 489 567 485 574 489 l 713 489 b 728 476 722 489 728 483 b 722 464 728 472 726 468 z "},"↓":{"ha":865,"x_min":0,"x_max":0,"o":"m 68 456 l 68 299 l 432 3 l 796 294 l 796 451 l 464 185 b 451 179 458 181 456 179 b 439 194 444 179 439 185 l 439 325 b 451 353 439 338 443 344 l 501 394 l 501 899 l 364 899 l 364 396 l 414 353 b 425 325 422 344 425 336 l 425 194 b 413 179 425 183 419 179 b 400 185 408 179 406 181 z "},"℮":{"ha":1097,"x_min":0,"x_max":0,"o":"m 1003 382 l 1003 393 b 549 803 1003 619 800 803 b 94 393 297 803 94 619 b 549 -14 94 167 297 -14 b 908 143 696 -14 826 49 l 843 143 b 550 10 771 61 668 10 b 271 129 440 10 342 56 b 261 156 265 136 261 144 l 261 378 b 267 382 261 381 264 382 z m 836 411 b 832 404 836 408 835 404 l 267 404 b 261 411 264 404 261 408 l 261 631 b 272 658 261 642 265 651 b 550 779 343 732 442 779 b 825 663 658 779 754 733 b 836 635 832 656 836 646 z "},"А":{"ha":932,"x_min":0,"x_max":0,"o":"m 735 0 l 918 0 l 599 972 l 333 972 l 14 0 l 188 0 l 285 294 b 307 313 288 307 294 313 l 618 313 b 638 297 628 313 635 307 z m 301 349 l 463 836 l 622 347 b 610 329 625 336 621 329 l 314 329 b 301 349 303 329 297 338 z "},"Б":{"ha":921,"x_min":0,"x_max":0,"o":"m 128 0 l 567 0 b 869 281 768 0 869 110 b 579 539 869 443 769 539 l 325 539 b 304 560 308 539 304 551 l 304 815 l 806 815 l 806 972 l 128 972 z m 304 501 b 325 522 304 508 308 522 l 532 522 b 686 378 633 522 686 469 l 686 276 b 538 140 686 190 632 140 l 304 140 z "},"В":{"ha":958,"x_min":0,"x_max":0,"o":"m 128 0 l 590 0 b 900 264 778 0 900 92 b 613 504 900 403 825 493 b 867 724 804 517 867 607 b 590 972 867 885 765 972 l 128 972 z m 304 533 l 304 839 l 549 839 b 690 714 636 839 690 792 l 690 647 b 540 513 690 563 647 513 l 325 513 b 304 533 308 513 304 525 z m 304 475 b 325 496 304 482 308 496 l 542 496 b 714 349 631 496 714 460 l 714 275 b 561 140 714 190 660 140 l 304 140 z "},"Г":{"ha":801,"x_min":0,"x_max":0,"o":"m 128 0 l 304 0 l 304 815 l 768 815 l 768 972 l 128 972 z "},"Д":{"ha":1036,"x_min":0,"x_max":0,"o":"m 28 157 l 28 -278 l 46 -278 l 46 -62 b 108 0 46 -24 69 0 l 928 0 b 990 -62 967 0 990 -24 l 990 -278 l 1008 -278 l 1008 157 l 904 157 l 644 972 l 394 972 l 131 157 z m 294 157 l 517 856 l 736 157 z "},"Е":{"ha":849,"x_min":0,"x_max":0,"o":"m 128 0 l 789 0 l 789 157 l 308 157 l 308 475 b 329 496 308 482 313 496 l 756 496 l 756 513 l 329 513 b 308 533 313 513 308 525 l 308 815 l 775 815 l 775 972 l 128 972 z "},"Ё":{"ha":849,"x_min":0,"x_max":0,"o":"m 353 1047 b 431 1124 400 1047 431 1078 b 353 1201 431 1172 400 1201 b 275 1124 306 1201 275 1172 b 353 1047 275 1078 306 1047 z m 586 1047 b 664 1124 633 1047 664 1078 b 586 1201 664 1172 633 1201 b 508 1124 540 1201 508 1172 b 586 1047 508 1078 540 1047 z m 128 0 l 789 0 l 789 157 l 308 157 l 308 475 b 329 496 308 482 313 496 l 756 496 l 756 513 l 329 513 b 308 533 313 513 308 525 l 308 815 l 775 815 l 775 972 l 128 972 z "},"Ж":{"ha":1354,"x_min":0,"x_max":0,"o":"m 589 0 l 765 0 l 765 485 b 782 501 765 490 768 501 l 856 501 l 1147 0 l 1338 0 l 1032 513 l 1338 972 l 1149 972 l 856 518 l 782 518 b 765 536 768 518 765 529 l 765 972 l 589 972 l 589 536 b 571 518 589 529 586 518 l 499 518 l 206 972 l 17 972 l 324 506 l 21 0 l 206 0 l 499 501 l 571 501 b 589 485 586 501 589 490 z "},"З":{"ha":904,"x_min":0,"x_max":0,"o":"m 838 267 b 567 503 838 444 697 490 b 821 713 711 511 821 578 b 456 988 821 885 688 988 b 75 678 219 988 75 865 l 75 647 l 243 647 l 243 674 b 456 850 243 783 322 850 b 647 690 574 850 647 794 l 647 646 b 492 513 647 554 585 513 l 325 513 l 325 494 l 492 494 b 660 336 600 494 660 449 l 660 286 b 444 121 660 182 589 121 b 233 290 315 121 233 174 l 233 317 l 61 317 l 61 288 b 442 -15 61 89 200 -15 b 838 267 685 -15 838 81 z "},"И":{"ha":1032,"x_min":0,"x_max":0,"o":"m 667 972 l 183 297 b 161 281 172 282 169 281 b 146 299 153 281 146 286 l 146 972 l 128 972 l 128 -25 l 142 -25 l 736 803 l 736 0 l 904 0 l 904 972 z "},"Й":{"ha":1032,"x_min":0,"x_max":0,"o":"m 508 1029 b 732 1190 663 1029 732 1090 l 615 1190 l 615 1126 b 508 1042 615 1075 596 1042 b 401 1126 421 1042 401 1075 l 401 1190 l 285 1190 b 508 1029 285 1090 354 1029 z m 667 972 l 183 297 b 161 281 172 282 169 281 b 146 299 153 281 146 286 l 146 972 l 128 972 l 128 -25 l 142 -25 l 736 803 l 736 0 l 904 0 l 904 972 z "},"К":{"ha":954,"x_min":0,"x_max":0,"o":"m 128 0 l 304 0 l 304 485 b 322 503 304 490 308 503 l 429 503 l 750 0 l 940 0 l 610 515 l 942 972 l 751 972 l 429 519 l 322 519 b 304 538 308 519 304 531 l 304 972 l 128 972 z "},"Л":{"ha":926,"x_min":0,"x_max":0,"o":"m 460 836 l 731 0 l 913 0 l 596 972 l 331 972 l 14 0 l 188 0 z "},"М":{"ha":1333,"x_min":0,"x_max":0,"o":"m 294 0 l 294 804 l 653 -15 l 667 -15 l 1025 932 l 1025 0 l 1206 0 l 1206 972 l 1021 972 l 756 271 b 736 253 751 260 747 253 b 717 272 726 253 722 260 l 410 972 l 129 972 l 129 0 z "},"Н":{"ha":1068,"x_min":0,"x_max":0,"o":"m 128 0 l 308 0 l 308 475 b 329 496 308 482 313 496 l 739 496 b 760 475 756 496 760 482 l 760 0 l 940 0 l 940 972 l 760 972 l 760 533 b 739 513 760 525 756 513 l 329 513 b 308 533 313 513 308 525 l 308 972 l 128 972 z "},"О":{"ha":1064,"x_min":0,"x_max":0,"o":"m 532 -15 b 988 486 824 -15 988 158 b 532 988 988 818 825 988 b 76 486 239 988 76 814 b 532 -15 76 154 239 -15 z m 532 843 b 801 569 693 843 801 747 l 801 408 b 532 129 801 226 697 129 b 263 408 365 129 263 226 l 263 569 b 532 843 263 747 371 843 z "},"П":{"ha":1043,"x_min":0,"x_max":0,"o":"m 128 0 l 306 0 l 306 815 l 736 815 l 736 0 l 914 0 l 914 972 l 128 972 z "},"Р":{"ha":935,"x_min":0,"x_max":0,"o":"m 128 0 l 308 0 l 308 335 b 329 356 308 342 313 356 l 576 356 b 883 649 768 356 883 449 b 589 972 883 844 772 972 l 128 972 z m 550 829 b 699 679 649 829 699 772 l 699 521 b 547 372 699 424 651 372 l 329 372 b 308 393 313 372 308 385 l 308 829 z "},"С":{"ha":1014,"x_min":0,"x_max":0,"o":"m 758 365 l 758 344 b 529 129 758 197 672 129 b 267 408 361 129 267 228 l 267 569 b 529 843 267 747 369 843 b 758 632 675 843 758 758 l 758 607 l 938 607 l 938 632 b 529 988 938 847 792 988 b 76 486 236 988 76 814 b 529 -15 76 149 233 -15 b 938 344 792 -15 938 128 l 938 365 z "},"Т":{"ha":863,"x_min":0,"x_max":0,"o":"m 342 0 l 522 0 l 522 815 l 832 815 l 832 972 l 31 972 l 31 815 l 342 815 z "},"У":{"ha":876,"x_min":0,"x_max":0,"o":"m 843 972 l 563 376 b 531 376 554 360 539 360 l 222 972 l 13 972 l 451 147 l 365 -35 l 385 -35 l 863 972 z "},"Ф":{"ha":1244,"x_min":0,"x_max":0,"o":"m 536 -15 l 708 -15 l 708 110 l 779 110 b 1175 510 1049 110 1175 267 b 782 888 1175 757 1032 888 l 725 888 b 708 906 714 888 708 896 l 708 988 l 536 988 l 536 906 b 519 888 536 896 531 888 l 463 888 b 69 510 213 888 69 757 b 465 110 69 267 196 110 l 536 110 z m 536 854 l 536 251 l 465 251 b 254 442 339 251 254 329 l 254 675 b 463 871 254 808 319 871 l 519 871 b 536 854 531 871 536 864 z m 708 854 b 725 871 708 864 714 871 l 782 871 b 990 675 925 871 990 808 l 990 442 b 779 251 990 329 906 251 l 708 251 z "},"Х":{"ha":818,"x_min":0,"x_max":0,"o":"m 806 0 l 500 506 b 501 543 492 518 493 531 l 779 972 l 758 972 l 494 564 b 479 553 489 556 488 553 b 465 565 474 553 471 556 l 219 972 l 18 972 l 310 486 b 308 446 318 471 317 460 l 24 0 l 44 0 l 318 428 b 332 439 324 438 326 439 b 346 426 339 439 340 436 l 604 0 z "},"Ц":{"ha":1053,"x_min":0,"x_max":0,"o":"m 128 972 l 128 0 l 944 0 b 1007 -62 983 0 1007 -24 l 1007 -278 l 1025 -278 l 1025 157 l 910 157 l 910 972 l 729 972 l 729 157 l 308 157 l 308 972 z "},"Ч":{"ha":975,"x_min":0,"x_max":0,"o":"m 89 972 l 89 589 b 372 336 89 404 183 336 b 667 500 543 336 640 401 l 667 0 l 847 0 l 847 972 l 667 972 l 667 547 b 457 447 667 483 601 447 b 271 599 326 447 271 492 l 271 972 z "},"Ш":{"ha":1304,"x_min":0,"x_max":0,"o":"m 682 157 b 661 178 675 157 661 161 l 661 972 l 643 972 l 643 178 b 622 157 643 161 631 157 l 308 157 l 308 972 l 128 972 l 128 0 l 1176 0 l 1176 972 l 996 972 l 996 157 z "},"Щ":{"ha":1318,"x_min":0,"x_max":0,"o":"m 682 157 b 661 178 675 157 661 161 l 661 972 l 643 972 l 643 178 b 622 157 643 161 631 157 l 308 157 l 308 972 l 128 972 l 128 0 l 1211 0 b 1274 -62 1250 0 1274 -24 l 1274 -278 l 1292 -278 l 1292 157 l 1176 157 l 1176 972 l 996 972 l 996 157 z "},"Ъ":{"ha":1089,"x_min":0,"x_max":0,"o":"m 299 0 l 738 0 b 1038 303 928 0 1038 121 b 722 594 1038 493 913 594 l 500 594 b 479 615 483 594 479 607 l 479 972 l 25 972 l 25 815 l 299 815 z m 479 557 b 500 578 479 564 483 578 l 703 578 b 853 431 803 578 853 528 l 853 285 b 703 143 853 199 796 143 l 479 143 z "},"Ы":{"ha":1297,"x_min":0,"x_max":0,"o":"m 989 1 l 1169 1 l 1169 974 l 989 974 z m 128 0 l 567 0 b 867 303 757 0 867 121 b 551 594 867 493 742 594 l 329 594 b 308 615 313 594 308 607 l 308 972 l 128 972 z m 308 557 b 329 578 308 564 313 578 l 532 578 b 682 431 632 578 682 528 l 682 285 b 532 143 682 199 625 143 l 308 143 z "},"Ь":{"ha":918,"x_min":0,"x_max":0,"o":"m 128 0 l 567 0 b 867 303 757 0 867 121 b 551 594 867 493 742 594 l 329 594 b 308 615 313 594 308 607 l 308 972 l 128 972 z m 308 557 b 329 578 308 564 313 578 l 532 578 b 682 431 632 578 682 528 l 682 285 b 532 143 682 199 625 143 l 308 143 z "},"Э":{"ha":1015,"x_min":0,"x_max":0,"o":"m 251 608 l 251 626 b 496 843 251 760 346 843 b 750 565 660 843 750 744 l 750 533 b 729 513 750 525 746 513 l 379 513 l 379 496 l 729 496 b 750 475 746 496 750 482 l 750 407 b 488 129 750 228 656 129 b 251 331 328 129 251 203 l 251 360 l 76 360 l 76 328 b 483 -15 76 121 214 -15 b 940 486 789 -15 940 163 b 496 988 940 817 793 988 b 76 633 235 988 76 843 l 76 608 z "},"Ю":{"ha":1478,"x_min":0,"x_max":0,"o":"m 128 0 l 308 0 l 308 475 b 329 496 308 482 313 496 l 490 496 l 490 486 b 946 -15 490 154 653 -15 b 1401 486 1238 -15 1401 158 b 946 988 1401 818 1239 988 b 490 513 661 988 499 824 l 329 513 b 308 533 313 513 308 525 l 308 972 l 128 972 z m 946 843 b 1215 569 1107 843 1215 747 l 1215 408 b 946 129 1215 226 1111 129 b 676 408 779 129 676 226 l 676 569 b 946 843 676 747 785 843 z "},"Я":{"ha":974,"x_min":0,"x_max":0,"o":"m 521 435 l 644 435 b 665 414 661 435 665 421 l 665 0 l 846 0 l 846 972 l 368 972 b 71 692 181 972 71 865 b 378 435 71 518 182 435 l 478 435 l 446 385 b 408 363 436 368 426 363 l 264 363 l 40 0 l 231 0 l 485 414 b 521 435 497 433 503 435 z m 644 451 l 401 451 b 253 586 300 451 253 500 l 253 697 b 397 831 253 779 303 831 l 665 831 l 665 472 b 644 451 665 464 661 451 z "},"Ѓ":{"ha":801,"x_min":0,"x_max":0,"o":"m 415 1024 l 426 1024 l 661 1182 l 661 1190 l 483 1190 z m 128 0 l 304 0 l 304 815 l 768 815 l 768 972 l 128 972 z "},"Ґ":{"ha":801,"x_min":0,"x_max":0,"o":"m 128 0 l 304 0 l 304 815 l 768 815 l 768 1153 l 749 1153 l 749 1035 b 686 972 749 996 725 972 l 128 972 z "},"Ђ":{"ha":1185,"x_min":0,"x_max":0,"o":"m 342 0 l 522 0 l 522 385 b 724 506 522 463 590 506 b 904 311 850 506 904 447 l 904 -222 b 863 -264 904 -251 890 -264 l 754 -264 l 754 -278 l 968 -278 b 1086 -161 1044 -278 1086 -242 l 1086 326 b 808 624 1086 536 989 624 b 522 440 663 624 550 556 l 522 815 l 832 815 l 832 972 l 31 972 l 31 815 l 342 815 z "},"Є":{"ha":1014,"x_min":0,"x_max":0,"o":"m 267 475 b 288 496 267 485 274 496 l 628 496 l 628 513 l 288 513 b 267 533 274 513 267 524 l 267 569 b 529 843 267 747 369 843 b 758 632 675 843 758 758 l 758 607 l 938 607 l 938 632 b 529 988 938 847 792 988 b 76 486 236 988 76 814 b 529 -15 76 149 233 -15 b 938 344 792 -15 938 128 l 938 365 l 758 365 l 758 344 b 529 129 758 197 672 129 b 267 408 361 129 267 228 z "},"Ѕ":{"ha":940,"x_min":0,"x_max":0,"o":"m 465 846 b 669 690 606 846 669 794 l 669 635 l 853 635 l 853 686 b 465 988 853 889 718 988 b 79 718 214 988 79 878 b 346 500 79 574 157 522 l 533 482 b 685 339 647 468 685 422 l 685 274 b 471 126 685 179 625 126 b 256 286 318 126 256 178 l 256 343 l 68 343 l 68 289 b 471 -15 68 85 214 -15 b 875 264 715 -15 875 82 b 614 493 875 400 808 472 l 431 510 b 267 644 319 522 267 558 l 267 700 b 465 846 267 797 324 846 z "},"Ѐ":{"ha":849,"x_min":0,"x_max":0,"o":"m 525 1024 l 457 1190 l 281 1190 l 281 1182 l 514 1024 z m 128 0 l 789 0 l 789 157 l 308 157 l 308 475 b 329 496 308 482 313 496 l 756 496 l 756 513 l 329 513 b 308 533 313 513 308 525 l 308 815 l 775 815 l 775 972 l 128 972 z "},"І":{"ha":436,"x_min":0,"x_max":0,"o":"m 128 0 l 308 0 l 308 972 l 128 972 z "},"Ї":{"ha":436,"x_min":0,"x_max":0,"o":"m 101 1047 b 179 1124 149 1047 179 1078 b 101 1201 179 1172 149 1201 b 24 1124 54 1201 24 1172 b 101 1047 24 1078 54 1047 z m 335 1047 b 413 1124 382 1047 413 1078 b 335 1201 413 1172 382 1201 b 257 1124 289 1201 257 1172 b 335 1047 257 1078 289 1047 z m 128 0 l 308 0 l 308 972 l 128 972 z "},"Ј":{"ha":888,"x_min":0,"x_max":0,"o":"m 774 299 l 774 972 l 158 972 l 158 956 l 575 956 b 596 935 590 956 596 949 l 596 289 b 422 126 596 179 533 126 b 242 279 308 126 242 175 l 242 378 l 69 378 l 69 275 b 421 -15 69 83 200 -15 b 774 299 649 -15 774 99 z "},"Ѝ":{"ha":1032,"x_min":0,"x_max":0,"o":"m 524 1024 l 456 1190 l 279 1190 l 279 1182 l 513 1024 z m 667 972 l 183 297 b 161 281 172 282 169 281 b 146 299 153 281 146 286 l 146 972 l 128 972 l 128 -25 l 142 -25 l 736 803 l 736 0 l 904 0 l 904 972 z "},"Ќ":{"ha":954,"x_min":0,"x_max":0,"o":"m 488 1024 l 499 1024 l 733 1182 l 733 1190 l 556 1190 z m 128 0 l 304 0 l 304 485 b 322 503 304 490 308 503 l 429 503 l 750 0 l 940 0 l 610 515 l 942 972 l 751 972 l 429 519 l 322 519 b 304 538 308 519 304 531 l 304 972 l 128 972 z "},"Љ":{"ha":1319,"x_min":0,"x_max":0,"o":"m 436 836 l 682 0 l 968 0 b 1269 303 1160 0 1269 121 b 953 594 1269 493 1144 594 l 686 594 l 572 972 l 307 972 l 14 0 l 188 0 z m 933 578 b 1085 431 1033 578 1085 528 l 1085 283 b 933 142 1085 197 1026 142 l 821 142 l 690 578 z "},"Њ":{"ha":1497,"x_min":0,"x_max":0,"o":"m 128 0 l 308 0 l 308 506 b 329 526 308 513 313 526 l 711 526 b 732 506 728 526 732 513 l 732 0 l 1147 0 b 1447 283 1339 0 1447 111 b 1131 547 1447 461 1318 547 l 933 547 b 913 568 917 547 913 560 l 913 972 l 732 972 l 732 564 b 711 543 732 556 728 543 l 329 543 b 308 564 313 543 308 556 l 308 972 l 128 972 z m 913 510 b 933 531 913 517 917 531 l 1113 531 b 1263 379 1213 531 1263 479 l 1263 285 b 1113 143 1263 197 1206 143 l 913 143 z "},"Ћ":{"ha":1186,"x_min":0,"x_max":0,"o":"m 342 0 l 522 0 l 522 385 b 725 506 522 463 590 506 b 906 311 851 506 906 447 l 906 0 l 1088 0 l 1088 326 b 810 624 1088 536 989 624 b 522 440 664 624 550 556 l 522 815 l 832 815 l 832 972 l 31 972 l 31 815 l 342 815 z "},"Ў":{"ha":876,"x_min":0,"x_max":0,"o":"m 510 1029 b 733 1190 664 1029 733 1090 l 617 1190 l 617 1126 b 510 1042 617 1075 597 1042 b 403 1126 422 1042 403 1075 l 403 1190 l 286 1190 b 510 1029 286 1090 356 1029 z m 843 972 l 563 376 b 531 376 554 360 539 360 l 222 972 l 13 972 l 451 147 l 365 -35 l 385 -35 l 863 972 z "},"Џ":{"ha":1038,"x_min":0,"x_max":0,"o":"m 529 -278 l 529 -62 b 592 0 529 -24 553 0 l 910 0 l 910 972 l 729 972 l 729 157 l 308 157 l 308 972 l 128 972 l 128 0 l 447 0 b 510 -62 486 0 510 -24 l 510 -278 z "},"Ѣ":{"ha":963,"x_min":0,"x_max":0,"o":"m 193 0 l 611 0 b 911 282 801 0 911 113 b 610 554 911 457 793 554 l 394 554 b 374 575 378 554 374 567 l 374 710 l 592 710 l 592 853 l 374 853 l 374 988 l 193 988 l 193 853 l 31 853 l 31 710 l 193 710 z m 374 517 b 394 538 374 524 378 538 l 576 538 b 726 390 676 538 726 488 l 726 283 b 576 142 726 197 669 142 l 374 142 z "},"Ѳ":{"ha":1064,"x_min":0,"x_max":0,"o":"m 532 -15 b 988 486 824 -15 988 158 b 532 988 988 818 825 988 b 76 486 239 988 76 814 b 532 -15 76 154 239 -15 z m 532 843 b 801 569 693 843 801 747 l 801 524 b 781 503 801 515 797 503 l 283 503 b 263 524 267 503 263 515 l 263 569 b 532 843 263 747 371 843 z m 263 465 b 283 486 263 472 267 486 l 781 486 b 801 465 797 486 801 472 l 801 408 b 532 129 801 226 697 129 b 263 408 365 129 263 226 z "},"Ѵ":{"ha":872,"x_min":0,"x_max":0,"o":"m 499 0 l 713 769 b 750 806 719 793 725 806 l 872 806 l 872 978 l 796 978 b 731 908 761 978 743 961 l 501 75 b 485 61 497 63 492 61 b 469 75 478 61 474 64 l 196 972 l 10 972 l 313 0 z "},"а":{"ha":797,"x_min":0,"x_max":0,"o":"m 74 510 l 229 510 l 229 531 b 389 647 229 608 285 647 b 544 528 496 647 544 603 l 544 525 b 340 397 544 451 511 418 b 60 181 126 369 60 304 b 274 -15 60 39 143 -15 b 544 192 396 -15 508 47 l 544 0 l 707 0 l 707 513 b 393 767 707 682 599 767 b 74 531 193 767 74 679 z m 228 188 l 228 250 b 393 388 228 338 293 365 b 544 467 475 407 524 424 l 544 293 b 354 69 544 99 443 69 b 228 188 271 69 228 106 z "},"б":{"ha":833,"x_min":0,"x_max":0,"o":"m 494 726 b 224 494 354 726 249 636 l 224 683 b 428 886 224 813 293 886 l 669 886 b 731 947 707 886 731 910 l 731 1064 l 717 1064 l 717 1051 b 697 1032 717 1038 711 1032 l 435 1022 b 65 617 203 1015 65 872 l 65 374 b 417 -15 65 119 196 -15 b 781 374 644 -15 781 126 b 494 726 781 611 671 726 z m 417 110 b 228 304 297 110 228 186 l 228 415 b 435 643 228 567 313 643 b 607 457 549 643 607 574 l 607 299 b 417 110 607 183 539 110 z "},"в":{"ha":786,"x_min":0,"x_max":0,"o":"m 103 0 l 503 0 b 742 200 651 0 742 81 b 515 386 742 308 688 378 b 718 563 664 399 718 467 b 499 751 718 681 633 751 l 103 751 z m 461 636 b 564 539 528 636 564 599 l 564 496 b 450 392 564 429 524 392 l 282 392 b 261 413 265 392 261 404 l 261 636 z m 261 357 b 282 378 261 364 265 378 l 453 378 b 578 276 536 378 578 340 l 578 225 b 465 122 578 160 536 122 l 261 122 z "},"г":{"ha":747,"x_min":0,"x_max":0,"o":"m 385 651 b 535 539 483 651 535 615 l 535 499 b 410 394 535 435 500 406 l 260 379 b 51 197 100 361 51 300 b 369 -15 51 56 156 -15 b 697 231 581 -15 697 67 l 697 257 l 539 257 l 539 225 b 369 99 539 142 479 99 b 213 214 265 99 213 138 l 213 263 b 342 374 213 332 249 363 l 492 389 b 693 556 638 406 693 450 b 382 767 693 693 582 767 b 64 528 176 767 64 686 l 64 501 l 222 501 l 222 529 b 385 651 222 607 275 651 z "},"д":{"ha":867,"x_min":0,"x_max":0,"o":"m 94 -42 l 94 -64 b 415 -293 94 -228 208 -293 b 764 -12 649 -293 764 -199 l 764 751 l 597 751 l 597 539 b 336 767 561 685 468 767 b 63 389 157 767 63 646 b 336 14 63 132 157 14 b 597 242 468 14 561 96 l 597 -18 b 415 -171 597 -126 542 -171 b 253 -64 304 -171 253 -135 l 253 -42 z m 240 293 l 240 485 b 406 681 240 624 301 681 b 597 390 528 681 597 601 b 406 99 597 176 528 99 b 240 293 301 99 240 157 z "},"е":{"ha":789,"x_min":0,"x_max":0,"o":"m 218 364 b 239 385 218 371 222 385 l 733 385 b 739 453 738 410 739 432 b 407 767 739 667 608 767 b 53 374 185 767 53 638 b 410 -15 53 107 176 -15 b 738 246 615 -15 738 86 l 738 261 l 583 261 l 583 242 b 410 110 583 157 519 110 b 218 301 285 110 218 171 z m 218 451 b 408 644 218 578 285 644 b 583 474 522 644 583 590 l 583 458 b 517 399 583 414 564 399 l 239 399 b 218 419 222 399 218 411 z "},"ё":{"ha":789,"x_min":0,"x_max":0,"o":"m 285 863 b 371 950 338 863 371 897 b 285 1035 371 1003 338 1035 b 197 950 232 1035 197 1003 b 285 863 197 897 232 863 z m 531 863 b 617 950 582 863 617 897 b 531 1035 617 1003 582 1035 b 443 950 478 1035 443 1003 b 531 863 443 897 478 863 z m 218 364 b 239 385 218 371 222 385 l 733 385 b 739 453 738 410 739 432 b 407 767 739 667 608 767 b 53 374 185 767 53 638 b 410 -15 53 107 176 -15 b 738 246 615 -15 738 86 l 738 261 l 583 261 l 583 242 b 410 110 583 157 519 110 b 218 301 285 110 218 171 z m 218 451 b 408 644 218 578 285 644 b 583 474 522 644 583 590 l 583 458 b 517 399 583 414 564 399 l 239 399 b 218 419 222 399 218 411 z "},"ж":{"ha":1097,"x_min":0,"x_max":0,"o":"m 471 0 l 626 0 l 626 383 b 638 394 626 386 629 394 l 692 394 l 907 0 l 1078 0 l 844 407 l 1075 751 l 908 751 l 692 408 l 638 408 b 626 419 629 408 626 415 l 626 751 l 471 751 l 471 419 b 460 408 471 415 468 408 l 404 408 l 189 751 l 22 751 l 253 400 l 19 0 l 183 0 l 404 394 l 460 394 b 471 383 468 394 471 386 z "},"з":{"ha":742,"x_min":0,"x_max":0,"o":"m 276 379 l 408 379 b 529 275 489 379 529 339 l 529 219 b 372 103 529 143 475 103 b 206 228 261 103 206 142 l 206 254 l 46 254 l 46 228 b 369 -17 46 60 161 -17 b 696 206 581 -17 696 67 b 442 386 696 328 615 385 b 679 554 601 386 679 449 b 379 767 679 690 572 767 b 56 524 169 767 56 674 l 56 501 l 211 501 l 211 524 b 374 647 211 600 264 647 b 521 532 469 647 521 611 l 521 490 b 408 393 521 428 482 393 l 276 393 z "},"и":{"ha":839,"x_min":0,"x_max":0,"o":"m 325 -15 b 569 192 439 -15 538 53 l 569 0 l 736 0 l 736 751 l 569 751 l 569 297 b 404 81 569 118 488 81 b 258 224 306 81 258 128 l 258 751 l 92 751 l 92 224 b 325 -15 92 50 188 -15 z "},"й":{"ha":839,"x_min":0,"x_max":0,"o":"m 422 836 b 646 997 576 836 646 897 l 529 997 l 529 933 b 422 849 529 882 510 849 b 315 933 335 849 315 882 l 315 997 l 199 997 b 422 836 199 897 268 836 z m 325 -15 b 569 192 439 -15 538 53 l 569 0 l 736 0 l 736 751 l 569 751 l 569 297 b 404 81 569 118 488 81 b 258 224 306 81 258 128 l 258 751 l 92 751 l 92 224 b 325 -15 92 50 188 -15 z "},"к":{"ha":793,"x_min":0,"x_max":0,"o":"m 103 0 l 269 0 l 269 381 b 283 394 269 388 274 394 l 360 394 l 599 0 l 781 0 l 526 407 l 778 751 l 600 751 l 360 408 l 283 408 b 269 422 274 408 269 414 l 269 751 l 103 751 z "},"л":{"ha":775,"x_min":0,"x_max":0,"o":"m 24 0 l 183 0 l 382 661 l 588 0 l 751 0 l 514 751 l 256 751 z "},"м":{"ha":1107,"x_min":0,"x_max":0,"o":"m 103 0 l 256 0 l 256 635 l 542 -12 l 557 -12 l 842 719 l 842 0 l 1004 0 l 1004 751 l 838 751 l 633 228 b 619 214 629 218 628 214 b 606 228 613 214 610 218 l 374 751 l 103 751 z "},"н":{"ha":854,"x_min":0,"x_max":0,"o":"m 103 0 l 269 0 l 269 371 b 290 392 269 378 274 392 l 564 392 b 585 371 581 392 585 378 l 585 0 l 750 0 l 750 751 l 585 751 l 585 426 b 564 406 585 418 581 406 l 290 406 b 269 426 274 406 269 418 l 269 751 l 103 751 z "},"о":{"ha":832,"x_min":0,"x_max":0,"o":"m 417 767 b 53 374 189 767 53 624 b 417 -15 53 121 189 -15 b 779 374 643 -15 779 126 b 417 767 779 631 643 767 z m 417 110 b 226 299 294 110 226 183 l 226 450 b 417 642 226 567 294 642 b 607 450 538 642 607 567 l 607 299 b 417 110 607 183 538 110 z "},"п":{"ha":833,"x_min":0,"x_max":0,"o":"m 103 0 l 260 0 l 260 617 l 574 617 l 574 0 l 731 0 l 731 751 l 103 751 z "},"р":{"ha":867,"x_min":0,"x_max":0,"o":"m 269 751 l 103 751 l 103 -278 l 269 -278 l 269 222 b 535 -15 306 71 401 -15 b 807 374 713 -15 807 107 b 535 767 807 640 713 767 b 269 529 401 767 306 681 z m 629 264 b 464 68 629 126 568 68 b 269 375 340 68 269 156 b 464 682 269 596 340 682 b 629 485 568 682 629 624 z "},"с":{"ha":799,"x_min":0,"x_max":0,"o":"m 744 463 l 744 476 b 415 767 744 672 606 767 b 53 374 183 767 53 631 b 415 -15 53 117 176 -15 b 744 268 615 -15 744 76 l 744 288 l 585 288 l 585 264 b 415 110 585 165 524 110 b 226 301 296 110 226 179 l 226 447 b 415 642 226 571 294 642 b 585 481 525 642 585 585 l 585 463 z "},"т":{"ha":1267,"x_min":0,"x_max":0,"o":"m 103 0 l 269 0 l 269 465 b 426 678 269 629 343 678 b 556 532 514 678 556 629 l 556 0 l 722 0 l 722 465 b 879 678 722 629 796 678 b 1008 532 967 678 1008 629 l 1008 0 l 1175 0 l 1175 528 b 958 767 1175 701 1085 767 b 721 565 847 767 753 697 b 506 767 708 711 622 767 b 269 571 396 767 303 699 l 269 751 l 103 751 z "},"у":{"ha":710,"x_min":0,"x_max":0,"o":"m 488 611 l 572 611 b 614 572 603 611 614 596 b 590 472 614 546 607 522 l 456 63 b 442 51 453 54 449 51 l 422 51 b 407 67 414 51 411 54 l 188 751 l 11 751 l 249 38 l 435 38 b 442 26 442 38 444 32 l 396 -112 b 360 -137 390 -133 376 -137 l 114 -137 l 114 -278 l 271 -278 b 414 -107 356 -278 369 -244 l 700 751 l 488 751 z "},"ф":{"ha":1053,"x_min":0,"x_max":0,"o":"m 449 -278 l 604 -278 l 604 0 l 626 0 b 999 385 867 0 999 151 b 642 751 999 617 857 751 l 618 751 b 604 765 608 751 604 758 l 604 1042 l 449 1042 l 449 765 b 435 751 449 758 444 751 l 410 751 b 53 385 196 751 53 617 b 426 0 53 151 186 0 l 449 0 z m 449 724 l 449 136 l 417 136 b 218 338 294 136 218 201 l 218 546 b 410 738 218 669 290 738 l 435 738 b 449 724 444 738 449 729 z m 604 724 b 618 738 604 729 608 738 l 643 738 b 833 546 763 738 833 669 l 833 338 b 635 136 833 201 757 136 l 604 136 z "},"х":{"ha":663,"x_min":0,"x_max":0,"o":"m 653 0 l 408 401 b 408 429 403 411 403 418 l 621 751 l 601 751 l 404 450 b 392 443 400 444 397 443 b 379 450 386 443 383 444 l 197 751 l 11 751 l 243 371 b 243 344 249 361 249 354 l 17 0 l 35 0 l 247 321 b 260 331 251 328 254 331 b 272 321 265 331 268 328 l 467 0 z "},"ц":{"ha":842,"x_min":0,"x_max":0,"o":"m 103 0 l 749 0 b 797 -49 779 0 797 -18 l 797 -278 l 814 -278 l 814 138 l 721 138 l 721 751 l 563 751 l 563 138 l 261 138 l 261 751 l 103 751 z "},"ч":{"ha":811,"x_min":0,"x_max":0,"o":"m 75 751 l 75 454 b 310 243 75 306 154 243 b 546 382 436 243 522 293 l 546 0 l 708 0 l 708 751 l 546 751 l 546 435 b 382 343 546 372 501 343 b 239 467 285 343 239 379 l 239 751 z "},"ш":{"ha":1049,"x_min":0,"x_max":0,"o":"m 103 0 l 946 0 l 946 751 l 786 751 l 786 138 l 553 138 b 532 158 546 138 532 142 l 532 751 l 515 751 l 515 158 b 494 138 515 142 503 138 l 261 138 l 261 751 l 103 751 z "},"щ":{"ha":1067,"x_min":0,"x_max":0,"o":"m 103 0 l 974 0 b 1022 -49 1004 0 1022 -18 l 1022 -278 l 1039 -278 l 1039 138 l 946 138 l 946 751 l 786 751 l 786 138 l 553 138 b 532 158 546 138 532 142 l 532 751 l 515 751 l 515 158 b 494 138 515 142 503 138 l 261 138 l 261 751 l 103 751 z "},"ъ":{"ha":874,"x_min":0,"x_max":0,"o":"m 236 0 l 589 0 b 833 244 742 0 833 97 b 582 475 833 376 750 475 l 419 475 b 399 496 403 475 399 488 l 399 751 l 17 751 l 17 614 l 236 614 z m 399 440 b 419 461 399 447 403 461 l 561 461 b 679 357 638 461 679 425 l 679 239 b 561 129 679 169 633 129 l 399 129 z "},"ы":{"ha":1068,"x_min":0,"x_max":0,"o":"m 103 0 l 456 0 b 700 244 608 0 700 97 b 449 475 700 376 617 475 l 286 475 b 265 496 269 475 265 488 l 265 751 l 103 751 z m 799 0 l 965 0 l 965 751 l 799 751 z m 265 440 b 286 461 265 447 269 461 l 428 461 b 546 357 504 461 546 425 l 546 239 b 428 129 546 169 500 129 l 265 129 z "},"ь":{"ha":740,"x_min":0,"x_max":0,"o":"m 103 0 l 456 0 b 700 244 608 0 700 97 b 449 475 700 376 617 475 l 286 475 b 265 496 269 475 265 488 l 265 751 l 103 751 z m 265 440 b 286 461 265 447 269 461 l 428 461 b 546 357 504 461 546 425 l 546 239 b 428 129 546 169 500 129 l 265 129 z "},"э":{"ha":800,"x_min":0,"x_max":0,"o":"m 54 467 l 215 467 l 215 481 b 394 642 215 585 281 642 b 575 454 510 642 575 574 l 575 414 b 554 393 575 406 571 393 l 318 393 l 318 379 l 554 379 b 575 358 571 379 575 365 l 575 294 b 394 110 575 176 510 110 b 215 260 281 110 215 164 l 215 285 l 54 285 l 54 264 b 392 -15 54 75 182 -15 b 747 374 619 -15 747 117 b 394 767 747 639 619 767 b 54 476 199 767 54 668 z "},"ю":{"ha":1189,"x_min":0,"x_max":0,"o":"m 103 0 l 269 0 l 269 365 b 290 386 269 372 274 386 l 415 386 l 415 374 b 775 -15 415 121 550 -15 b 1135 374 1001 -15 1135 126 b 775 767 1135 631 1001 767 b 415 400 558 767 425 633 l 290 400 b 269 421 274 400 269 413 l 269 751 l 103 751 z m 775 110 b 589 299 656 110 589 183 l 589 450 b 775 642 589 567 656 642 b 963 450 894 642 963 567 l 963 299 b 775 110 963 183 894 110 z "},"я":{"ha":813,"x_min":0,"x_max":0,"o":"m 311 317 l 396 317 l 367 267 b 328 244 357 251 347 244 l 197 244 l 43 0 l 217 0 l 400 294 b 432 317 413 315 417 317 l 525 317 b 543 297 540 317 543 304 l 543 0 l 710 0 l 710 751 l 314 751 b 65 524 157 751 65 660 b 311 317 65 399 147 317 z m 525 331 l 349 331 b 229 439 271 331 229 371 l 229 510 b 347 622 229 583 269 622 l 543 622 l 543 349 b 525 331 543 342 540 331 z "},"ѓ":{"ha":747,"x_min":0,"x_max":0,"o":"m 363 831 l 374 831 l 600 1031 l 600 1039 l 431 1039 z m 385 651 b 535 539 483 651 535 615 l 535 499 b 410 394 535 435 500 406 l 260 379 b 51 197 100 361 51 300 b 369 -15 51 56 156 -15 b 697 231 581 -15 697 67 l 697 257 l 539 257 l 539 225 b 369 99 539 142 479 99 b 213 214 265 99 213 138 l 213 263 b 342 374 213 332 249 363 l 492 389 b 693 556 638 406 693 450 b 382 767 693 693 582 767 b 64 528 176 767 64 686 l 64 501 l 222 501 l 222 529 b 385 651 222 607 275 651 z "},"ґ":{"ha":668,"x_min":0,"x_max":0,"o":"m 103 0 l 260 0 l 260 613 l 633 613 l 633 903 l 617 903 l 617 800 b 568 751 617 769 599 751 l 103 751 z "},"ђ":{"ha":856,"x_min":0,"x_max":0,"o":"m 103 0 l 269 0 l 269 439 b 456 678 269 628 356 678 b 597 525 554 678 597 628 l 597 -229 b 563 -264 597 -253 586 -264 l 482 -264 l 482 -278 l 646 -278 b 764 -161 722 -278 764 -242 l 764 528 b 536 767 764 701 668 767 b 269 551 411 767 304 697 l 269 883 l 544 883 l 544 897 l 269 897 l 269 1042 l 103 1042 l 103 897 l 0 897 l 0 883 l 103 883 z "},"є":{"ha":799,"x_min":0,"x_max":0,"o":"m 501 379 l 501 393 l 247 393 b 226 414 231 393 226 406 l 226 447 b 415 642 226 571 294 642 b 585 481 525 642 585 585 l 585 463 l 744 463 l 744 476 b 415 767 744 672 606 767 b 53 374 183 767 53 631 b 415 -15 53 117 176 -15 b 744 268 615 -15 744 76 l 744 288 l 585 288 l 585 264 b 415 110 585 165 524 110 b 226 301 296 110 226 179 l 226 358 b 247 379 226 365 231 379 z "},"ѕ":{"ha":744,"x_min":0,"x_max":0,"o":"m 372 651 b 526 529 476 651 526 614 l 526 501 l 681 501 l 681 528 b 372 767 681 693 574 767 b 58 557 171 767 58 690 b 274 390 58 451 113 407 l 414 378 b 539 269 503 368 539 336 l 539 215 b 381 99 539 132 483 99 b 207 225 267 99 207 142 l 207 257 l 50 257 l 50 231 b 381 -15 50 61 165 -15 b 697 203 585 -15 697 63 b 496 382 697 304 650 365 l 354 396 b 217 497 257 407 217 431 l 217 540 b 372 651 217 615 271 651 z "},"ѐ":{"ha":789,"x_min":0,"x_max":0,"o":"m 426 832 l 358 1040 l 188 1040 l 188 1032 l 415 832 z m 218 364 b 239 385 218 371 222 385 l 733 385 b 739 453 738 410 739 432 b 407 767 739 667 608 767 b 53 374 185 767 53 638 b 410 -15 53 107 176 -15 b 738 246 615 -15 738 86 l 738 261 l 583 261 l 583 242 b 410 110 583 157 519 110 b 218 301 285 110 218 171 z m 218 451 b 408 644 218 578 285 644 b 583 474 522 644 583 590 l 583 458 b 517 399 583 414 564 399 l 239 399 b 218 419 222 399 218 411 z "},"і":{"ha":372,"x_min":0,"x_max":0,"o":"m 188 856 b 288 954 247 856 288 894 b 188 1053 288 1014 247 1053 b 86 954 126 1053 86 1014 b 188 856 86 894 126 856 z m 103 0 l 269 0 l 269 751 l 103 751 z "},"ї":{"ha":372,"x_min":0,"x_max":0,"o":"m 93 863 b 164 957 136 863 164 889 b 93 1050 164 1025 136 1050 b 21 957 50 1050 21 1025 b 93 863 21 889 50 863 z m 279 863 b 351 957 322 863 351 889 b 279 1050 351 1025 322 1050 b 207 957 236 1050 207 1025 b 279 863 207 889 236 863 z m 103 0 l 269 0 l 269 751 l 103 751 z "},"ј":{"ha":372,"x_min":0,"x_max":0,"o":"m 188 856 b 288 954 247 856 288 894 b 188 1053 288 1014 247 1053 b 86 954 126 1053 86 1014 b 188 856 86 894 126 856 z m 269 -161 l 269 751 l 103 751 l 103 -229 b 68 -264 103 -253 92 -264 l -12 -264 l -12 -278 l 151 -278 b 269 -161 228 -278 269 -242 z "},"ѝ":{"ha":839,"x_min":0,"x_max":0,"o":"m 443 832 l 375 1040 l 204 1040 l 204 1032 l 432 832 z m 325 -15 b 569 192 439 -15 538 53 l 569 0 l 736 0 l 736 751 l 569 751 l 569 297 b 404 81 569 118 488 81 b 258 224 306 81 258 128 l 258 751 l 92 751 l 92 224 b 325 -15 92 50 188 -15 z "},"ќ":{"ha":793,"x_min":0,"x_max":0,"o":"m 403 831 l 414 831 l 640 1031 l 640 1039 l 471 1039 z m 103 0 l 269 0 l 269 381 b 283 394 269 388 274 394 l 360 394 l 599 0 l 781 0 l 526 407 l 778 751 l 600 751 l 360 408 l 283 408 b 269 422 274 408 269 414 l 269 751 l 103 751 z "},"љ":{"ha":1086,"x_min":0,"x_max":0,"o":"m 24 0 l 183 0 l 375 658 l 575 0 l 801 0 b 1046 244 954 0 1046 97 b 794 475 1046 376 963 475 l 592 475 l 507 751 l 249 751 z m 774 461 b 892 357 850 461 892 425 l 892 239 b 774 129 892 169 847 129 l 699 129 l 597 461 z "},"њ":{"ha":1200,"x_min":0,"x_max":0,"o":"m 103 0 l 269 0 l 269 390 b 290 411 269 397 274 411 l 547 411 b 568 390 564 411 568 397 l 568 0 l 925 0 b 1160 219 1072 0 1160 89 b 918 429 1160 350 1074 429 l 754 429 b 733 450 738 429 733 442 l 733 751 l 568 751 l 568 446 b 547 425 568 438 564 425 l 290 425 b 269 446 274 425 269 438 l 269 751 l 103 751 z m 733 394 b 754 415 733 401 738 415 l 897 415 b 1010 304 969 415 1010 376 l 1010 225 b 897 122 1010 160 967 122 l 733 122 z "},"ћ":{"ha":856,"x_min":0,"x_max":0,"o":"m 103 0 l 269 0 l 269 439 b 456 678 269 628 356 678 b 597 525 554 678 597 628 l 597 0 l 764 0 l 764 528 b 536 767 764 701 668 767 b 269 551 411 767 304 697 l 269 883 l 544 883 l 544 897 l 269 897 l 269 1042 l 103 1042 l 103 897 l 0 897 l 0 883 l 103 883 z "},"ў":{"ha":710,"x_min":0,"x_max":0,"o":"m 371 836 b 594 997 525 836 594 897 l 478 997 l 478 933 b 371 849 478 882 458 849 b 264 933 283 849 264 882 l 264 997 l 147 997 b 371 836 147 897 217 836 z m 488 611 l 572 611 b 614 572 603 611 614 596 b 590 472 614 546 607 522 l 456 63 b 442 51 453 54 449 51 l 422 51 b 407 67 414 51 411 54 l 188 751 l 11 751 l 249 38 l 435 38 b 442 26 442 38 444 32 l 396 -112 b 360 -137 390 -133 376 -137 l 114 -137 l 114 -278 l 271 -278 b 414 -107 356 -278 369 -244 l 700 751 l 488 751 z "},"џ":{"ha":829,"x_min":0,"x_max":0,"o":"m 103 0 l 365 0 b 414 -49 396 0 414 -18 l 414 -278 l 431 -278 l 431 -49 b 479 0 431 -18 449 0 l 726 0 l 726 751 l 568 751 l 568 138 l 261 138 l 261 751 l 103 751 z "},"ѣ":{"ha":800,"x_min":0,"x_max":0,"o":"m 163 0 l 525 0 b 760 228 672 0 760 92 b 511 449 760 354 682 449 l 350 449 b 329 469 333 449 329 461 l 329 621 l 529 621 l 529 751 l 329 751 l 329 1042 l 163 1042 l 163 751 l 11 751 l 11 621 l 163 621 z m 329 414 b 350 435 329 421 333 435 l 490 435 b 610 331 567 435 610 399 l 610 231 b 490 122 610 163 564 122 l 329 122 z "},"ѳ":{"ha":832,"x_min":0,"x_max":0,"o":"m 417 767 b 53 374 189 767 53 624 b 417 -15 53 121 189 -15 b 779 374 643 -15 779 126 b 417 767 779 631 643 767 z m 226 408 l 226 450 b 417 642 226 567 294 642 b 607 450 538 642 607 567 l 607 408 b 586 388 607 400 603 388 l 247 388 b 226 408 231 388 226 400 z m 417 110 b 226 299 294 110 226 183 l 226 353 b 247 374 226 360 231 374 l 586 374 b 607 353 603 374 607 360 l 607 299 b 417 110 607 183 538 110 z "},"ѵ":{"ha":724,"x_min":0,"x_max":0,"o":"m 425 0 l 576 569 b 614 604 583 596 592 604 l 717 604 l 717 758 l 658 758 b 590 689 618 758 603 744 l 422 53 b 408 40 419 43 415 40 b 394 53 401 40 397 43 l 189 751 l 17 751 l 243 0 z "},"ʼ":{"ha":350,"x_min":0,"x_max":0,"o":"m 172 788 b 242 813 201 788 226 799 l 158 635 l 172 635 l 246 793 b 271 882 263 828 271 851 b 174 978 271 940 232 978 b 76 882 115 978 76 940 b 172 788 76 826 115 788 z "}}}
